<?xml version="1.0" standalone="no"?>
<!DOCTYPE svg PUBLIC "-//W3C//DTD SVG 1.1//EN" "http://www.w3.org/Graphics/SVG/1.1/DTD/svg11.dtd" >
<svg>
<metadata>
Created by FontForge 20090622 at Thu Apr 26 15:26:24 2018
 By deploy user
Copyright (c) 2013 by Glenjan. All rights reserved.
</metadata>
<defs>
<font id="LetoSans" horiz-adv-x="641" >
  <font-face 
    font-family="Leto Sans"
    font-weight="400"
    font-stretch="normal"
    units-per-em="1000"
    panose-1="4 10 5 5 2 6 1 2 2 2"
    ascent="760"
    descent="-240"
    x-height="510"
    cap-height="670"
    bbox="-146 -319 1112 986"
    underline-thickness="75"
    underline-position="-26"
    unicode-range="U+0020-U+2265"
  />
<missing-glyph horiz-adv-x="539" 
d="M269 323l114 113l61 -61l-113 -113l113 -114l-61 -62l-114 114l-114 -114l-61 62l114 114l-113 113l61 62z" />
    <glyph glyph-name="fk.l" unicode="fk" horiz-adv-x="1011" 
d="M126 511v48q0 41 16 77t45.5 63t72 42.5t95.5 15.5q69 0 125.5 -17.5t104.5 -51.5v-380l95 11l155 191h124l-194 -229l221 -281h-122l-174 228h-105v-228h-97v639q-27 17 -60.5 24t-69.5 7q-60 0 -97.5 -30t-37.5 -88v-42h164v-85h-164v-425h-97v425h-83v81z" />
    <glyph glyph-name="ff.l" unicode="ff" horiz-adv-x="749" 
d="M126 511v39q0 40 14 76t41.5 63t68.5 42.5t94 15.5q51 0 92.5 -11.5t76.5 -34.5q26 26 63.5 41t87.5 15q51 0 89 -13t73 -38l-45 -69q-51 34 -113 34q-55 0 -82.5 -30t-27.5 -87v-44h164v-85h-164v-425h-97v425h-238v-425h-97v425h-83v81zM461 510v45q0 39 11 72
q-53 34 -125 34q-58 0 -91 -29t-33 -83v-39h238z" />
    <glyph glyph-name="fi.l" unicode="fi" horiz-adv-x="623" 
d="M126 511v47q0 43 14.5 80t43 64.5t69.5 43.5t95 16q65 0 118 -17t99 -51l-48 -73q-37 26 -79 39.5t-86 13.5q-57 0 -93 -30t-36 -87v-47h326v-510h-99v425h-227v-425h-97v425h-83v81z" />
    <glyph glyph-name="fj.l" unicode="fj" horiz-adv-x="623" 
d="M126 511v47q0 43 14.5 80t43 64.5t69.5 43.5t95 16q65 0 117.5 -16.5t99.5 -51.5l-48 -73q-37 26 -79 39.5t-86 13.5q-57 0 -93 -30t-36 -87v-47h327v-546q0 -44 -11.5 -81t-35 -64t-58 -42t-80.5 -15q-40 0 -73.5 8t-65.5 25l34 78q26 -14 49 -19t52 -5q41 0 66.5 28
t25.5 88v460h-230v-425h-97v425h-83v81z" />
    <glyph glyph-name="fl.l" unicode="fl" horiz-adv-x="658" 
d="M126 511v48q0 41 16 77t45.5 63t72 42.5t95.5 15.5q69 0 125.5 -17.5t104.5 -51.5v-688h-97v639q-26 16 -59.5 23.5t-70.5 7.5q-60 0 -97.5 -30t-37.5 -88v-42h164v-85h-164v-425h-97v425h-83v81z" />
    <glyph glyph-name="fh.l" unicode="fh" horiz-adv-x="1055" 
d="M126 511v48q0 41 16 77t45.5 63t72 42.5t95.5 15.5q69 0 125.5 -17.5t104.5 -51.5v-269q27 50 72.5 76.5t114.5 26.5q98 0 154 -56t56 -165v-301h-97v290q0 75 -33 111.5t-96 36.5q-60 0 -105 -39t-66 -110v-289h-97v639q-27 17 -60.5 24t-69.5 7q-60 0 -97.5 -30
t-37.5 -88v-42h164v-85h-164v-425h-97v425h-83v81z" />
    <glyph glyph-name="ft.l" unicode="ft" horiz-adv-x="799" 
d="M126 511v51q0 41 15.5 78t45 64.5t72 44t96.5 16.5q122 0 208 -61l-11 -194h189v-85h-186v-254q0 -50 22 -72.5t67 -22.5q29 0 53 8t44 22l36 -73q-32 -23 -68.5 -34t-78.5 -11q-83 0 -128 45t-45 140v252h-234v-425h-97v425h-83v81zM453 510l16 143q-25 14 -53 19.5
t-58 5.5q-63 0 -99 -33.5t-36 -90.5v-44h230z" />
    <glyph glyph-name="ffl.l" unicode="ffl" horiz-adv-x="996" 
d="M126 511v39q0 40 14 76t41.5 63t68.5 42.5t94 15.5q104 0 178 -51q30 28 73.5 44.5t97.5 16.5q71 0 125 -18t105 -51v-688h-97v639q-26 15 -59.5 23t-70.5 8q-60 0 -98 -30.5t-38 -86.5v-43h165v-85h-165v-425h-97v425h-240v-425h-97v425h-83v81zM463 510v49q0 35 12 67
q-55 35 -128 35q-58 0 -91 -29t-33 -83v-39h240z" />
    <glyph glyph-name="ffi.l" unicode="ffi" horiz-adv-x="961" 
d="M126 511v39q0 40 14 76t41.5 63t68.5 42.5t94 15.5q51 0 94 -12t78 -35q29 29 72 45.5t98 16.5q65 0 117.5 -16.5t99.5 -51.5l-50 -71q-37 27 -78 39.5t-85 12.5q-57 0 -94.5 -30.5t-37.5 -87.5v-47h329v-510h-99v425h-230v-425h-97v425h-238v-425h-97v425h-83v81z
M461 510v48q0 36 11 69q-54 34 -125 34q-58 0 -91 -29t-33 -83v-39h238z" />
    <glyph glyph-name="ffj.l" unicode="ffj" horiz-adv-x="961" 
d="M126 511v39q0 40 14 76t41.5 63t68.5 42.5t94 15.5q51 0 94 -12t78 -35q29 29 72 45.5t98 16.5q65 0 117.5 -16.5t99.5 -51.5l-50 -71q-37 27 -78 39.5t-85 12.5q-57 0 -94.5 -30.5t-37.5 -87.5v-47h329v-546q0 -45 -11.5 -82t-34.5 -64t-57.5 -42t-80.5 -15
q-41 0 -74.5 8t-65.5 26l34 77q26 -13 49 -18.5t52 -5.5q41 0 66.5 28t25.5 88v461h-232v-425h-97v425h-238v-425h-97v425h-83v81zM461 510v48q0 36 11 69q-54 34 -125 34q-58 0 -91 -29t-33 -83v-39h238z" />
    <glyph glyph-name="cyr.ii.l" unicode="&#x456;&#x457;" horiz-adv-x="491" 
d="M172 510v-510h-99v510h99zM418 510v-510h-99v510h99zM25 733q25 0 43.5 -16.5t18.5 -44.5t-18.5 -44.5t-43.5 -16.5q-24 0 -43 16.5t-19 44.5t19 44.5t43 16.5zM465 733q25 0 44 -16.5t19 -44.5t-19 -44.5t-44 -16.5q-24 0 -42.5 16.5t-18.5 44.5t18.5 44.5t42.5 16.5z
M245 739q29 0 48.5 -18.5t19.5 -47.5q0 -30 -19.5 -48.5t-48.5 -18.5q-28 0 -47.5 18.5t-19.5 48.5q0 29 19.5 47.5t47.5 18.5z" />
    <glyph glyph-name="lsl.l" unicode="&#x17f;l" horiz-adv-x="543" 
d="M73 559q0 43 14 80t41 64.5t66.5 43t91.5 15.5q57 0 102.5 -15t81.5 -41v-706h-97v660q-38 16 -84 16q-54 0 -86.5 -31t-32.5 -89v-556h-97v559z" />
    <glyph glyph-name="lsk.l" unicode="&#x17f;k" horiz-adv-x="896" 
d="M73 559q0 43 14 80t41 64.5t66.5 43t91.5 15.5q57 0 102.5 -15t81.5 -41v-398l95 11l155 191h124l-194 -229l221 -281h-122l-174 228h-105v-228h-97v660q-40 16 -84 16q-54 0 -86.5 -31t-32.5 -89v-556h-97v559z" />
    <glyph glyph-name="lsls.l" unicode="&#x17f;&#x17f;" horiz-adv-x="573" 
d="M73 545q0 43 14.5 80t42 64t67 42.5t89.5 15.5q45 0 82.5 -9t70.5 -26q23 21 56.5 33t77.5 12q51 0 89 -12.5t73 -38.5l-46 -74q-26 19 -55 28t-59 9q-52 0 -77 -31.5t-25 -86.5v-551h-97v556q0 23 3 43.5t11 38.5q-23 11 -47 17t-54 6q-54 0 -86.5 -30t-32.5 -90v-541
h-97v545z" />
    <glyph glyph-name="lslsi.l" unicode="&#x17f;&#x17f;i" horiz-adv-x="828" 
d="M73 545q0 43 14.5 80t42 64t67 42.5t89.5 15.5q86 0 154 -37q27 23 65.5 36.5t84.5 13.5q53 0 99.5 -13t82.5 -39l-46 -73q-26 17 -60.5 28t-72.5 11q-55 0 -87.5 -30.5t-32.5 -90.5v-553h-97v556q0 46 15 82q-23 11 -47.5 17t-54.5 6q-54 0 -86.5 -30t-32.5 -90v-541
h-97v545zM755 510v-510h-100v510h100z" />
    <glyph glyph-name="lslsl.l" unicode="&#x17f;&#x17f;l" horiz-adv-x="846" 
d="M73 545q0 43 14.5 80t42 64t67 42.5t89.5 15.5q90 0 157 -38q26 23 62 36t81 13q57 0 103.5 -15t83.5 -43v-700h-97v655q-19 8 -40 12.5t-47 4.5q-52 0 -84 -31.5t-32 -91.5v-549h-97v553q0 46 15 84q-44 24 -102 24q-54 0 -86.5 -30t-32.5 -90v-541h-97v545z" />
    <glyph glyph-name="lsi.l" unicode="&#x17f;i" horiz-adv-x="526" 
d="M452 510v-510h-99v510h99zM73 557q0 43 14 80t41.5 64.5t67.5 43.5t92 16q51 0 98.5 -13t82.5 -39l-46 -73q-26 17 -60.5 28t-71.5 11q-54 0 -87.5 -30.5t-33.5 -90.5v-554h-97v557z" />
    <glyph glyph-name="lsh.l" unicode="&#x17f;h" horiz-adv-x="940" 
d="M73 559q0 43 14 80t41 64.5t66.5 43t91.5 15.5q57 0 102.5 -15t81.5 -41v-287q27 50 72.5 76.5t114.5 26.5q98 0 154 -56t56 -165v-301h-96v290q0 75 -33.5 111.5t-96.5 36.5q-60 0 -104.5 -39t-66.5 -110v-289h-97v660q-40 16 -84 16q-54 0 -86.5 -31t-32.5 -89v-556
h-97v559z" />
    <glyph glyph-name="lst.l" unicode="&#x17f;t" horiz-adv-x="711" 
d="M365 510l16 147q-41 19 -92 19q-54 0 -86.5 -31t-32.5 -89v-556h-97v559q0 43 14 80t41 64.5t66.5 43t91.5 15.5q57 0 103.5 -15t83.5 -44l-9 -193h189v-85h-186v-254q0 -50 22.5 -72.5t67.5 -22.5q28 0 52.5 8t44.5 22l36 -73q-32 -23 -69 -34t-79 -11q-83 0 -128 45
t-45 140v252h-83v79z" />
    <glyph glyph-name=".notdef" horiz-adv-x="539" 
d="M269 323l114 113l61 -61l-113 -113l113 -114l-61 -62l-114 114l-114 -114l-61 62l114 114l-113 113l61 62z" />
    <glyph glyph-name="space" unicode=" " horiz-adv-x="300" 
 />
    <glyph glyph-name="exclam" unicode="!" horiz-adv-x="239" 
d="M168 728v-532h-97v532h97zM119 124q28 0 47.5 -18t19.5 -47t-19.5 -47t-47.5 -18q-26 0 -46 18t-20 47t20 47t46 18z" />
    <glyph glyph-name="quotedbl" unicode="&#x22;" horiz-adv-x="329" 
d="M281 684v-49l-19 -143h-68v192h87zM135 684v-49l-19 -143h-68v192h87z" />
    <glyph glyph-name="numbersign" unicode="#" horiz-adv-x="613" 
d="M478 581l-14 -97l95 -3v-77h-107l-19 -114h112v-77l-125 -3l-18 -112l-78 11l16 101h-119l-20 -107l-75 9l15 98l-88 3v77h99l18 114h-102v78l115 2l19 108l78 -11l-16 -97h119l19 108zM233 290h119l18 114h-119z" />
    <glyph glyph-name="dollar" unicode="$" horiz-adv-x="645" 
d="M368 780v-118q55 -5 103 -22.5t89 -49.5l-51 -71q-83 57 -187 57q-81 0 -116 -26.5t-35 -68.5t26.5 -63.5t85.5 -29.5l103 -14q95 -14 148.5 -59.5t53.5 -128.5q0 -36 -13.5 -69t-41 -59.5t-69 -44t-96.5 -23.5v-116h-97v113q-60 5 -113 23t-103 54l47 79
q56 -38 107.5 -53.5t107.5 -15.5q86 0 129 29t43 81q0 41 -29 65.5t-91 32.5l-108 14q-91 12 -140.5 56t-49.5 125q0 40 14.5 71.5t41.5 55t64 37.5t82 19v120h95z" />
    <glyph glyph-name="percent" unicode="%" horiz-adv-x="779" 
d="M203 642q35 0 64.5 -11.5t50.5 -32t33 -48.5t12 -60t-12 -60t-33 -48.5t-50.5 -32t-64.5 -11.5t-64.5 11.5t-50.5 32t-33 48.5t-12 60t12 60t33 48.5t50.5 32t64.5 11.5zM663 584l-485 -601l-64 49l486 602zM203 567q-35 0 -56 -21t-21 -56t21 -56t56 -21t56 21t21 56
t-21 56t-56 21zM591 297q34 0 63.5 -11.5t50.5 -32t33 -48.5t12 -60t-12 -60t-33 -48.5t-50.5 -32t-63.5 -11.5q-35 0 -64.5 11.5t-50.5 32t-33 48.5t-12 60t12 60t33 48.5t50.5 32t64.5 11.5zM591 222q-35 0 -56 -21t-21 -56t21 -56t56 -21t55.5 21t20.5 56t-20.5 56
t-55.5 21z" />
    <glyph glyph-name="ampersand" unicode="&#x26;" horiz-adv-x="742" 
d="M669 369q0 -90 -27.5 -161.5t-75.5 -122.5l71 -75l-69 -64l-76 82q-36 -20 -77 -31t-88 -11q-64 0 -113 17.5t-82.5 49t-51 74.5t-17.5 94q0 59 25.5 107t73.5 77q-16 38 -16 80q0 36 14 68.5t41.5 57t69 39.5t96.5 15q68 0 120 -22t90 -62l-59 -67q-30 32 -67 49.5
t-85 17.5q-62 0 -92.5 -30t-30.5 -71q0 -52 40 -95l222 -235q33 39 51.5 94t18.5 125h94zM211 336q-51 -41 -51 -109q0 -33 11.5 -61.5t33.5 -49.5t54 -33t73 -12q54 0 100 23z" />
    <glyph glyph-name="quotesingle" unicode="'" horiz-adv-x="184" 
d="M135 684v-56l-19 -149h-68v205h87z" />
    <glyph glyph-name="parenleft" unicode="(" horiz-adv-x="313" 
d="M300 627q-76 -73 -113 -161t-37 -200q0 -105 36 -191.5t114 -168.5l-59 -57q-88 74 -138 177t-50 240q0 121 46 227.5t141 191.5z" />
    <glyph glyph-name="parenright" unicode=")" horiz-adv-x="313" 
d="M72 685q88 -74 138 -177t50 -240q0 -121 -45.5 -227.5t-141.5 -191.5l-60 58q76 73 113.5 161t37.5 200q0 105 -36 191.5t-115 168.5z" />
    <glyph glyph-name="asterisk" unicode="*" horiz-adv-x="422" 
d="M188 593l35 107l78 -26l-45 -105l112 6v-80l-113 7l46 -104l-80 -28l-34 108l-87 -72l-47 68l93 60l-93 67l50 64z" />
    <glyph glyph-name="plus" unicode="+" horiz-adv-x="520" 
d="M306 544v-161h151v-83h-151v-161h-91v161h-152v83h152v161h91z" />
    <glyph glyph-name="comma" unicode="," horiz-adv-x="241" 
d="M92 -2q-17 8 -28 24t-11 38q0 30 20 48t48 18t47 -17t19 -49q0 -20 -6 -33l-57 -135l-57 21z" />
    <glyph glyph-name="hyphen" unicode="-" horiz-adv-x="428" 
d="M364 324v-84h-301v84h301z" />
    <glyph glyph-name="period" unicode="." horiz-adv-x="244" 
d="M122 129q28 0 48.5 -18.5t20.5 -49.5q0 -30 -20.5 -48.5t-48.5 -18.5t-48.5 18.5t-20.5 48.5q0 31 20.5 49.5t48.5 18.5z" />
    <glyph glyph-name="slash" unicode="/" horiz-adv-x="392" 
d="M393 706l-329 -792l-81 34l328 792z" />
    <glyph glyph-name="zero" unicode="0" horiz-adv-x="774" 
d="M387 684q75 0 136 -26.5t104 -73.5t66.5 -111t23.5 -138q0 -72 -23.5 -135.5t-66.5 -111t-104 -75t-136 -27.5t-136 27t-104 74.5t-66.5 111t-23.5 136.5t23.5 136.5t67 110.5t104.5 74.5t135 27.5zM387 595q-56 0 -98.5 -20t-71.5 -55.5t-44 -83t-15 -101.5t15.5 -101.5
t44.5 -83t72 -55.5t97 -20q55 0 97.5 20t72 55t44.5 82.5t15 102.5q0 57 -15.5 104.5t-44.5 82t-72 54t-97 19.5z" />
    <glyph glyph-name="one" unicode="1" horiz-adv-x="378" 
d="M295 670v-670h-99v528l-103 -77l-50 67l186 157z" />
    <glyph glyph-name="two" unicode="2" horiz-adv-x="625" 
d="M556 0h-487v84l284 218q54 42 79 82t25 86q0 57 -38 91.5t-116 34.5q-104 0 -189 -73l-51 72q51 48 113.5 68.5t131.5 20.5q59 0 105 -15.5t78 -43.5t48.5 -66.5t16.5 -84.5q0 -70 -33 -124.5t-102 -106.5l-204 -153h339v-90z" />
    <glyph glyph-name="three" unicode="3" horiz-adv-x="644" 
d="M343 393q50 0 77 25.5t27 68.5q0 51 -35 79.5t-112 28.5q-45 0 -90 -16t-87 -53l-53 71q102 87 238 87q58 0 102.5 -14.5t75 -39t46.5 -58t16 -72.5q0 -45 -19 -81.5t-56 -55.5v-10q51 -17 80 -57.5t29 -98.5q0 -43 -18 -81.5t-53.5 -67t-87.5 -45.5t-120 -17
q-80 0 -142 23t-121 76l57 73q52 -45 101 -64t113 -19q81 0 124.5 34.5t43.5 90.5q0 50 -32.5 77.5t-96.5 27.5h-154v88h147z" />
    <glyph glyph-name="four" unicode="4" horiz-adv-x="683" 
d="M550 670v-461h95v-84l-95 -6v-119h-99v120h-408v80l370 470h137zM168 209h283v348h-13z" />
    <glyph glyph-name="five" unicode="5" horiz-adv-x="631" 
d="M533 670v-89h-324l-13 -165q28 14 61 21.5t76 7.5q52 0 96 -15t76 -44t50 -71t18 -97q0 -48 -19 -90.5t-54 -74t-86.5 -49.5t-115.5 -18q-78 0 -138.5 24.5t-111.5 75.5l60 71q45 -45 93 -63.5t105 -18.5q36 0 67.5 9.5t54 28t35.5 45t13 59.5q0 65 -40 103t-114 38
q-56 0 -94.5 -11.5t-67.5 -32.5l-66 24l30 332h409z" />
    <glyph glyph-name="six" unicode="6" horiz-adv-x="655" 
d="M527 537q-77 60 -170 60q-85 0 -141 -54t-64 -159q38 32 86.5 48.5t114.5 16.5q57 0 103 -16t78.5 -45t50 -71t17.5 -94q0 -51 -20 -94t-56 -75t-85 -50t-107 -18q-134 0 -207.5 87.5t-73.5 248.5q0 85 22.5 152.5t63.5 114t98.5 71t128.5 24.5q58 0 113 -19t100 -57z
M153 296q0 -58 14 -100t38.5 -69.5t57.5 -40.5t71 -13q37 0 68.5 10.5t54 30t35 47t12.5 61.5q0 69 -42.5 105.5t-121.5 36.5q-53 0 -101 -17.5t-86 -50.5z" />
    <glyph glyph-name="seven" unicode="7" horiz-adv-x="580" 
d="M532 670v-74l-275 -596h-109l273 582h-373v88h484z" />
    <glyph glyph-name="eight" unicode="8" horiz-adv-x="655" 
d="M327 684q56 0 100 -13.5t74 -38t45.5 -59t15.5 -75.5q0 -42 -19.5 -79.5t-55.5 -62.5q55 -23 85 -64.5t30 -99.5q0 -41 -17.5 -78t-52 -65.5t-87 -45.5t-122.5 -17q-67 0 -117.5 16t-84.5 44.5t-51 67.5t-17 85q0 58 28.5 105.5t79.5 73.5q-32 20 -48 53.5t-16 71.5
q0 39 16 72t46 57.5t72.5 38t95.5 13.5zM293 321l-29 5.5t-24 5.5q-46 -17 -67.5 -51t-21.5 -78q0 -59 46 -95t130 -36q87 0 130.5 33.5t43.5 87.5q0 45 -31.5 72.5t-105.5 41.5zM361 395q22 -4 40 -9q34 17 50 44.5t16 65.5q0 43 -32.5 73.5t-107.5 30.5q-67 0 -100 -28.5
t-33 -70.5q0 -40 28.5 -62.5t82.5 -32.5z" />
    <glyph glyph-name="nine" unicode="9" horiz-adv-x="652" 
d="M114 133q39 -31 85 -45.5t94 -14.5q88 0 143.5 53.5t63.5 158.5q-38 -32 -86.5 -48.5t-114.5 -16.5q-57 0 -102.5 16t-77.5 45t-49 71t-17 94q0 51 19.5 95t54 75.5t83 49.5t105.5 18q137 0 210.5 -88t73.5 -248q0 -86 -21 -153t-61.5 -113.5t-99 -71t-133.5 -24.5
q-59 0 -118 18.5t-104 57.5zM499 374q0 58 -14 100t-38.5 69.5t-58 40.5t-73.5 13q-36 0 -66.5 -10.5t-52 -30t-33.5 -47.5t-12 -62q0 -69 41 -106t120 -37q53 0 101 18.5t86 51.5z" />
    <glyph glyph-name="colon" unicode=":" horiz-adv-x="237" 
d="M119 122q26 0 45.5 -17.5t19.5 -46.5t-19.5 -46.5t-45.5 -17.5t-46 17.5t-20 46.5t20 46.5t46 17.5zM119 471q26 0 45.5 -17.5t19.5 -46.5t-19.5 -46.5t-45.5 -17.5t-46 17.5t-20 46.5t20 46.5t46 17.5z" />
    <glyph glyph-name="semicolon" unicode=";" horiz-adv-x="237" 
d="M119 471q26 0 45.5 -17.5t19.5 -46.5t-19.5 -46.5t-45.5 -17.5t-46 17.5t-20 46.5t20 46.5t46 17.5zM93 -1q-17 7 -28.5 21.5t-11.5 36.5q0 29 19 47t47 18q26 0 45.5 -18t19.5 -47q0 -8 -2 -16t-4 -15l-56 -134l-56 21z" />
    <glyph glyph-name="less" unicode="&#x3c;" horiz-adv-x="407" 
d="M344 502l-178 -153l177 -150l-56 -70l-244 206v31l245 200z" />
    <glyph glyph-name="equal" unicode="=" horiz-adv-x="476" 
d="M413 469v-81h-350v81h350zM413 295v-80h-350v80h350z" />
    <glyph glyph-name="greater" unicode="&#x3e;" horiz-adv-x="407" 
d="M364 361v-32l-245 -200l-56 64l178 154l-177 150l55 69z" />
    <glyph glyph-name="question" unicode="?" horiz-adv-x="607" 
d="M53 646q54 45 114.5 65t131.5 20q56 0 103 -14t80.5 -41.5t52.5 -67.5t19 -91q0 -79 -47 -134.5t-134 -76.5q-37 -9 -52.5 -28t-15.5 -44q0 -17 5 -34l-86 -10q-11 25 -11 59q0 49 31 84.5t92 51.5q66 18 93 51t27 81q0 60 -42.5 94t-114.5 34q-58 0 -106 -18t-90 -52z
M272 124q27 0 47 -18t20 -47t-20 -47t-47 -18t-46.5 18t-19.5 47t19.5 47t46.5 18z" />
    <glyph glyph-name="at" unicode="@" horiz-adv-x="879" 
d="M600 210q0 -30 12.5 -43.5t35.5 -13.5q34 0 55.5 36.5t21.5 109.5q0 54 -15.5 99t-48 77.5t-81.5 50.5t-116 18q-71 0 -128.5 -22.5t-98.5 -62.5t-63.5 -93.5t-22.5 -116.5q0 -64 19.5 -115t56 -87t89 -55t118.5 -19q76 0 136.5 10.5t118.5 33.5l25 -73
q-61 -27 -130 -40.5t-150 -13.5q-83 0 -152 24.5t-118.5 70.5t-77.5 113t-28 151q0 78 31 147t85 120.5t128.5 81t161.5 29.5q75 0 139 -22t111 -64t73.5 -102.5t26.5 -137.5q0 -49 -11.5 -90t-33.5 -70.5t-54 -46t-72 -16.5q-38 0 -65.5 15t-39.5 45q-22 -32 -53.5 -49.5
t-75.5 -17.5q-71 0 -116 46t-45 130q0 45 15.5 81.5t42.5 63t64 40.5t81 14q83 0 149 -31v-205zM515 359q-28 11 -66 11q-50 0 -80 -29.5t-30 -90.5q0 -53 23 -77t57 -24q42 0 69 29t27 74v107z" />
    <glyph glyph-name="A" unicode="A" horiz-adv-x="762" 
d="M440 671l281 -671h-112l-60 152h-339l-59 -152h-109l279 671h119zM244 240h271l-129 328h-12z" />
    <glyph glyph-name="B" unicode="B" horiz-adv-x="677" 
d="M361 670q55 0 97.5 -13t71 -36.5t43 -56t14.5 -70.5q0 -42 -19 -78t-54 -53v-9q52 -15 83.5 -59t31.5 -101q0 -40 -14.5 -75t-44 -61.5t-74.5 -42t-106 -15.5h-307v670h278zM185 86h205q69 0 104 28.5t35 82.5q0 52 -35.5 81t-104.5 29h-204v-221zM185 392h192
q57 0 83.5 26.5t26.5 71.5q0 94 -129 94h-173v-192z" />
    <glyph glyph-name="C" unicode="C" horiz-adv-x="727" 
d="M617 523q-84 70 -205 70q-58 0 -105.5 -18t-81 -52t-52 -81.5t-18.5 -106.5q0 -60 19 -108t53 -81t80.5 -51t101.5 -18q64 0 118.5 21.5t99.5 61.5l57 -70q-108 -104 -280 -104q-78 0 -142.5 24t-111 69t-72 109t-25.5 145q0 74 25.5 138t73 111.5t115.5 74.5t154 27
q72 0 136.5 -23.5t112.5 -65.5z" />
    <glyph glyph-name="D" unicode="D" horiz-adv-x="728" 
d="M320 670q82 0 147.5 -24.5t111.5 -69t71 -106t25 -135.5q0 -73 -25.5 -134.5t-72.5 -106t-113 -69.5t-147 -25h-234v670h237zM184 89h133q55 0 102.5 17t81.5 49t53.5 77.5t19.5 102.5q0 120 -68.5 183t-189.5 63h-132v-492z" />
    <glyph glyph-name="E" unicode="E" 
d="M565 670v-89h-382v-189h336v-88h-336v-214h400v-90h-500v670h482z" />
    <glyph glyph-name="F" unicode="F" horiz-adv-x="606" 
d="M553 670v-89h-370v-199h320v-88h-320v-294h-100v670h470z" />
    <glyph glyph-name="G" unicode="G" horiz-adv-x="740" 
d="M677 359v-281q-52 -45 -121.5 -68.5t-149.5 -23.5q-79 0 -144 24t-111.5 69t-72 109t-25.5 145q0 73 25 137t71.5 111.5t114 75t153.5 27.5q68 0 131 -21t113 -63l-54 -73q-38 33 -88.5 49.5t-106.5 16.5q-58 0 -105.5 -18t-81 -52t-52 -81.5t-18.5 -106.5q0 -61 19 -109
t53 -81t80.5 -50.5t102.5 -17.5q103 0 170 47v146l-147 7v82h244z" />
    <glyph glyph-name="H" unicode="H" horiz-adv-x="732" 
d="M186 670v-282h360v282h102v-670h-102v297h-360v-297h-103v670h103z" />
    <glyph glyph-name="I" unicode="I" horiz-adv-x="269" 
d="M186 670v-670h-103v670h103z" />
    <glyph glyph-name="J" unicode="J" horiz-adv-x="540" 
d="M457 670v-427q0 -123 -57.5 -190t-171.5 -67q-54 0 -99.5 12.5t-90.5 46.5l46 78q37 -26 71.5 -36.5t72.5 -10.5q54 0 90.5 37t36.5 118v439h102z" />
    <glyph glyph-name="K" unicode="K" horiz-adv-x="703" 
d="M183 670v-275l104 8l218 267h126l-261 -310l286 -360h-130l-237 312h-106v-312h-100v670h100z" />
    <glyph glyph-name="L" unicode="L" horiz-adv-x="619" 
d="M185 670v-580h386v-90h-488v670h102z" />
    <glyph glyph-name="M" unicode="M" horiz-adv-x="840" 
d="M195 670l226 -349l227 349h109v-670h-99v514h-9l-205 -315h-51l-204 315h-9v-514h-97v670h112z" />
    <glyph glyph-name="N" unicode="N" horiz-adv-x="752" 
d="M669 670v-670h-100l-388 508v-508h-98v670h91l398 -521v521h97z" />
    <glyph glyph-name="O" unicode="O" horiz-adv-x="811" 
d="M405 684q79 0 144 -26.5t111 -73.5t71.5 -111t25.5 -138q0 -72 -25.5 -135.5t-72 -111t-111 -75t-143.5 -27.5t-143.5 27t-111 74.5t-72 111t-25.5 136.5t26 136.5t72.5 110.5t111 74.5t142.5 27.5zM405 595q-59 0 -105.5 -20t-78.5 -55t-49 -82.5t-17 -102.5
t17.5 -102.5t49.5 -82.5t78.5 -55t104.5 -20q59 0 105.5 19.5t79 54.5t49.5 82.5t17 103.5q0 57 -17.5 104.5t-49.5 82t-79 54t-105 19.5z" />
    <glyph glyph-name="P" unicode="P" horiz-adv-x="675" 
d="M368 670q55 0 102 -16.5t80.5 -47t52.5 -73.5t19 -95q0 -55 -20.5 -98.5t-56.5 -74t-84.5 -46.5t-103.5 -16h-171v-203h-103v670h285zM186 291h169q76 0 120.5 38.5t44.5 107.5q0 68 -41 106.5t-117 38.5h-176v-291z" />
    <glyph glyph-name="Q" unicode="Q" horiz-adv-x="811" 
d="M694 -149l-184 150q-48 -15 -105 -15q-79 0 -143.5 27t-111 74.5t-72 111t-25.5 136.5t26 136.5t72.5 110.5t111 74.5t142.5 27.5q79 0 144 -26.5t111 -73.5t71.5 -111t25.5 -138q0 -91 -39.5 -166.5t-109.5 -123.5l149 -115zM405 595q-59 0 -105.5 -20t-78.5 -55
t-49 -82.5t-17 -102.5t17.5 -102.5t49.5 -82.5t78.5 -55t104.5 -20q59 0 105.5 19.5t79 54.5t49.5 82.5t17 103.5q0 57 -17.5 104.5t-49.5 82t-79 54t-105 19.5z" />
    <glyph glyph-name="R" unicode="R" horiz-adv-x="686" 
d="M372 670q55 0 101 -16t79 -45.5t51 -70.5t18 -90q0 -73 -42 -125t-111 -75l175 -248h-124l-150 224h-183v-224h-103v670h289zM186 312h175q72 0 114.5 36t42.5 100q0 67 -42 100.5t-111 33.5h-179v-270z" />
    <glyph glyph-name="S" unicode="S" horiz-adv-x="653" 
d="M525 532q-41 30 -92 46.5t-106 16.5q-81 0 -117 -27t-36 -72t27.5 -67.5t88.5 -30.5l100 -14q102 -15 155.5 -63t53.5 -130q0 -45 -18 -82.5t-53.5 -64.5t-88.5 -42.5t-123 -15.5q-78 0 -142 17.5t-122 60.5l48 81q55 -38 109.5 -54t114.5 -16q87 0 130.5 31t43.5 82
q0 42 -29 68.5t-96 35.5l-105 15q-95 13 -144.5 58t-49.5 127q0 47 18.5 83t51.5 60t79.5 36.5t102.5 12.5q69 0 135.5 -19t115.5 -59z" />
    <glyph glyph-name="T" unicode="T" horiz-adv-x="689" 
d="M641 670v-90h-246v-580h-101v580h-246v90h593z" />
    <glyph glyph-name="U" unicode="U" horiz-adv-x="754" 
d="M186 670v-364q0 -111 48.5 -171t142.5 -60q92 0 141.5 56t49.5 173v366h103v-367q0 -72 -18.5 -130.5t-55.5 -100t-92 -64t-128 -22.5q-72 0 -126.5 22t-92 62.5t-56.5 98.5t-19 131v370h103z" />
    <glyph glyph-name="V" unicode="V" horiz-adv-x="747" 
d="M152 670l219 -567h12l214 567h112l-273 -672h-125l-273 672h114z" />
    <glyph glyph-name="W" unicode="W" horiz-adv-x="1015" 
d="M148 670l154 -554h10l148 512h94l152 -512h10l151 554h110l-203 -672h-129l-134 456h-10l-128 -456h-130l-205 672h110z" />
    <glyph glyph-name="X" unicode="X" horiz-adv-x="719" 
d="M181 670l177 -263h10l169 263h123l-224 -327l245 -343h-126l-193 286h-10l-188 -286h-126l245 350l-223 320h121z" />
    <glyph glyph-name="Y" unicode="Y" horiz-adv-x="712" 
d="M157 670l196 -351h10l193 351h118l-268 -456v-214h-100v214l-268 456h119z" />
    <glyph glyph-name="Z" unicode="Z" horiz-adv-x="663" 
d="M597 670v-76l-404 -504h412v-90h-547v74l410 506h-395v90h524z" />
    <glyph glyph-name="bracketleft" unicode="[" horiz-adv-x="303" 
d="M270 659v-78h-102v-621h102v-79h-197v778h197z" />
    <glyph glyph-name="backslash" unicode="\" horiz-adv-x="440" 
d="M422 -25l-80 -37l-333 740l81 37z" />
    <glyph glyph-name="bracketright" unicode="]" horiz-adv-x="303" 
d="M230 659v-778h-197v78h103v621h-103v79h197z" />
    <glyph glyph-name="asciicircum" unicode="^" horiz-adv-x="337" 
d="M180 671l135 -128v-10l-49 -50l-98 84l-97 -84l-49 50v10l135 128h23z" />
    <glyph glyph-name="underscore" unicode="_" horiz-adv-x="435" 
d="M425 -46v-82h-415v82h415z" />
    <glyph glyph-name="grave" unicode="`" horiz-adv-x="259" 
d="M172 621h-85l-82 139l82 48z" />
    <glyph glyph-name="a" unicode="a" horiz-adv-x="622" 
d="M78 463q51 32 102 45.5t108 13.5q119 0 174 -54.5t55 -150.5v-187q0 -32 11 -45.5t29 -13.5q11 0 21 4l9 -74q-21 -10 -51 -10q-38 0 -63.5 18.5t-33.5 67.5q-64 -89 -198 -89q-91 0 -143.5 43.5t-52.5 126.5q0 77 61 121t167 44q42 0 79.5 -7t69.5 -18v28q0 55 -32 83
t-100 28q-91 0 -173 -44zM423 222q-64 22 -146 22q-72 0 -102.5 -24.5t-30.5 -63.5q0 -42 29.5 -63.5t85.5 -21.5q34 0 63.5 9.5t52 26.5t35.5 40.5t13 52.5v22z" />
    <glyph glyph-name="b" unicode="b" horiz-adv-x="635" 
d="M171 713v-243q34 26 74 39t88 13q54 0 100.5 -16t80 -48.5t53 -81.5t19.5 -115q0 -64 -22.5 -114.5t-61.5 -86t-91.5 -54t-112.5 -18.5q-58 0 -113.5 9t-111.5 31v685h98zM171 93q30 -11 59.5 -16t64.5 -5q40 0 75 12t61.5 36t41.5 59.5t15 82.5q0 86 -44 131t-116 45
q-95 0 -157 -59v-286z" />
    <glyph glyph-name="c" unicode="c" horiz-adv-x="583" 
d="M476 381q-28 26 -66.5 41t-87.5 15q-36 0 -68.5 -12t-56.5 -35t-38 -56t-14 -75q0 -85 47 -135t130 -50q48 0 89 16.5t70 48.5l59 -61q-42 -47 -97.5 -68.5t-124.5 -21.5q-65 0 -115.5 20.5t-85 56.5t-52 84.5t-17.5 104.5q0 61 21.5 110.5t58 84.5t86 54t106.5 19
q68 0 120 -19.5t90 -57.5z" />
    <glyph glyph-name="d" unicode="d" horiz-adv-x="657" 
d="M584 713v-713h-77l-11 97q-30 -54 -80.5 -81.5t-114.5 -27.5q-58 0 -105 18t-80 52t-50.5 83.5t-17.5 112.5q0 62 21 111.5t57.5 84.5t85.5 53.5t106 18.5q51 0 92.5 -12.5t76.5 -37.5v241h97zM487 385q-71 54 -159 54q-85 0 -133.5 -48.5t-48.5 -136.5q0 -44 12.5 -77.5
t34 -57t50.5 -35.5t62 -12q67 0 113 36t69 103v174z" />
    <glyph glyph-name="e" unicode="e" horiz-adv-x="612" 
d="M146 222q8 -71 55 -110t125 -39q53 0 96.5 13.5t83.5 42.5l44 -69q-51 -39 -106 -55.5t-120 -16.5t-116 18.5t-86.5 53t-54.5 83.5t-19 111q0 58 20 107t56 85t87 56t113 20q54 0 98 -17t75.5 -48.5t49 -75.5t17.5 -97q0 -16 -2 -31.5t-5 -30.5h-411zM466 302
q-1 62 -37 99t-109 37t-116 -36.5t-54 -99.5h316z" />
    <glyph glyph-name="f" unicode="f" horiz-adv-x="415" 
d="M126 511v46q0 41 11.5 76.5t36 62t62.5 42t90 15.5q98 0 166 -52l-46 -69q-25 17 -54.5 26t-60.5 9q-57 0 -82.5 -28.5t-25.5 -79.5v-49h164v-85h-164v-425h-97v425h-83v81z" />
    <glyph glyph-name="g" unicode="g" horiz-adv-x="646" 
d="M591 463l-89 -20q19 -20 29.5 -47t10.5 -57q0 -37 -15 -70t-43 -58t-69.5 -39.5t-93.5 -14.5q-43 0 -76 9.5t-59 26.5q-19 -10 -27.5 -25.5t-8.5 -35.5q0 -32 21 -46t64 -14h161q48 0 83.5 -11.5t58 -31.5t33.5 -47.5t11 -60.5q0 -44 -21 -82t-59.5 -66.5t-92 -45
t-119.5 -16.5q-121 0 -179 49t-58 131q0 39 14.5 74.5t41.5 62.5q-48 36 -48 98q0 72 72 119q-14 19 -21 43t-7 51q0 37 14 70.5t42.5 58.5t70.5 39.5t99 14.5h97l155 14zM180 -6q-17 -17 -25 -40.5t-8 -49.5q0 -53 38 -81.5t110 -28.5q88 0 140.5 34t52.5 91q0 35 -22.5 53
t-75.5 18h-157zM320 441q-60 0 -90.5 -26t-30.5 -75q0 -46 31 -74.5t91 -28.5q55 0 90 26.5t35 76.5q0 65 -51 101h-75z" />
    <glyph glyph-name="h" unicode="h" 
d="M171 713v-294q27 50 72 76.5t115 26.5q97 0 153.5 -56t56.5 -165v-301h-97v290q0 75 -33.5 111.5t-95.5 36.5q-60 0 -105 -39t-66 -110v-289h-98v713h98z" />
    <glyph glyph-name="i" unicode="i" horiz-adv-x="245" 
d="M172 510v-510h-99v510h99zM123 744q27 0 47.5 -18t20.5 -49q0 -30 -20.5 -48t-47.5 -18q-28 0 -48 18t-20 48q0 31 20 49t48 18z" />
    <glyph glyph-name="j" unicode="j" horiz-adv-x="251" 
d="M178 510v-546q0 -45 -11.5 -82t-35 -64t-58 -42t-80.5 -15q-40 0 -73.5 8t-65.5 26l33 77q26 -14 49 -19t52 -5q42 0 67.5 28t25.5 88v546h97zM129 745q27 0 47.5 -18.5t20.5 -48.5q0 -31 -20.5 -49t-47.5 -18t-47.5 18t-20.5 49q0 30 20.5 48.5t47.5 18.5z" />
    <glyph glyph-name="k" unicode="k" horiz-adv-x="597" 
d="M171 713v-405l95 11l155 191h124l-195 -229l222 -281h-123l-173 228h-105v-228h-98v713h98z" />
    <glyph glyph-name="l" unicode="l" horiz-adv-x="243" 
d="M170 713v-713h-97v713h97z" />
    <glyph glyph-name="m" unicode="m" horiz-adv-x="958" 
d="M152 510l10 -99q53 111 176 111q56 0 99.5 -23t64.5 -68q29 44 77 67.5t105 23.5q100 0 150.5 -56.5t50.5 -158.5v-307h-99v300q0 67 -29 102.5t-85 35.5q-90 0 -139 -90q2 -10 3 -21t1 -22v-305h-98v300q0 67 -28.5 102.5t-88.5 35.5q-51 0 -90.5 -38t-59.5 -107v-293
h-99v510h79z" />
    <glyph glyph-name="n" unicode="n" 
d="M150 510l10 -106q26 56 75.5 87t118.5 31q98 0 156 -56.5t58 -164.5v-301h-97v290q0 75 -33.5 111.5t-95.5 36.5t-106.5 -40.5t-65.5 -111.5v-286h-97v510h77z" />
    <glyph glyph-name="o" unicode="o" horiz-adv-x="650" 
d="M325 522q61 0 112 -19.5t88 -55t57 -84.5t20 -108q0 -57 -21 -106t-57.5 -85t-87.5 -56t-111 -20q-62 0 -113 19.5t-87.5 55t-56.5 84.5t-20 108q0 57 20.5 106t57 85t87.5 56t112 20zM325 439q-41 0 -74.5 -13.5t-57 -38t-36 -58.5t-12.5 -74q0 -41 13 -75t36.5 -58
t56.5 -37.5t74 -13.5q42 0 75 13.5t56.5 37.5t36 58t12.5 75q0 40 -13 73.5t-36.5 58t-56.5 38.5t-74 14z" />
    <glyph glyph-name="p" unicode="p" horiz-adv-x="650" 
d="M150 510l10 -93q35 57 83.5 81t114.5 24q54 0 99 -18.5t77 -52t49.5 -82t17.5 -108.5q0 -67 -22.5 -118t-59.5 -85.5t-85 -52t-100 -17.5q-49 0 -88.5 11t-76.5 37v-233h-96v707h77zM169 129q67 -56 157 -56q39 0 71.5 13t55.5 37.5t36 60t13 80.5q0 38 -10.5 70t-31 55
t-50 36t-66.5 13q-65 0 -109 -34.5t-66 -92.5v-182z" />
    <glyph glyph-name="q" unicode="q" horiz-adv-x="632" 
d="M558 -197h-97v252q-30 -32 -70 -49.5t-104 -17.5q-48 0 -91 15.5t-76 48t-52.5 82.5t-19.5 119q0 62 23 112t63.5 85t95.5 53.5t119 18.5q55 0 109.5 -11t99.5 -31v-677zM461 416q-26 13 -54 18t-59 5q-45 0 -82 -13t-63.5 -37t-41 -58.5t-14.5 -76.5q0 -91 41.5 -135.5
t112.5 -44.5q54 0 93.5 21.5t66.5 70.5v250z" />
    <glyph glyph-name="r" unicode="r" horiz-adv-x="541" 
d="M151 510l9 -106q26 58 76 88t119 30q48 0 88 -14.5t69 -39.5l-54 -75q-23 20 -53 30.5t-68 10.5q-60 0 -103 -39.5t-64 -106.5v-288h-97v510h78z" />
    <glyph glyph-name="s" unicode="s" horiz-adv-x="569" 
d="M453 393q-78 45 -169 45q-60 0 -91.5 -18.5t-31.5 -50.5q0 -26 16.5 -40.5t56.5 -19.5l104 -12q83 -11 130.5 -45.5t47.5 -104.5q0 -75 -63.5 -117t-178.5 -42q-66 0 -119.5 13.5t-106.5 48.5l42 75q45 -29 91 -42t97 -13q72 0 107.5 19t35.5 54q0 30 -19 46.5t-69 21.5
l-120 14q-72 8 -110 44.5t-38 99.5q0 68 56 110.5t165 42.5q58 0 111 -13t97 -41z" />
    <glyph glyph-name="t" unicode="t" horiz-adv-x="462" 
d="M116 510l17 140l88 -4l-5 -136h188v-85h-185v-254q0 -50 22 -72.5t67 -22.5q28 0 52.5 8t44.5 22l36 -73q-32 -23 -69 -34t-79 -11q-82 0 -127 45t-45 140v252h-84v79z" />
    <glyph glyph-name="u" unicode="u" horiz-adv-x="634" 
d="M170 510v-283q0 -80 32 -117t90 -37q61 0 105.5 38.5t66.5 108.5v290h97v-510h-78l-9 103q-26 -56 -74.5 -85.5t-115.5 -29.5q-99 0 -155 57t-56 169v296h97z" />
    <glyph glyph-name="v" unicode="v" horiz-adv-x="631" 
d="M153 510l160 -414h10l158 414h112l-225 -513h-105l-225 513h115z" />
    <glyph glyph-name="w" unicode="w" horiz-adv-x="881" 
d="M147 510l120 -406h9l120 388h92l123 -388h9l121 406h101l-173 -513h-117l-107 352h-10l-105 -352h-116l-176 513h109z" />
    <glyph glyph-name="x" unicode="x" horiz-adv-x="627" 
d="M178 510l132 -195h10l130 195h117l-181 -245l202 -265h-123l-152 216h-10l-143 -216h-122l200 269l-183 241h123z" />
    <glyph glyph-name="y" unicode="y" horiz-adv-x="638" 
d="M152 510l184 -408h9l147 408h108l-233 -566q-29 -72 -68 -105.5t-99 -33.5q-56 0 -94 26l27 75q16 -8 31 -11t29 -3q29 0 49.5 15t34.5 50l13 36l-252 517h114z" />
    <glyph glyph-name="z" unicode="z" horiz-adv-x="570" 
d="M509 510v-77l-323 -349h326v-84h-454v74l329 353h-311v83h433z" />
    <glyph glyph-name="braceleft" unicode="{" horiz-adv-x="307" 
d="M271 580l-52 -2q-38 -3 -38 -47v-12l9 -146v-12q0 -32 -12.5 -56t-34.5 -35q22 -11 34.5 -34t12.5 -56v-11l-9 -149v-13q0 -23 9.5 -32.5t28.5 -10.5l52 -2v-80h-62q-59 0 -90.5 32t-31.5 90v13l10 152v12q0 23 -11 35.5t-30 12.5h-26v84h26q19 0 30 12t11 37v12l-10 151
v12q0 58 33 90t91 32h60v-79z" />
    <glyph glyph-name="bar" unicode="|" horiz-adv-x="199" 
d="M146 720v-770h-93v770h93z" />
    <glyph glyph-name="braceright" unicode="}" horiz-adv-x="307" 
d="M99 659q58 0 89.5 -31.5t31.5 -89.5v-13l-10 -153v-11q0 -24 11 -36t30 -12h26v-84h-26q-19 0 -30 -12t-11 -38v-11l10 -151v-13q0 -58 -33 -90t-91 -32h-59v80l51 2q39 1 39 46v12l-9 147v11q0 32 12.5 56t33.5 35q-21 11 -33.5 34t-12.5 56v12l9 149v12q0 23 -10 32.5
t-29 11.5l-51 2v79h62z" />
    <glyph glyph-name="asciitilde" unicode="~" horiz-adv-x="480" 
d="M48 341q20 37 51 57t73 20q24 0 41.5 -8t32.5 -17l29.5 -17t33.5 -8q25 0 41.5 9.5t29.5 27.5l52 -51q-17 -36 -47.5 -55t-70.5 -19q-26 0 -44.5 8t-34.5 17.5l-30.5 17.5t-33.5 8q-27 0 -46 -10t-30 -27z" />
    <glyph glyph-name="exclamdown" unicode="&#xa1;" horiz-adv-x="239" 
d="M71.0098 -217.955v531.967h96.9941v-531.967h-96.9941zM120.007 386.008q-27.998 0 -47.4971 17.999q-19.498 17.999 -19.498 46.9971t19.498 46.9971q19.499 17.999 47.4971 17.999q25.999 0 45.998 -17.999q19.998 -17.999 19.998 -46.9971t-19.998 -46.9971
q-19.999 -17.999 -45.998 -17.999z" />
    <glyph glyph-name="currency" unicode="&#xa4;" horiz-adv-x="475" 
d="M157 495q35 19 82 19q46 0 80 -19l54 51l63 -62l-46 -51q12 -18 18 -41t6 -47q0 -23 -6.5 -43.5t-17.5 -40.5l45 -49l-62 -60l-52 46q-17 -8 -38.5 -13.5t-43.5 -5.5q-24 0 -45.5 5.5t-38.5 14.5l-54 -49l-62 62l47 51q-23 38 -23 82q0 49 25 86l-49 53l62 63zM239 435
q-40 0 -65 -23t-25 -65q0 -39 25 -64t65 -25t64.5 25t24.5 64q0 42 -24.5 65t-64.5 23z" />
    <glyph glyph-name="yen" unicode="&#xa5;" horiz-adv-x="697" 
d="M247 331l-209 321h114l197 -317h10l189 317h110l-202 -321l102 -3v-77h-418v77zM533 192v-74l-135 -5v-113h-97v113l-135 5v74h367z" />
    <glyph glyph-name="brokenbar" unicode="&#xa6;" horiz-adv-x="199" 
d="M146 720v-356h-93v356h93zM146 305v-355h-93v355h93z" />
    <glyph glyph-name="section" unicode="&#xa7;" horiz-adv-x="564" 
d="M429 578q-68 45 -145 45q-48 0 -71.5 -16.5t-23.5 -45.5q0 -27 19 -43t51 -24l105 -25q69 -16 108 -54t39 -104q0 -42 -23.5 -76.5t-63.5 -54.5q23 -15 34 -38.5t11 -52.5q0 -66 -53.5 -106t-147.5 -40q-58 0 -107 12.5t-94 39.5l38 76q42 -24 82 -34.5t83 -10.5
q54 0 79 18t25 47q0 51 -62 63l-116 26q-71 15 -107 56t-36 104q0 44 22 77t64 53q-20 16 -33 40.5t-13 53.5q0 33 14.5 59t40 44t60 28t74.5 10q58 0 103.5 -13.5t86.5 -42.5zM358 230q29 8 44.5 29t15.5 50q0 62 -75 79l-139 32q-28 -8 -43 -28.5t-15 -48.5q0 -65 73 -82z
" />
    <glyph glyph-name="dieresis" unicode="&#xa8;" horiz-adv-x="433" 
d="M103 735q27 0 45.5 -17.5t18.5 -44.5t-18.5 -44.5t-45.5 -17.5q-26 0 -44.5 17.5t-18.5 44.5t18.5 44.5t44.5 17.5zM329 735q26 0 44.5 -17.5t18.5 -44.5t-18.5 -44.5t-44.5 -17.5t-44.5 17.5t-18.5 44.5t18.5 44.5t44.5 17.5z" />
    <glyph glyph-name="copyright" unicode="&#xa9;" horiz-adv-x="887" 
d="M554 423q-24 21 -46.5 30t-55.5 9q-27 0 -49 -10t-37.5 -26.5t-24 -38.5t-8.5 -47q0 -60 34 -91t84 -31q34 0 62 10.5t51 29.5l43 -58q-34 -31 -73 -45t-89 -14q-43 0 -80 13.5t-64.5 39t-43 62.5t-15.5 84q0 42 16 78.5t44 63t65.5 41.5t81.5 15q46 0 84 -13t70 -43z
M443 715q79 0 149 -26.5t122.5 -76t83 -119t30.5 -154.5q0 -83 -31 -152t-83.5 -118.5t-122.5 -77.5t-148 -28q-80 0 -150.5 26.5t-122.5 76t-82 118.5t-30 155q0 82 32 151.5t85 119t123 77.5t145 28zM443 632q-58 0 -111.5 -20.5t-94 -59t-65 -92.5t-24.5 -121
q0 -69 22.5 -123t62.5 -92t93.5 -58t116.5 -20q61 0 114.5 20.5t94 59t64 92.5t23.5 121q0 70 -22.5 124.5t-62.5 92t-94 57t-117 19.5z" />
    <glyph glyph-name="guillemotleft" unicode="&#xab;" horiz-adv-x="478" 
d="M251 388l-105 -125l105 -129l-61 -50l-147 164v25l147 165zM435 393l-103 -131l102 -134l-61 -48l-148 168v26l149 167z" />
    <glyph glyph-name="logicalnot" unicode="&#xac;" horiz-adv-x="453" 
d="M405 438v-217h-83l-10 131h-254v86h347z" />
    <glyph glyph-name="uni00AD" unicode="&#xad;" horiz-adv-x="428" 
d="M364 324v-84h-301v84h301z" />
    <glyph glyph-name="registered" unicode="&#xae;" horiz-adv-x="607" 
d="M303 750q58 0 106 -19t82.5 -53t53 -80t18.5 -100t-19 -100.5t-53.5 -80t-82.5 -52.5t-105 -19q-58 0 -105.5 19t-82 52.5t-53.5 80t-19 100.5t19 100t53.5 80t82 53t105.5 19zM303 681q-43 0 -77 -14t-58 -38.5t-36.5 -58t-12.5 -72.5q0 -38 12.5 -71.5t36.5 -58.5
t58 -39t77 -14t77.5 14t58.5 39t36.5 58.5t12.5 71.5t-12.5 71.5t-36.5 58t-58.5 39t-77.5 14.5zM321 615q45 0 70.5 -25.5t25.5 -60.5q0 -26 -14 -45t-35 -27l43 -71h-65l-32 56h-47v-56h-56v229h110zM267 493h48q21 0 31.5 10t10.5 26q0 35 -42 35h-48v-71z" />
    <glyph glyph-name="macron" unicode="&#xaf;" horiz-adv-x="422" 
d="M374 716v-82h-327v82h327z" />
    <glyph glyph-name="degree" unicode="&#xb0;" horiz-adv-x="413" 
d="M207 684q35 0 65 -12t51.5 -33t34 -50t12.5 -63t-12.5 -63t-34 -50.5t-51.5 -33.5t-65 -12t-65 12t-52 33t-34.5 50t-12.5 64q0 34 12.5 63t34.5 50t52 33t65 12zM207 608q-38 0 -60 -23t-22 -59q0 -37 22.5 -60t59.5 -23t59 23t22 60q0 36 -22.5 59t-58.5 23z" />
    <glyph glyph-name="plusminus" unicode="&#xb1;" horiz-adv-x="523" 
d="M307 645v-158h153v-83h-153v-144h-91v144h-153v83h153v158h91zM445 199v-84h-367v84h367z" />
    <glyph glyph-name="acute" unicode="&#xb4;" horiz-adv-x="259" 
d="M217 760l-82 -139h-85l85 187z" />
    <glyph glyph-name="paragraph" unicode="&#xb6;" horiz-adv-x="546" 
d="M502 456l-62 -20v-309q0 -72 -25.5 -130.5t-85.5 -103.5l-161 -119l-42 54l96 78v327q-12 -7 -27 -10t-30 -3q-26 0 -49 8.5t-40 26t-27.5 43t-10.5 58.5q0 35 13 63.5t36 48.5t54.5 31t68.5 11h163q29 0 60 3t57 10zM301 -33l17 13q20 16 31 48.5t11 71.5v336h-59v-469z
M200 436q-33 0 -54.5 -19.5t-21.5 -55.5q0 -34 17 -50t40 -16q24 0 41 11v130h-22z" />
    <glyph glyph-name="periodcentered" unicode="&#xb7;" horiz-adv-x="244" 
d="M122 358q28 0 48.5 -18.5t20.5 -49.5q0 -30 -20.5 -48.5t-48.5 -18.5t-48.5 18.5t-20.5 48.5q0 31 20.5 49.5t48.5 18.5z" />
    <glyph glyph-name="cedilla" unicode="&#xb8;" horiz-adv-x="257" 
d="M159 18l-7 -74q29 -8 47 -32.5t18 -60.5q0 -54 -37 -95t-119 -63l-22 62q51 17 72.5 38.5t21.5 47.5q0 27 -18 40t-57 14v19l21 43v61h80z" />
    <glyph glyph-name="guillemotright" unicode="&#xbb;" horiz-adv-x="477" 
d="M435 274v-26l-147 -165l-61 51l105 125l-105 129l61 50zM253 274v-26l-149 -168l-60 49l103 130l-103 134l61 48z" />
    <glyph glyph-name="questiondown" unicode="&#xbf;" horiz-adv-x="524" 
d="M550.003 -135.961q-53.9961 -44.9971 -114.493 -64.9961q-60.4961 -19.998 -131.491 -19.998q-55.9971 0 -102.994 13.999t-80.4951 41.4971t-52.4971 67.4961q-18.998 39.998 -18.998 90.9941q0 78.9951 46.9971 134.492q46.9971 55.4961 133.991 76.4951
q36.998 9 52.4971 27.998q15.499 18.999 15.499 43.998q0 16.999 -5 33.9971l85.9951 10q10.999 -24.999 10.999 -58.9961q0 -48.9971 -30.998 -84.4951t-91.9941 -51.4971q-65.9961 -17.999 -92.9941 -50.9971q-26.999 -32.998 -26.999 -80.9951
q0 -59.9961 42.498 -93.9941q42.4971 -33.998 114.493 -33.998q57.9961 0 105.993 17.999t89.9941 51.9971zM331.017 386.008q-26.998 0 -46.9971 17.999t-19.999 46.9971t19.999 46.9971t46.9971 17.999t46.4971 -17.999t19.499 -46.9971t-19.499 -46.9971
t-46.4971 -17.999z" />
    <glyph glyph-name="multiply" unicode="&#xd7;" horiz-adv-x="511" 
d="M256 394l113 114l58 -59l-112 -113l112 -113l-59 -59l-112 113l-114 -113l-59 59l113 113l-113 113l59 60z" />
    <glyph glyph-name="Oslash" unicode="&#xd8;" horiz-adv-x="811" 
d="M710 670l-57 -80q50 -48 77 -112.5t27 -142.5q0 -72 -25.5 -135.5t-72 -111t-111 -75t-143.5 -27.5q-45 0 -85 9t-75 26l-62 -85l-76 55l59 82q-54 48 -83.5 115t-29.5 147q0 73 26 136.5t72.5 110.5t111 74.5t142.5 27.5q48 0 91 -10t80 -29l57 80zM522 570
q-53 25 -117 25q-59 0 -105.5 -20t-78.5 -55t-49 -82.5t-17 -102.5q0 -113 66 -184zM299 97q23 -11 49.5 -16.5t56.5 -5.5q59 0 105.5 19.5t79 54.5t49.5 82.5t17 103.5q0 107 -60 176z" />
    <glyph glyph-name="Thorn" unicode="&#xde;" horiz-adv-x="644" 
d="M186 684v-101h161q56 0 102.5 -16.5t80.5 -47t52.5 -73t18.5 -94.5q0 -55 -20.5 -98.5t-56.5 -74t-84.5 -46.5t-103.5 -16h-150v-117h-103v684h103zM186 205h149q77 0 120.5 38.5t43.5 107.5q0 68 -40 105.5t-118 37.5h-155v-289z" />
    <glyph glyph-name="germandbls" unicode="&#xdf;" horiz-adv-x="681" 
d="M73 556q0 45 14.5 82.5t40 63.5t61.5 40.5t78 14.5q45 0 80 -12.5t58.5 -34t35.5 -51t12 -62.5q0 -44 -17.5 -74t-45.5 -49q-50 -32 -50 -76q0 -25 16.5 -39t56.5 -22l52 -11q86 -17 129 -58t43 -110q0 -37 -14.5 -68t-42 -53.5t-69 -35.5t-95.5 -13q-49 0 -94.5 12
t-88.5 41l40 75q34 -23 71 -34t77 -11q56 0 88.5 22.5t32.5 61.5q0 36 -22.5 56t-67.5 28l-52 9q-75 12 -113.5 49.5t-38.5 97.5q0 38 17.5 66t42.5 48q24 20 36.5 39.5t12.5 46.5q0 31 -21 54t-67 23q-48 0 -74 -30.5t-26 -85.5v-556h-96v556z" />
    <glyph glyph-name="aacute" unicode="&#xe1;" horiz-adv-x="623" 
d="M79 463q51 32 102 45.5t108 13.5q119 0 174 -54.5t55 -150.5v-187q0 -32 11 -45.5t29 -13.5q11 0 21 4l9 -74q-21 -10 -51 -10q-38 0 -63.5 18.5t-33.5 67.5q-64 -89 -198 -89q-91 0 -143.5 43.5t-52.5 126.5q0 77 61 121t167 44q42 0 79.5 -7t69.5 -18v28q0 55 -32 83
t-100 28q-91 0 -173 -44zM424 222q-64 22 -146 22q-72 0 -102.5 -24.5t-30.5 -63.5q0 -42 29.5 -63.5t85.5 -21.5q34 0 63.5 9.5t52 26.5t35.5 40.5t13 52.5v22zM429 760l-82 -139h-85l85 187z" />
    <glyph glyph-name="ae" unicode="&#xe6;" horiz-adv-x="957" 
d="M508 222q8 -71 52 -110t122 -39q51 0 90.5 13t82.5 42l44 -69q-49 -38 -103.5 -54.5t-119.5 -16.5q-75 0 -128 25.5t-86 73.5q-38 -54 -96.5 -76.5t-124.5 -22.5q-91 0 -143.5 43.5t-52.5 126.5q0 77 61 121t167 44q42 0 78 -7t68 -18v28q0 55 -30.5 83t-98.5 28
q-91 0 -173 -44l-39 71q51 31 102 44.5t108 13.5q73 0 120.5 -24t72.5 -69q29 44 79 68.5t118 24.5q52 0 95 -17.5t73 -49t46.5 -75t16.5 -96.5q0 -16 -2 -31.5t-5 -30.5h-394zM420 222q-60 22 -143 22q-72 0 -102.5 -24.5t-30.5 -63.5q0 -42 29.5 -63.5t85.5 -21.5
q34 0 63 9t51 25.5t34.5 39.5t12.5 52v25zM811 302q-1 62 -34.5 99t-102.5 37q-70 0 -110.5 -36.5t-51.5 -99.5h299z" />
    <glyph glyph-name="eth" unicode="&#xf0;" horiz-adv-x="632" 
d="M272 716l50 77l71 -45l-47 -75l39 -24q51 -32 89 -67.5t62.5 -79t36.5 -97.5t12 -123t-21 -123.5t-57.5 -92.5t-86.5 -58t-107 -20q-63 0 -112.5 18t-83.5 51t-51.5 79t-17.5 103q0 53 18 98t51 78t79 51.5t101 18.5q61 0 103 -19t71 -48h10q-14 48 -49.5 87t-92.5 72
l-41 24l-44 -70l-73 44l43 67l-85 50l45 76zM485 270q-17 66 -64 99.5t-110 33.5q-74 0 -118.5 -43t-44.5 -122q0 -78 43 -123t121 -45q40 0 72 15.5t54.5 42.5t34.5 63.5t12 78.5z" />
    <glyph glyph-name="divide" unicode="&#xf7;" horiz-adv-x="483" 
d="M420 384v-84h-357v84h357zM242 216q26 0 44.5 -17t18.5 -45q0 -29 -18.5 -45.5t-44.5 -16.5t-44.5 16.5t-18.5 45.5q0 28 18.5 45t44.5 17zM242 592q26 0 44.5 -17t18.5 -45t-18.5 -45t-44.5 -17t-44.5 17t-18.5 45t18.5 45t44.5 17z" />
    <glyph glyph-name="oslash" unicode="&#xf8;" horiz-adv-x="650" 
d="M550 521l-40 -62q44 -35 68 -87.5t24 -116.5q0 -57 -21 -106t-57.5 -85t-87.5 -56t-111 -20q-61 0 -107 18l-48 -74l-77 48l46 70q-44 36 -67.5 88t-23.5 117q0 57 20.5 106t57 85t87.5 56t112 20q58 0 106 -18l42 65zM266 80q25 -9 59 -9q42 0 75 13.5t56.5 37.5t36 58
t12.5 75q0 38 -12 70t-34 55zM382 429q-13 5 -27.5 7.5t-29.5 2.5q-41 0 -74.5 -13.5t-57 -38t-36 -58.5t-12.5 -74q0 -78 45 -125z" />
    <glyph glyph-name="thorn" unicode="&#xfe;" horiz-adv-x="645" 
d="M169 703v-267q62 86 185 86q54 0 99 -18.5t77 -52t49.5 -82t17.5 -108.5q0 -67 -22 -118t-59 -85.5t-85.5 -52t-100.5 -17.5q-49 0 -86.5 11t-74.5 37v-233h-96v900h96zM169 129q67 -56 155 -56q38 0 70 13t55 37.5t36 60t13 80.5q0 38 -10.5 70t-31 55t-50 36t-66.5 13
q-63 0 -106 -32t-65 -86v-191z" />
    <glyph glyph-name="oe" unicode="&#x153;" horiz-adv-x="1015" 
d="M564 222q8 -72 52.5 -110.5t119.5 -38.5q51 0 91.5 13t83.5 42l43 -69q-52 -39 -103 -55t-114 -16q-78 0 -130.5 25t-85.5 71q-35 -45 -87 -70.5t-117 -25.5q-62 0 -111.5 19.5t-84.5 55t-54 84.5t-19 108q0 57 19 106t54.5 85t85 56t110.5 20q69 0 124 -27.5t87 -75.5
q29 48 81.5 75.5t123.5 27.5q53 0 96.5 -17.5t74 -49t47 -75t16.5 -96.5q0 -16 -2 -32t-5 -30h-396zM317 439q-41 0 -73 -13.5t-54 -38t-33.5 -58.5t-11.5 -74q0 -82 44.5 -133t127.5 -51q81 0 125 51t44 133q0 40 -11 73.5t-32.5 58t-53 38.5t-72.5 14zM869 302
q-2 62 -35.5 99.5t-104.5 37.5q-72 0 -111 -37t-50 -100h301z" />
    <glyph glyph-name="circumflex" unicode="&#x2c6;" horiz-adv-x="323" 
d="M159 677l-94 -84l-47 49v10l133 127h21l133 -127v-10l-46 -49z" />
    <glyph glyph-name="caron" unicode="&#x2c7;" horiz-adv-x="323" 
d="M163 704l96 84l46 -49v-10l-132 -127h-21l-134 127v10l46 49z" />
    <glyph glyph-name="breve" unicode="&#x2d8;" horiz-adv-x="407" 
d="M131 748q2 -34 21.5 -52.5t50.5 -18.5t50.5 18.5t21.5 52.5h79q-2 -35 -14 -62t-32 -45.5t-47 -28.5t-58 -10q-32 0 -59 9.5t-47 28t-32 46t-12 62.5h78z" />
    <glyph glyph-name="dotaccent" unicode="&#x2d9;" horiz-adv-x="227" 
d="M113 744q28 0 48 -18t20 -49q0 -30 -20 -48t-48 -18q-27 0 -47 18t-20 48q0 31 20 49t47 18z" />
    <glyph glyph-name="ring" unicode="&#x2da;" horiz-adv-x="292" 
d="M146 816q27 0 49 -9.5t37 -25t23.5 -35.5t8.5 -42q0 -23 -8.5 -43t-23.5 -36t-37 -25t-49 -9q-28 0 -50 9t-37 25t-23 36t-8 43q0 22 8.5 42t23.5 35.5t37 25t49 9.5zM146 755q-26 0 -39 -15t-13 -36q0 -23 13.5 -37.5t38.5 -14.5t39 14.5t14 37.5q0 22 -14.5 36.5
t-38.5 14.5z" />
    <glyph glyph-name="ogonek" unicode="&#x2db;" horiz-adv-x="252" 
d="M192 -200q-35 1 -61.5 12t-44.5 27.5t-27.5 38t-9.5 45.5q0 32 17 59t46 38l59 -19q-22 -11 -31.5 -27.5t-9.5 -35.5q0 -28 18.5 -47t56.5 -24z" />
    <glyph glyph-name="tilde" unicode="&#x2dc;" horiz-adv-x="442" 
d="M34 662q21 35 51.5 54.5t71.5 19.5q24 0 40.5 -7.5t30.5 -16.5t28.5 -16.5t34.5 -7.5q23 0 40.5 9.5t29.5 25.5l47 -48q-17 -32 -44.5 -51t-68.5 -19q-24 0 -42.5 8t-34 17t-31 17t-34.5 8q-26 0 -43.5 -9.5t-31.5 -27.5z" />
    <glyph glyph-name="hungarumlaut" unicode="&#x2dd;" horiz-adv-x="314" 
d="M198 775l-74 -154h-79l71 193zM351 745l-80 -124h-82l82 168z" />
    <glyph glyph-name="afii10023" unicode="&#x401;" 
d="M565 670v-89h-382v-189h336v-88h-336v-214h400v-90h-500v670h482zM205 902q28 0 48.5 -19t20.5 -50q0 -28 -20.5 -46.5t-48.5 -18.5q-27 0 -47 18.5t-20 46.5q0 31 20 50t47 19zM460 902q28 0 48.5 -19t20.5 -50q0 -28 -20.5 -46.5t-48.5 -18.5q-27 0 -47 18.5t-20 46.5
q0 31 20 50t47 19z" />
    <glyph glyph-name="afii10051" unicode="&#x402;" horiz-adv-x="869" 
d="M641 670v-90h-247v-198q34 42 81 64.5t113 22.5q49 0 89.5 -15.5t69 -44.5t44 -70.5t15.5 -92.5v-198q0 -54 -16 -94.5t-44 -67.5t-65 -40.5t-80 -13.5q-37 0 -69 8t-64 27l34 76q24 -13 47.5 -18.5t48.5 -5.5q53 0 81.5 32t28.5 96v192q0 72 -35.5 108t-101.5 36
q-58 0 -105 -30.5t-72 -87.5v-265h-102v580h-244v90h593z" />
    <glyph glyph-name="afii10052" unicode="&#x403;" horiz-adv-x="609" 
d="M571 670v-90h-386v-580h-102v670h488zM470 931l-84 -159h-90l88 202z" />
    <glyph glyph-name="afii10053" unicode="&#x404;" horiz-adv-x="727" 
d="M467 297h-309q5 -52 26 -93t54.5 -69.5t78 -43.5t96.5 -15q63 0 116 21.5t98 63.5l57 -67q-108 -108 -278 -108q-79 0 -144 24t-111.5 69t-72 109t-25.5 145q0 73 25 137.5t72.5 111.5t116 74.5t154.5 27.5q69 0 134.5 -22.5t114.5 -66.5l-54 -72q-41 35 -92 53t-110 18
q-52 0 -95.5 -14.5t-76.5 -41.5t-54 -65.5t-28 -85.5h307v-90z" />
    <glyph glyph-name="afii10054" unicode="&#x405;" horiz-adv-x="653" 
d="M525 532q-41 30 -92 46.5t-106 16.5q-81 0 -117 -27t-36 -72t27.5 -67.5t88.5 -30.5l100 -14q102 -15 155.5 -63t53.5 -130q0 -45 -18 -82.5t-53.5 -64.5t-88.5 -42.5t-123 -15.5q-78 0 -142 17.5t-122 60.5l48 81q55 -38 109.5 -54t114.5 -16q87 0 130.5 31t43.5 82
q0 42 -29 68.5t-96 35.5l-105 15q-95 13 -144.5 58t-49.5 127q0 47 18.5 83t51.5 60t79.5 36.5t102.5 12.5q69 0 135.5 -19t115.5 -59z" />
    <glyph glyph-name="afii10055" unicode="&#x406;" horiz-adv-x="269" 
d="M186 670v-670h-103v670h103z" />
    <glyph glyph-name="afii10056" unicode="&#x407;" horiz-adv-x="269" 
d="M186 670v-670h-103v670h103zM33 902q27 0 47 -18.5t20 -48.5q0 -28 -20 -45.5t-47 -17.5q-26 0 -46 17.5t-20 45.5q0 30 20 48.5t46 18.5zM238 902q27 0 47 -18.5t20 -48.5q0 -28 -20 -45.5t-47 -17.5q-26 0 -46 17.5t-20 45.5q0 30 20 48.5t46 18.5z" />
    <glyph glyph-name="afii10057" unicode="&#x408;" horiz-adv-x="540" 
d="M457 670v-427q0 -123 -57.5 -190t-171.5 -67q-54 0 -99.5 12.5t-90.5 46.5l46 78q37 -26 71.5 -36.5t72.5 -10.5q54 0 90.5 37t36.5 118v439h102z" />
    <glyph glyph-name="afii10058" unicode="&#x409;" horiz-adv-x="1131" 
d="M676 670v-224h156q55 0 101.5 -15t81 -43.5t54 -70t19.5 -95.5q0 -51 -19 -92.5t-52.5 -70t-80 -44t-100.5 -15.5h-262v582h-261q0 -89 -2 -170t-10 -149t-23 -121.5t-41 -88.5q-24 -32 -58 -48.5t-79 -16.5q-23 0 -42.5 3t-39.5 11l22 86q12 -4 23.5 -6t23.5 -2
q23 0 41 9.5t33 33.5q32 53 41 163t9 278v106h465zM676 88h145q83 0 124 34.5t41 100.5q0 69 -42.5 102t-123.5 33h-144v-270z" />
    <glyph glyph-name="afii10059" unicode="&#x40a;" horiz-adv-x="1090" 
d="M186 670v-282h347v282h102v-224h156q55 0 101.5 -15t80.5 -43.5t53.5 -70t19.5 -95.5q0 -51 -19 -92.5t-52.5 -70t-79.5 -44t-100 -15.5h-262v297h-347v-297h-103v670h103zM635 88h145q83 0 124 34.5t41 100.5q0 69 -42.5 102t-123.5 33h-144v-270z" />
    <glyph glyph-name="afii10060" unicode="&#x40b;" horiz-adv-x="869" 
d="M641 670v-90h-247v-198q34 42 81 64.5t113 22.5q49 0 89.5 -15.5t69 -44.5t44 -70.5t15.5 -92.5v-246h-98v239q0 72 -35.5 108t-101.5 36q-58 0 -105 -30.5t-72 -87.5v-265h-102v580h-244v90h593z" />
    <glyph glyph-name="afii10061" unicode="&#x40c;" horiz-adv-x="703" 
d="M183 670v-275l104 8l218 267h126l-261 -310l286 -360h-130l-237 312h-106v-312h-100v670h100zM474 931l-84 -159h-90l88 202z" />
    <glyph glyph-name="afii10145" unicode="&#x40f;" horiz-adv-x="724" 
d="M186 670v-578h352v578h102v-670h-229l-7 -145h-84l-8 145h-229v670h103z" />
    <glyph glyph-name="afii10017" unicode="&#x410;" horiz-adv-x="762" 
d="M440 671l281 -671h-112l-60 152h-339l-59 -152h-109l279 671h119zM244 240h271l-129 328h-12z" />
    <glyph glyph-name="afii10018" unicode="&#x411;" horiz-adv-x="673" 
d="M562 670v-90h-378v-159h185q57 0 104 -13.5t81 -40.5t52.5 -66.5t18.5 -90.5t-19 -90t-53 -65.5t-81 -40.5t-103 -14h-286v670h479zM184 89h185q80 0 117 34.5t37 86.5q0 57 -36.5 90t-113.5 33h-189v-244z" />
    <glyph glyph-name="afii10019" unicode="&#x412;" horiz-adv-x="677" 
d="M361 670q55 0 97.5 -13t71 -36.5t43 -56t14.5 -70.5q0 -42 -19 -78t-54 -53v-9q52 -15 83.5 -59t31.5 -101q0 -40 -14.5 -75t-44 -61.5t-74.5 -42t-106 -15.5h-307v670h278zM185 86h205q69 0 104 28.5t35 82.5q0 52 -35.5 81t-104.5 29h-204v-221zM185 392h192
q57 0 83.5 26.5t26.5 71.5q0 94 -129 94h-173v-192z" />
    <glyph glyph-name="afii10020" unicode="&#x413;" horiz-adv-x="609" 
d="M571 670v-90h-386v-580h-102v670h488z" />
    <glyph glyph-name="afii10021" unicode="&#x414;" horiz-adv-x="836" 
d="M690 670v-581h98v-45l-10 -189h-85l-7 145h-536l-9 -145h-86l-7 188v45h27q24 0 51 23.5t44 70.5q13 38 23 86t16.5 102t9.5 111.5t3 116.5v72h468zM321 582q-1 -178 -24.5 -307t-67.5 -186h360v493h-268z" />
    <glyph glyph-name="afii10022" unicode="&#x415;" 
d="M565 670v-89h-382v-189h336v-88h-336v-214h400v-90h-500v670h482z" />
    <glyph glyph-name="afii10024" unicode="&#x416;" horiz-adv-x="1042" 
d="M184 670l180 -266l108 -6v272h98v-272l108 6l180 266h120l-219 -306l250 -364h-119l-207 314h-113v-314h-98v314h-113l-206 -314h-120l250 364l-219 306h120z" />
    <glyph glyph-name="afii10025" unicode="&#x417;" horiz-adv-x="653" 
d="M362 390q50 0 79 27t29 69q0 51 -35 80.5t-114 29.5q-51 0 -95 -16.5t-88 -52.5l-55 72q103 85 243 85q59 0 105 -14.5t77 -39.5t47 -58.5t16 -71.5q0 -46 -19 -83t-56 -54v-10q51 -17 80 -57.5t29 -98.5q0 -42 -17.5 -80.5t-53 -67.5t-88 -46t-121.5 -17
q-86 0 -151.5 22.5t-125.5 75.5l58 73q54 -45 108 -63.5t120 -18.5q83 0 125.5 35t42.5 90q0 50 -33.5 76t-99.5 26h-158v88h151z" />
    <glyph glyph-name="afii10026" unicode="&#x418;" horiz-adv-x="743" 
d="M183 670v-518l385 518h92v-670h-100v505l-376 -505h-101v670h100z" />
    <glyph glyph-name="afii10027" unicode="&#x419;" horiz-adv-x="743" 
d="M183 670v-518l385 518h92v-670h-100v505l-376 -505h-101v670h100zM292 917q2 -37 24 -57t55 -20t55.5 19.5t24.5 57.5h78q-1 -34 -12.5 -62.5t-32 -49.5t-49.5 -32.5t-64 -11.5t-64 11.5t-49 32.5t-31.5 49.5t-12.5 62.5h78z" />
    <glyph glyph-name="afii10028" unicode="&#x41a;" horiz-adv-x="703" 
d="M183 670v-275l104 8l218 267h126l-261 -310l286 -360h-130l-237 312h-106v-312h-100v670h100z" />
    <glyph glyph-name="afii10029" unicode="&#x41b;" horiz-adv-x="763" 
d="M680 670v-670h-103v582h-264q0 -89 -2 -170t-10 -149t-23 -121.5t-41 -88.5q-24 -32 -58 -48.5t-79 -16.5q-23 0 -42.5 3t-39.5 11l22 86q26 -8 47 -8q23 0 41 9.5t33 33.5q32 54 41 163.5t9 277.5v106h469z" />
    <glyph glyph-name="afii10030" unicode="&#x41c;" horiz-adv-x="840" 
d="M195 670l226 -349l227 349h109v-670h-99v514h-9l-205 -315h-51l-204 315h-9v-514h-97v670h112z" />
    <glyph glyph-name="afii10031" unicode="&#x41d;" horiz-adv-x="732" 
d="M186 670v-282h360v282h102v-670h-102v297h-360v-297h-103v670h103z" />
    <glyph glyph-name="afii10032" unicode="&#x41e;" horiz-adv-x="811" 
d="M405 684q79 0 144 -26.5t111 -73.5t71.5 -111t25.5 -138q0 -72 -25.5 -135.5t-72 -111t-111 -75t-143.5 -27.5t-143.5 27t-111 74.5t-72 111t-25.5 136.5t26 136.5t72.5 110.5t111 74.5t142.5 27.5zM405 595q-59 0 -105.5 -20t-78.5 -55t-49 -82.5t-17 -102.5
t17.5 -102.5t49.5 -82.5t78.5 -55t104.5 -20q59 0 105.5 19.5t79 54.5t49.5 82.5t17 103.5q0 57 -17.5 104.5t-49.5 82t-79 54t-105 19.5z" />
    <glyph glyph-name="afii10033" unicode="&#x41f;" horiz-adv-x="725" 
d="M642 670v-670h-103v578h-353v-578h-103v670h559z" />
    <glyph glyph-name="afii10034" unicode="&#x420;" horiz-adv-x="675" 
d="M368 670q55 0 102 -16.5t80.5 -47t52.5 -73.5t19 -95q0 -55 -20.5 -98.5t-56.5 -74t-84.5 -46.5t-103.5 -16h-171v-203h-103v670h285zM186 291h169q76 0 120.5 38.5t44.5 107.5q0 68 -41 106.5t-117 38.5h-176v-291z" />
    <glyph glyph-name="afii10035" unicode="&#x421;" horiz-adv-x="727" 
d="M617 523q-84 70 -205 70q-58 0 -105.5 -18t-81 -52t-52 -81.5t-18.5 -106.5q0 -60 19 -108t53 -81t80.5 -51t101.5 -18q64 0 118.5 21.5t99.5 61.5l57 -70q-108 -104 -280 -104q-78 0 -142.5 24t-111 69t-72 109t-25.5 145q0 74 25.5 138t73 111.5t115.5 74.5t154 27
q72 0 136.5 -23.5t112.5 -65.5z" />
    <glyph glyph-name="afii10036" unicode="&#x422;" horiz-adv-x="689" 
d="M641 670v-90h-246v-580h-101v580h-246v90h593z" />
    <glyph glyph-name="afii10037" unicode="&#x423;" horiz-adv-x="696" 
d="M156 670l206 -386h10l174 386h111l-265 -560q-32 -66 -70.5 -95.5t-89.5 -29.5q-54 0 -100 20l24 83q13 -5 29 -8.5t30 -3.5q27 0 49 14t36 43l17 38l-279 499h118z" />
    <glyph glyph-name="afii10038" unicode="&#x424;" horiz-adv-x="889" 
d="M495 684v-98h86q57 0 104.5 -16.5t82 -47.5t54 -76.5t19.5 -103.5q0 -59 -21 -105t-56.5 -78t-82.5 -48.5t-100 -16.5h-86v-94h-101v94h-86q-57 0 -105 16.5t-82.5 47.5t-53.5 76.5t-19 103.5q0 59 21 105t56.5 78t82.5 48.5t100 16.5h86v98h101zM394 500h-77
q-82 0 -125 -42.5t-43 -119.5q0 -78 45 -118t123 -40h77v320zM495 180h77q81 0 124.5 43t43.5 119q0 78 -45 118t-123 40h-77v-320z" />
    <glyph glyph-name="afii10039" unicode="&#x425;" horiz-adv-x="719" 
d="M181 670l177 -263h10l169 263h123l-224 -327l245 -343h-126l-193 286h-10l-188 -286h-126l245 350l-223 320h121z" />
    <glyph glyph-name="afii10040" unicode="&#x426;" horiz-adv-x="768" 
d="M185 670v-581h343v581h101v-581h98v-45l-10 -189h-85l-7 145h-542v670h102z" />
    <glyph glyph-name="afii10041" unicode="&#x427;" horiz-adv-x="705" 
d="M169 670v-217q0 -81 38 -124.5t119 -43.5q56 0 105.5 15.5t88.5 42.5v327h102v-670h-102v251q-42 -27 -94.5 -40.5t-113.5 -13.5q-115 0 -179.5 62t-64.5 186v225h101z" />
    <glyph glyph-name="afii10042" unicode="&#x428;" horiz-adv-x="1003" 
d="M184 670v-582h267v582h101v-582h267v582h101v-670h-837v670h101z" />
    <glyph glyph-name="afii10043" unicode="&#x429;" horiz-adv-x="1059" 
d="M184 670v-582h267v582h101v-582h267v582h101v-581h97v-45l-9 -189h-86l-6 145h-833v670h101z" />
    <glyph glyph-name="afii10044" unicode="&#x42a;" horiz-adv-x="755" 
d="M291 670v-224h166q55 0 101.5 -15t80.5 -43.5t53.5 -70t19.5 -95.5q0 -51 -19 -92.5t-52.5 -70t-79.5 -44t-100 -15.5h-272v580l-161 6v84h263zM291 88h155q83 0 123.5 34.5t40.5 100.5q0 69 -42 102t-123 33h-154v-270z" />
    <glyph glyph-name="afii10045" unicode="&#x42b;" horiz-adv-x="879" 
d="M796 670v-670h-102v670h102zM185 670v-224h161q55 0 101.5 -15t81 -43.5t54 -70t19.5 -95.5q0 -51 -19 -92.5t-52.5 -70t-80 -44t-100.5 -15.5h-267v670h102zM185 88h150q83 0 124 34.5t41 100.5q0 69 -42.5 102t-123.5 33h-149v-270z" />
    <glyph glyph-name="afii10046" unicode="&#x42c;" horiz-adv-x="655" 
d="M185 670v-224h171q55 0 101.5 -15t81 -43.5t54 -70t19.5 -95.5q0 -51 -19 -92.5t-52.5 -70t-80 -44t-100.5 -15.5h-277v670h102zM185 88h160q83 0 124 34.5t41 100.5q0 69 -42.5 102t-123.5 33h-159v-270z" />
    <glyph glyph-name="afii10047" unicode="&#x42d;" horiz-adv-x="715" 
d="M559 385q-3 48 -23 86.5t-52 65.5t-75 42t-92 15q-57 0 -108.5 -17t-93.5 -51l-54 73q51 43 118 64t140 21q76 0 139 -25t108.5 -70.5t70.5 -109.5t25 -142q0 -74 -24 -138.5t-69 -111.5t-110 -74t-147 -27q-166 0 -269 104l57 68q46 -42 99 -62t111 -20q52 0 95.5 15.5
t76.5 44t53 69t24 91.5h-301v89h301z" />
    <glyph glyph-name="afii10048" unicode="&#x42e;" horiz-adv-x="1011" 
d="M183 670v-287h107q8 67 35 122t70 95t100.5 62t126.5 22q75 0 137 -25t106 -71t68.5 -110t24.5 -143q0 -74 -24.5 -138t-68.5 -111t-106 -73.5t-137 -26.5q-71 0 -129.5 21.5t-101.5 61.5t-69 98t-32 130h-107v-297h-100v670h100zM622 598q-52 0 -95 -18t-74.5 -52.5
t-49 -83.5t-17.5 -110q0 -60 17 -108.5t47.5 -82.5t74 -52.5t97.5 -18.5q52 0 95.5 18.5t74.5 52.5t48 82.5t17 109.5q0 60 -16 108.5t-46 83t-74 53t-99 18.5z" />
    <glyph glyph-name="afii10049" unicode="&#x42f;" horiz-adv-x="684" 
d="M601 0h-102v221h-182l-151 -221h-123l176 246q-72 23 -111 76t-39 125q0 50 18 91t51 70.5t78.5 45.5t101.5 16h283v-670zM325 582q-71 0 -112.5 -33.5t-41.5 -101.5q0 -66 43 -102t115 -36h170v273h-174z" />
    <glyph glyph-name="afii10065" unicode="&#x430;" horiz-adv-x="623" 
d="M79 463q51 32 102 45.5t108 13.5q119 0 174 -54.5t55 -150.5v-187q0 -32 11 -45.5t29 -13.5q11 0 21 4l9 -74q-21 -10 -51 -10q-38 0 -63.5 18.5t-33.5 67.5q-64 -89 -198 -89q-91 0 -143.5 43.5t-52.5 126.5q0 77 61 121t167 44q42 0 79.5 -7t69.5 -18v28q0 55 -32 83
t-100 28q-91 0 -173 -44zM424 222q-64 22 -146 22q-72 0 -102.5 -24.5t-30.5 -63.5q0 -42 29.5 -63.5t85.5 -21.5q34 0 63.5 9.5t52 26.5t35.5 40.5t13 52.5v22z" />
    <glyph glyph-name="afii10066" unicode="&#x431;" horiz-adv-x="647" 
d="M155 400q31 41 77.5 63.5t121.5 22.5q53 0 98 -17t77.5 -48.5t51 -78t18.5 -104.5q0 -57 -21.5 -103t-58 -79t-86.5 -50.5t-107 -17.5q-65 0 -115 22.5t-85 63.5t-53 100t-18 133q0 86 18.5 150t52.5 109t82 71.5t107 37.5l103 17q32 6 48 22t16 39q0 13 -4 24l81 14
q9 -26 9 -54q0 -50 -30 -83.5t-82 -42.5l-133 -23q-77 -13 -123 -61.5t-55 -126.5h10zM337 406q-69 0 -115.5 -35.5t-70.5 -94.5q0 -47 12.5 -85t35 -65t55 -41.5t71.5 -14.5t71 11.5t55 33t35.5 52.5t12.5 70q0 85 -44 127t-118 42z" />
    <glyph glyph-name="afii10067" unicode="&#x432;" horiz-adv-x="572" 
d="M314 510q83 0 130.5 -37t47.5 -97q0 -35 -15 -59.5t-42 -37.5v-8q43 -12 66 -43.5t23 -78.5q0 -67 -49 -108t-147 -41h-255v510h241zM168 83h170q44 0 67 17.5t23 52.5q0 33 -21.5 51.5t-70.5 18.5h-168v-140zM168 303h152q37 0 56.5 17t19.5 46t-20 46t-65 17h-143v-126
z" />
    <glyph glyph-name="afii10068" unicode="&#x433;" horiz-adv-x="518" 
d="M474 510v-84h-304v-426h-97v510h401z" />
    <glyph glyph-name="afii10069" unicode="&#x434;" horiz-adv-x="673" 
d="M564 510v-427h75v-33l-8 -173h-81l-5 123h-416l-8 -123h-80l-8 171v33l29 4q30 5 50.5 33t34.5 78q16 57 20 139.5t5 174.5h392zM261 427q0 -69 -5 -130t-16 -107q-8 -38 -19.5 -65t-28.5 -42h277v344h-208z" />
    <glyph glyph-name="afii10070" unicode="&#x435;" horiz-adv-x="612" 
d="M146 222q8 -71 55 -110t125 -39q53 0 96.5 13.5t83.5 42.5l44 -69q-51 -39 -106 -55.5t-120 -16.5t-116 18.5t-86.5 53t-54.5 83.5t-19 111q0 58 20 107t56 85t87 56t113 20q54 0 98 -17t75.5 -48.5t49 -75.5t17.5 -97q0 -16 -2 -31.5t-5 -30.5h-411zM466 302
q-1 62 -37 99t-109 37t-116 -36.5t-54 -99.5h316z" />
    <glyph glyph-name="afii10072" unicode="&#x436;" horiz-adv-x="880" 
d="M488 510v-201l81 6l148 195h116l-183 -232l196 -278h-111l-161 233h-86v-233h-94v233h-88l-155 -233h-118l199 274l-184 236h113l150 -195l83 -6v201h94z" />
    <glyph glyph-name="afii10073" unicode="&#x437;" horiz-adv-x="554" 
d="M67 458q43 33 93 48.5t112 15.5q93 0 149 -38.5t56 -107.5q0 -32 -15 -57.5t-41 -38.5v-8q37 -14 58.5 -44.5t21.5 -71.5q0 -36 -13.5 -67t-43 -53.5t-75 -35t-109.5 -12.5q-66 0 -119 16.5t-103 57.5l48 67q39 -30 81 -44.5t93 -14.5q70 0 106.5 20.5t36.5 61.5
q0 34 -21 52.5t-65 18.5h-134v78h122q38 0 57 17.5t19 48.5q0 32 -24.5 53t-89.5 21q-45 0 -82.5 -11t-72.5 -37z" />
    <glyph glyph-name="afii10074" unicode="&#x438;" horiz-adv-x="626" 
d="M457 0v366l-293 -366h-91v510h96v-372l296 372h88v-510h-96z" />
    <glyph glyph-name="afii10075" unicode="&#x439;" horiz-adv-x="626" 
d="M457 0v366l-293 -366h-91v510h96v-372l296 372h88v-510h-96zM240 748q2 -34 21.5 -52.5t50.5 -18.5t50.5 18.5t21.5 52.5h79q-2 -35 -14 -62t-32 -45.5t-47 -28.5t-58 -10q-32 0 -59 9.5t-47 28t-32 46t-12 62.5h78z" />
    <glyph glyph-name="afii10076" unicode="&#x43a;" horiz-adv-x="595" 
d="M170 510v-201l94 9l158 192h121l-196 -230l220 -280h-118l-178 229h-101v-229h-97v510h97z" />
    <glyph glyph-name="afii10077" unicode="&#x43b;" horiz-adv-x="659" 
d="M585 510v-510h-98v428h-213q0 -42 -1 -87t-4.5 -87.5t-9.5 -80t-16 -65.5q-19 -60 -54 -88t-93 -28q-24 0 -43.5 3.5t-37.5 11.5l19 77q13 -5 26 -7t25 -2q28 0 44 17.5t24 44.5q17 48 22.5 121t5.5 164v88h404z" />
    <glyph glyph-name="afii10078" unicode="&#x43c;" horiz-adv-x="703" 
d="M186 510l166 -253l167 253h111v-510h-94v377h-9l-153 -229h-46l-152 229h-10v-377h-93v510h113z" />
    <glyph glyph-name="afii10079" unicode="&#x43d;" horiz-adv-x="619" 
d="M172 510v-209h275v209h99v-510h-99v217h-275v-217h-99v510h99z" />
    <glyph glyph-name="afii10080" unicode="&#x43e;" horiz-adv-x="650" 
d="M325 522q61 0 112 -19.5t88 -55t57 -84.5t20 -108q0 -57 -21 -106t-57.5 -85t-87.5 -56t-111 -20q-62 0 -113 19.5t-87.5 55t-56.5 84.5t-20 108q0 57 20.5 106t57 85t87.5 56t112 20zM325 439q-41 0 -74.5 -13.5t-57 -38t-36 -58.5t-12.5 -74q0 -41 13 -75t36.5 -58
t56.5 -37.5t74 -13.5q42 0 75 13.5t56.5 37.5t36 58t12.5 75q0 40 -13 73.5t-36.5 58t-56.5 38.5t-74 14z" />
    <glyph glyph-name="afii10081" unicode="&#x43f;" horiz-adv-x="618" 
d="M545 510v-510h-99v427h-274v-427h-99v510h472z" />
    <glyph glyph-name="afii10082" unicode="&#x440;" horiz-adv-x="650" 
d="M150 510l10 -93q35 57 83.5 81t114.5 24q54 0 99 -18.5t77 -52t49.5 -82t17.5 -108.5q0 -67 -22.5 -118t-59.5 -85.5t-85 -52t-100 -17.5q-49 0 -88.5 11t-76.5 37v-233h-96v707h77zM169 129q67 -56 157 -56q39 0 71.5 13t55.5 37.5t36 60t13 80.5q0 38 -10.5 70t-31 55
t-50 36t-66.5 13q-65 0 -109 -34.5t-66 -92.5v-182z" />
    <glyph glyph-name="afii10083" unicode="&#x441;" horiz-adv-x="583" 
d="M476 381q-28 26 -66.5 41t-87.5 15q-36 0 -68.5 -12t-56.5 -35t-38 -56t-14 -75q0 -85 47 -135t130 -50q48 0 89 16.5t70 48.5l59 -61q-42 -47 -97.5 -68.5t-124.5 -21.5q-65 0 -115.5 20.5t-85 56.5t-52 84.5t-17.5 104.5q0 61 21.5 110.5t58 84.5t86 54t106.5 19
q68 0 120 -19.5t90 -57.5z" />
    <glyph glyph-name="afii10084" unicode="&#x442;" horiz-adv-x="560" 
d="M517 510v-84h-188v-426h-98v426h-188v84h474z" />
    <glyph glyph-name="afii10085" unicode="&#x443;" horiz-adv-x="638" 
d="M152 510l184 -408h9l147 408h108l-233 -566q-29 -72 -68 -105.5t-99 -33.5q-56 0 -94 26l27 75q16 -8 31 -11t29 -3q29 0 49.5 15t34.5 50l13 36l-252 517h114z" />
    <glyph glyph-name="afii10086" unicode="&#x444;" horiz-adv-x="931" 
d="M513 703v-235q27 26 59.5 40t78.5 14q109 0 170.5 -67t61.5 -198q0 -64 -19.5 -114t-53 -84.5t-79.5 -52.5t-99 -18q-37 0 -64.5 7t-54.5 21v-213h-96v239q-26 -27 -59 -40.5t-78 -13.5q-107 0 -169.5 67.5t-62.5 197.5q0 64 19.5 114t53 84.5t79.5 52.5t99 18
q68 0 118 -28v209h96zM417 409q-28 15 -53 22t-56 7q-79 0 -120.5 -50.5t-41.5 -135.5q0 -95 39.5 -137.5t104.5 -42.5q42 0 72.5 17t54.5 49v271zM513 101q29 -15 54 -22t56 -7q78 0 120 51t42 136q0 94 -40 137t-105 43q-42 0 -72.5 -17.5t-54.5 -50.5v-270z" />
    <glyph glyph-name="afii10087" unicode="&#x445;" horiz-adv-x="627" 
d="M178 510l132 -195h10l130 195h117l-181 -245l202 -265h-123l-152 216h-10l-143 -216h-122l200 269l-183 241h123z" />
    <glyph glyph-name="afii10088" unicode="&#x446;" horiz-adv-x="634" 
d="M169 510v-427h263v427h96v-427h76v-33l-8 -173h-81l-6 123h-436v510h96z" />
    <glyph glyph-name="afii10089" unicode="&#x447;" horiz-adv-x="581" 
d="M149 510v-158q0 -62 28 -94.5t90 -32.5q46 0 81.5 13.5t66.5 41.5v230h96v-510h-96v193q-32 -25 -72 -38t-92 -13q-92 0 -145 52t-53 143v173h96z" />
    <glyph glyph-name="afii10090" unicode="&#x448;" horiz-adv-x="863" 
d="M168 510v-427h216v427h95v-427h216v427h95v-510h-717v510h95z" />
    <glyph glyph-name="afii10091" unicode="&#x449;" horiz-adv-x="896" 
d="M168 510v-427h216v427h95v-427h216v427h95v-427h76v-33l-8 -173h-81l-6 123h-698v510h95z" />
    <glyph glyph-name="afii10092" unicode="&#x44a;" horiz-adv-x="642" 
d="M268 510v-168q32 15 66 23.5t71 8.5q42 0 78 -11.5t63 -35t42 -57.5t15 -79q0 -41 -15 -76t-43.5 -60.5t-71 -40t-96.5 -14.5h-205v428h-144v82h240zM268 83h103q68 0 101 29t33 80q0 48 -29.5 74.5t-87.5 26.5q-65 0 -120 -31v-179z" />
    <glyph glyph-name="afii10093" unicode="&#x44b;" horiz-adv-x="752" 
d="M679 510v-510h-99v510h99zM171 510v-168q32 15 65.5 23.5t71.5 8.5q42 0 77.5 -11.5t61.5 -34.5t41 -57t15 -79q0 -41 -14.5 -76t-43 -61t-70.5 -40.5t-96 -14.5h-206v510h98zM171 83h102q69 0 100.5 30t31.5 80q0 48 -28 74t-87 26q-63 0 -119 -31v-179z" />
    <glyph glyph-name="afii10094" unicode="&#x44c;" horiz-adv-x="551" 
d="M171 510v-169q32 16 67.5 24.5t72.5 8.5q41 0 77.5 -11.5t64 -34t43.5 -56.5t16 -80q0 -42 -15.5 -77t-45 -60.5t-72 -40t-96.5 -14.5h-210v510h98zM171 82h106q70 0 103.5 30t33.5 81q0 48 -29.5 74t-88.5 26q-70 0 -125 -32v-179z" />
    <glyph glyph-name="afii10095" unicode="&#x44d;" horiz-adv-x="575" 
d="M426 301q-8 68 -52 103t-115 35q-85 0 -150 -56l-51 66q38 35 87.5 54t111.5 19q66 0 116 -21t84 -57t51.5 -84.5t17.5 -103.5q0 -60 -19.5 -109.5t-55 -85t-85 -54.5t-109.5 -19q-70 0 -121 20.5t-93 63.5l58 62q30 -29 69 -45.5t88 -16.5q33 0 62.5 9.5t52.5 28
t37.5 46t17.5 64.5h-213v81h211z" />
    <glyph glyph-name="afii10096" unicode="&#x44e;" horiz-adv-x="836" 
d="M170 510v-209h90q7 48 28.5 88.5t55.5 70t78.5 46t97.5 16.5q61 0 110.5 -20t84.5 -55.5t54 -84.5t19 -108q0 -56 -19 -104.5t-54.5 -84.5t-85 -56.5t-109.5 -20.5q-57 0 -102.5 17.5t-79.5 48t-54 73t-26 93.5h-88v-220h-97v510h97zM520 439q-39 0 -70 -13.5t-53 -38
t-34 -58.5t-12 -74q0 -41 11 -74.5t33 -58t53 -38t72 -13.5q39 0 70.5 13.5t53.5 38.5t34 58.5t12 74.5q0 40 -11 73.5t-32.5 58t-53.5 38t-73 13.5z" />
    <glyph glyph-name="afii10097" unicode="&#x44f;" horiz-adv-x="582" 
d="M411 0v187q-59 -29 -136 -32l-116 -155h-116l140 174q-53 15 -84 57.5t-31 99.5q0 40 15 73t44.5 56.5t72 36.5t96.5 13h212v-510h-97zM411 428h-110q-68 0 -101.5 -26t-33.5 -71q0 -46 31.5 -71.5t87.5 -25.5q69 0 126 33v161z" />
    <glyph glyph-name="afii10071" unicode="&#x451;" horiz-adv-x="612" 
d="M146 222q8 -71 55 -110t125 -39q53 0 96.5 13.5t83.5 42.5l44 -69q-51 -39 -106 -55.5t-120 -16.5t-116 18.5t-86.5 53t-54.5 83.5t-19 111q0 58 20 107t56 85t87 56t113 20q54 0 98 -17t75.5 -48.5t49 -75.5t17.5 -97q0 -16 -2 -31.5t-5 -30.5h-411zM466 302
q-1 62 -37 99t-109 37t-116 -36.5t-54 -99.5h316zM211 735q27 0 45.5 -17.5t18.5 -44.5t-18.5 -44.5t-45.5 -17.5q-26 0 -44.5 17.5t-18.5 44.5t18.5 44.5t44.5 17.5zM437 735q26 0 44.5 -17.5t18.5 -44.5t-18.5 -44.5t-44.5 -17.5t-44.5 17.5t-18.5 44.5t18.5 44.5
t44.5 17.5z" />
    <glyph glyph-name="afii10099" unicode="&#x452;" horiz-adv-x="661" 
d="M191 730v-71h156v-78h-156v-162q27 50 72.5 76.5t114.5 26.5q97 0 153.5 -56t56.5 -165v-284q0 -48 -14 -84.5t-38 -60.5t-57.5 -36.5t-72.5 -12.5q-38 0 -67.5 8t-58.5 27l35 74q42 -23 86 -23q47 0 68.5 27.5t21.5 75.5v278q0 75 -33.5 111.5t-95.5 36.5
q-60 0 -105 -39t-66 -110v-289h-98v581h-70v78h69l10 71h89z" />
    <glyph glyph-name="afii10100" unicode="&#x453;" horiz-adv-x="518" 
d="M474 510v-84h-304v-426h-97v510h401zM411 760l-82 -139h-85l85 187z" />
    <glyph glyph-name="afii10101" unicode="&#x454;" horiz-adv-x="583" 
d="M381 223h-234q8 -71 54 -111t121 -40q49 0 89.5 17.5t69.5 49.5l59 -61q-83 -90 -222 -90q-66 0 -116 20.5t-84.5 56.5t-52 84.5t-17.5 104.5q0 61 21.5 110.5t58 84.5t86 54t106.5 19q69 0 121 -20.5t89 -57.5l-57 -64q-28 26 -65 42t-86 16q-32 0 -60.5 -9t-51.5 -26.5
t-39 -42.5t-22 -56h232v-81z" />
    <glyph glyph-name="afii10102" unicode="&#x455;" horiz-adv-x="569" 
d="M453 393q-78 45 -169 45q-60 0 -91.5 -18.5t-31.5 -50.5q0 -26 16.5 -40.5t56.5 -19.5l104 -12q83 -11 130.5 -45.5t47.5 -104.5q0 -75 -63.5 -117t-178.5 -42q-66 0 -119.5 13.5t-106.5 48.5l42 75q45 -29 91 -42t97 -13q72 0 107.5 19t35.5 54q0 30 -19 46.5t-69 21.5
l-120 14q-72 8 -110 44.5t-38 99.5q0 68 56 110.5t165 42.5q58 0 111 -13t97 -41z" />
    <glyph glyph-name="afii10103" unicode="&#x456;" horiz-adv-x="245" 
d="M172 510v-510h-99v510h99zM123 744q27 0 47.5 -18t20.5 -49q0 -30 -20.5 -48t-47.5 -18q-28 0 -48 18t-20 48q0 31 20 49t48 18z" />
    <glyph glyph-name="afii10104" unicode="&#x457;" horiz-adv-x="246" 
d="M173 510v-510h-100v510h100zM32 735q26 0 44.5 -17t18.5 -45q0 -27 -18.5 -44.5t-44.5 -17.5t-44.5 17.5t-18.5 44.5q0 28 18.5 45t44.5 17zM216 735q26 0 44.5 -17.5t18.5 -44.5t-18.5 -44.5t-44.5 -17.5t-44.5 17t-18.5 45t18.5 45t44.5 17z" />
    <glyph glyph-name="afii10105" unicode="&#x458;" horiz-adv-x="251" 
d="M178 510v-546q0 -45 -11.5 -82t-35 -64t-58 -42t-80.5 -15q-40 0 -73.5 8t-65.5 26l33 77q26 -14 49 -19t52 -5q42 0 67.5 28t25.5 88v546h97zM129 745q27 0 47.5 -18.5t20.5 -48.5q0 -31 -20.5 -49t-47.5 -18t-47.5 18t-20.5 49q0 30 20.5 48.5t47.5 18.5z" />
    <glyph glyph-name="afii10106" unicode="&#x459;" horiz-adv-x="948" 
d="M578 510v-169q29 16 62.5 24.5t69.5 8.5q40 0 76.5 -11.5t64 -34t43.5 -56.5t16 -80q0 -42 -16 -77t-45.5 -60.5t-72 -40t-94.5 -14.5h-201v428h-207q0 -42 -1 -87t-4.5 -87.5t-9.5 -80t-16 -65.5q-19 -60 -54 -88t-93 -28q-24 0 -43.5 3.5t-37.5 11.5l19 77q13 -5 26 -7
t25 -2q28 0 44 17.5t24 44.5q17 48 22.5 122.5t5.5 166.5v84h397zM578 82h98q68 0 102 30t34 81q0 48 -30 74t-87 26q-63 0 -117 -32v-179z" />
    <glyph glyph-name="afii10107" unicode="&#x45a;" horiz-adv-x="910" 
d="M172 510v-208h270v208h98v-169q29 16 62 24.5t70 8.5q40 0 76 -11.5t63.5 -34t44 -56.5t16.5 -80q0 -42 -16 -77t-45.5 -60.5t-72 -40t-94.5 -14.5h-202v219h-270v-219h-99v510h99zM540 82h98q67 0 101 30t34 81q0 48 -29.5 74t-86.5 26q-63 0 -117 -32v-179z" />
    <glyph glyph-name="afii10108" unicode="&#x45b;" horiz-adv-x="661" 
d="M191 730v-71h156v-78h-156v-162q27 50 72.5 76.5t114.5 26.5q97 0 153.5 -56t56.5 -165v-301h-97v290q0 75 -33.5 111.5t-95.5 36.5q-60 0 -105 -39t-66 -110v-289h-98v581h-70v78h69l10 71h89z" />
    <glyph glyph-name="afii10109" unicode="&#x45c;" horiz-adv-x="595" 
d="M170 510v-201l94 9l158 192h121l-196 -230l220 -280h-118l-178 229h-101v-229h-97v510h97zM425 760l-82 -139h-85l85 187z" />
    <glyph glyph-name="afii10193" unicode="&#x45f;" horiz-adv-x="620" 
d="M172 510v-427h276v427h99v-510h-189l-7 -123h-83l-7 123h-188v510h99z" />
    <glyph glyph-name="afii10050" unicode="&#x490;" horiz-adv-x="609" 
d="M472 670l13 158h86v-248h-386v-580h-102v670h389z" />
    <glyph glyph-name="afii10098" unicode="&#x491;" horiz-adv-x="510" 
d="M377 510l11 126h82v-210h-300v-426h-97v510h304z" />
    <glyph glyph-name="endash" unicode="&#x2013;" horiz-adv-x="653" 
d="M560 324v-84h-467v84h467z" />
    <glyph glyph-name="emdash" unicode="&#x2014;" horiz-adv-x="1009" 
d="M846 324v-84h-683v84h683z" />
    <glyph glyph-name="quoteleft" unicode="&#x2018;" horiz-adv-x="217" 
d="M135.005 578q16.999 -5 27.998 -20.499q11 -15.499 11 -36.498q0 -28.998 -19.499 -46.4971t-46.4971 -17.499q-26.999 0 -45.9971 16.499q-18.999 16.499 -18.999 47.4971q0 8.99902 2 17.499l3.99902 16.499l53.9971 135.991l54.9971 -13.999z" />
    <glyph glyph-name="quoteright" unicode="&#x2019;" horiz-adv-x="217" 
d="M82 552q-17 5 -28 20.5t-11 36.5q0 29 19.5 46.5t46.5 17.5t46 -16.5t19 -47.5q0 -9 -2 -17.5l-4 -16.5l-54 -136l-55 14z" />
    <glyph glyph-name="quotesinglbase" unicode="&#x201a;" horiz-adv-x="217" 
d="M82 -8q-17 5 -28 20.5t-11 36.5q0 29 19.5 46.5t46.5 17.5t46 -16.5t19 -47.5q0 -9 -2 -17.5l-4 -16.5l-54 -136l-55 14z" />
    <glyph glyph-name="quotedblleft" unicode="&#x201c;" horiz-adv-x="358" 
d="M286.004 578q16.999 -5 27.999 -20.499q10.999 -15.499 10.999 -36.498q0 -28.998 -18.999 -46.4971t-45.9971 -17.499t-46.4971 16.499t-19.499 47.4971q0 8.99902 2 17.999q2 8.99902 4 16.999l47.9971 121.992l53.9971 -13.999zM127.014 578.999
q16.999 -5.99902 26.999 -21.498q9.99902 -15.499 9.99902 -36.498q0 -28.998 -18.999 -46.4971t-46.9971 -17.499t-46.4971 17.499t-18.499 46.4971q0 18.999 6 33.998l52.9971 139.991l59.9961 -16.999z" />
    <glyph glyph-name="quotedblright" unicode="&#x201d;" horiz-adv-x="358" 
d="M72 552q-17 5 -28 20.5t-11 36.5q0 29 19 46.5t46 17.5t46.5 -16.5t19.5 -47.5q0 -9 -2 -18t-4 -17l-48 -122l-54 14zM231 551q-17 6 -27 21.5t-10 36.5q0 29 19 46.5t47 17.5t46.5 -17.5t18.5 -46.5q0 -19 -6 -34l-53 -140l-60 17z" />
    <glyph glyph-name="quotedblbase" unicode="&#x201e;" horiz-adv-x="358" 
d="M72 -8q-17 5 -28 20.5t-11 36.5q0 29 19 46.5t46 17.5t46.5 -16.5t19.5 -47.5q0 -9 -2 -18t-4 -17l-48 -122l-54 14zM231 -9q-17 6 -27 21.5t-10 36.5q0 29 19 46.5t47 17.5t46.5 -17.5t18.5 -46.5q0 -19 -6 -34l-53 -140l-60 17z" />
    <glyph glyph-name="dagger" unicode="&#x2020;" horiz-adv-x="442" 
d="M270 647l-7 -135h126v-86l-126 7l6 -433h-95l6 433l-127 -7v86h127l-7 135h97z" />
    <glyph glyph-name="daggerdbl" unicode="&#x2021;" horiz-adv-x="442" 
d="M270 647l-7 -135h126v-86l-126 7v-120h126v-85l-127 7l7 -235h-95l7 235l-128 -7v85h127v120l-127 -7v86h127l-7 135h97z" />
    <glyph glyph-name="bullet" unicode="&#x2022;" horiz-adv-x="365" 
d="M183 413q32 0 55 -21.5t23 -56.5t-23 -56t-55 -21t-56 21t-24 56t24 56.5t56 21.5z" />
    <glyph glyph-name="ellipsis" unicode="&#x2026;" horiz-adv-x="643" 
d="M119 123q26 0 46 -17.5t20 -46.5t-20 -47t-46 -18t-46 18t-20 47t20 46.5t46 17.5zM321 123q26 0 46.5 -17.5t20.5 -46.5t-20.5 -47t-46.5 -18t-46 18t-20 47t20 46.5t46 17.5zM523 123q27 0 47 -17.5t20 -46.5t-20 -47t-47 -18q-26 0 -46 18t-20 47t20 46.5t46 17.5z
" />
    <glyph glyph-name="guilsinglleft" unicode="&#x2039;" horiz-adv-x="324" 
d="M272 388l-120 -125l120 -128l-60 -57l-169 169v27l170 169z" />
    <glyph glyph-name="guilsinglright" unicode="&#x203a;" horiz-adv-x="324" 
d="M281 274v-27l-170 -169l-59 55l120 125l-120 128l59 57z" />
    <glyph glyph-name="Euro" unicode="&#x20ac;" horiz-adv-x="725" 
d="M447 294l-8 -85h-222q23 -63 77.5 -98.5t134.5 -35.5q62 0 109 20.5t90 63.5l59 -66q-51 -53 -115.5 -80t-149.5 -27q-125 0 -205 59t-109 165l-65 5v79h404zM112 444q16 48 44 88.5t68.5 69.5t93.5 45.5t119 16.5q139 0 237 -89l-58 -69q-39 35 -84 52t-100 17
q-81 0 -137.5 -34.5t-79.5 -95.5h246l-8 -85h-410v80z" />
    <glyph glyph-name="afii61352" unicode="&#x2116;" horiz-adv-x="1095" 
d="M910 523q31 0 57.5 -11t45 -29.5t29 -43.5t10.5 -53t-10.5 -53t-29 -43.5t-45 -29t-57.5 -10.5q-32 0 -58 10.5t-45 29t-29 43.5t-10 53t10 53t29 43.5t45 29.5t58 11zM1041 186v-78h-262v78h262zM910 448q-27 0 -45 -16.5t-18 -45.5t18.5 -45.5t44.5 -16.5t44 16.5
t18 45.5t-18 45.5t-44 16.5zM661 651v-651h-101l-380 493v-493h-97v651h94l388 -505v505h96z" />
    <glyph glyph-name="trademark" unicode="&#x2122;" horiz-adv-x="670" 
d="M377 671l91 -108l89 108h73v-287h-69v189l-84 -99h-21l-82 99v-189h-70v221h-105v-221h-70v221h-101v66h349z" />
    <glyph glyph-name="minus" unicode="&#x2212;" horiz-adv-x="477" 
d="M414 383v-86h-351v86h351z" />
    <glyph glyph-name="approxequal" unicode="&#x2248;" horiz-adv-x="468" 
d="M48 415q22 35 51 54.5t72 19.5q23 0 39 -7.5t29.5 -16.5t27.5 -16.5t34 -7.5q46 0 72 37l47 -46q-18 -35 -47.5 -54t-73.5 -19q-23 0 -40 7.5t-31.5 17t-28.5 17t-32 7.5q-26 0 -43.5 -10.5t-30.5 -28.5zM48 244q22 35 51 54.5t72 19.5q23 0 39 -7.5t29.5 -16.5
t27.5 -16.5t34 -7.5q46 0 72 37l47 -46q-18 -35 -47.5 -54t-73.5 -19q-23 0 -40 7.5t-31.5 17t-28.5 17t-32 7.5q-26 0 -43.5 -10.5t-30.5 -28.5z" />
    <glyph glyph-name="notequal" unicode="&#x2260;" horiz-adv-x="483" 
d="M235 469l25 91l81 -22l-20 -69h98v-81h-120l-26 -93h146v-80h-168l-23 -87l-81 23l17 64h-101v80h124l25 93h-149v81h172z" />
    <glyph glyph-name="lessequal" unicode="&#x2264;" horiz-adv-x="405" 
d="M362 537l-180 -133l180 -136l-51 -66l-247 181v33l245 188zM307 119l-51 -68l-213 161v19l40 53z" />
    <glyph glyph-name="greaterequal" unicode="&#x2265;" horiz-adv-x="405" 
d="M341 416v-33l-247 -181l-51 66l180 134l-180 134l53 68zM362 231v-19l-213 -161l-51 68l224 165z" />
    <glyph glyph-name="afii10110" unicode="&#x45e;" horiz-adv-x="638" 
d="M152 510l184 -408h9l147 408h108l-233 -566q-29 -72 -68 -105.5t-99 -33.5q-56 0 -94 26l27 75q16 -8 31 -11t29 -3q29 0 49.5 15t34.5 50l13 36l-252 517h114zM257 748q2 -34 21.5 -52.5t50.5 -18.5t50.5 18.5t21.5 52.5h79q-2 -35 -14 -62t-32 -45.5t-47 -28.5t-58 -10
q-32 0 -59 9.5t-47 28t-32 46t-12 62.5h78z" />
    <glyph glyph-name="dblgrave" horiz-adv-x="318" 
d="M272 621h-78l-74 154l81 39zM129 621h-82l-80 124l80 44z" />
    <glyph glyph-name="commaaccent" horiz-adv-x="224" 
d="M86 -197q-17 5 -28 21t-11 38q0 29 19 46t45 17q27 0 46.5 -17t19.5 -46q0 -17 -6 -30l-54 -132l-56 20z" />
    <glyph glyph-name="paragraph.1" horiz-adv-x="550" 
d="M418 601l20 -85l58 7l15 -64l-71 -22v-324q0 -74 -25 -126t-86 -94l-169 -118l-43 62l105 77v319q-12 -7 -27 -10t-30 -3q-26 0 -49 8.5t-40 26t-27.5 43t-10.5 58.5q0 35 13 63.5t36 48.5t54.5 31t68.5 11h21l18 52l52 -4v-590l17 13q42 33 42 112v502zM200 438
q-33 0 -56 -20.5t-23 -56.5q0 -34 18.5 -50t41.5 -16q24 0 41 11v132h-22z" />
    <glyph glyph-name="afii10062" unicode="&#x40e;" horiz-adv-x="696" 
d="M156 670l206 -386h10l174 386h111l-265 -560q-32 -66 -70.5 -95.5t-89.5 -29.5q-54 0 -100 20l24 83q13 -5 29 -8.5t30 -3.5q27 0 49 14t36 43l17 38l-279 499h118zM281 917q2 -37 24 -57t55 -20t55.5 19.5t24.5 57.5h78q-1 -34 -12.5 -62.5t-32 -49.5t-49.5 -32.5
t-64 -11.5t-64 11.5t-49 32.5t-31.5 49.5t-12.5 62.5h78z" />
    <glyph glyph-name="sterling" unicode="&#xa3;" horiz-adv-x="690" 
d="M136 352q-13 28 -23.5 58.5t-10.5 75.5q0 35 12.5 67t36.5 57t60 39.5t83 14.5q64 0 107 -22t71 -62l-69 -59q-37 57 -108 57q-45 0 -70.5 -27t-25.5 -71q0 -30 8 -55.5t22 -50.5l148 36l19 -86l-131 -29q11 -33 11 -67q0 -29 -9.5 -58t-30.5 -55q29 0 55 -6t52.5 -13.5
t53.5 -13.5t57 -6q48 0 73 23t25 63q0 20 -3.5 37t-11.5 34l80 25q14 -23 22 -50t8 -53q0 -73 -49 -119.5t-140 -46.5q-35 0 -63.5 6t-55.5 13.5t-55.5 14t-61.5 6.5q-34 0 -67 -8.5t-68 -27.5l-34 70l48 28q39 23 58 56t19 75q0 26 -8 52l-96 -22l-18 81z" />
    <glyph glyph-name="AE" unicode="&#xc6;" horiz-adv-x="1072" 
d="M996 670v-89h-372v-189h326v-88h-326v-214h390v-90h-490v152h-286l-92 -152h-123l425 670h548zM291 240h233v341h-25z" />
    <glyph glyph-name="Dcroat" unicode="&#x110;" horiz-adv-x="742" 
d="M333 670q82 0 148 -24.5t112 -69t70.5 -106t24.5 -135.5q0 -73 -25.5 -134.5t-72.5 -106t-113 -69.5t-147 -25h-233v287l-75 5v87h75v291h236zM198 379h190v-91h-190v-199h132q55 0 102.5 17t81.5 49t53.5 77.5t19.5 102.5q0 120 -68.5 183t-189.5 63h-131v-202z" />
    <glyph glyph-name="Hbar" unicode="&#x126;" horiz-adv-x="732" 
d="M186 670v-103h360v103h102v-103h64v-84h-64v-483h-102v287h-360v-287h-103v483h-63v84h63v103h103zM186 378h360v105h-360v-105z" />
    <glyph glyph-name="Lslash" unicode="&#x141;" horiz-adv-x="619" 
d="M185 670v-285l149 63l35 -86l-184 -78v-194h386v-90h-488v242l-53 -12l-26 80l79 32v328h102z" />
    <glyph glyph-name="OE" unicode="&#x152;" horiz-adv-x="1108" 
d="M1056 670v-89h-374v-189h327v-88h-327v-214h391v-90h-489v46q-39 -31 -86.5 -45.5t-103.5 -14.5q-77 0 -140 27t-107.5 74.5t-69 111t-24.5 136.5t24.5 136.5t69 110.5t107.5 74.5t140 27.5q58 0 105 -15.5t85 -44.5v46h472zM584 515q-60 80 -190 80q-58 0 -102.5 -20
t-75 -55t-46 -82.5t-15.5 -102.5t16 -102.5t46.5 -82.5t75 -55t101.5 -20q65 0 113 20.5t77 58.5v361z" />
    <glyph glyph-name="Eth" unicode="&#xd0;" horiz-adv-x="742" 
d="M333 670q82 0 148 -24.5t112 -69t70.5 -106t24.5 -135.5q0 -73 -25.5 -134.5t-72.5 -106t-113 -69.5t-147 -25h-233v287l-75 5v87h75v291h236zM198 379h190v-91h-190v-199h132q55 0 102.5 17t81.5 49t53.5 77.5t19.5 102.5q0 120 -68.5 183t-189.5 63h-131v-202z" />
    <glyph glyph-name="dcroat" unicode="&#x111;" horiz-adv-x="677" 
d="M584 730v-71h70v-78h-70v-581h-77l-11 97q-30 -54 -80.5 -81.5t-114.5 -27.5q-58 0 -105 18t-80 52t-50.5 83.5t-17.5 112.5q0 62 21 111.5t57.5 84.5t85.5 53.5t106 18.5q51 0 92.5 -12.5t76.5 -37.5v109h-156v78h154l10 71h89zM487 385q-71 54 -159 54
q-85 0 -133.5 -48.5t-48.5 -136.5q0 -44 12.5 -77.5t34 -57t50.5 -35.5t62 -12q67 0 113 36t69 103v174z" />
    <glyph glyph-name="dotlessi" unicode="&#x131;" horiz-adv-x="246" 
d="M173 510v-510h-100v510h100z" />
    <glyph glyph-name="dotlessj" unicode="&#x237;" horiz-adv-x="251" 
d="M178 510v-546q0 -45 -11.5 -82t-35 -64t-58 -42t-80.5 -15q-40 0 -73.5 8t-65.5 26l33 77q26 -14 49 -19t52 -5q42 0 67.5 28t25.5 88v546h97z" />
    <glyph glyph-name="kgreenlandic" unicode="&#x138;" horiz-adv-x="595" 
d="M170 510v-201l94 9l158 192h121l-196 -230l220 -280h-118l-178 229h-101v-229h-97v510h97z" />
    <glyph glyph-name="lslash" unicode="&#x142;" horiz-adv-x="290" 
d="M193 713v-304l68 33l37 -75l-105 -56v-311h-97v259l-68 -33l-36 76l104 55v356h97z" />
    <glyph glyph-name="hbar" unicode="&#x127;" horiz-adv-x="661" 
d="M191 730v-71h156v-78h-156v-162q27 50 72.5 76.5t114.5 26.5q97 0 153.5 -56t56.5 -165v-301h-97v290q0 75 -33.5 111.5t-95.5 36.5q-60 0 -105 -39t-66 -110v-289h-98v581h-70v78h69l10 71h89z" />
    <glyph glyph-name="longs" unicode="&#x17f;" horiz-adv-x="270" 
d="M73 557q0 40 11.5 76t36 62.5t62.5 42t90 15.5q51 0 91 -13.5t75 -39.5l-46 -72q-24 17 -54.5 27.5t-62.5 10.5q-55 0 -80.5 -29.5t-25.5 -83.5v-553h-97v557z" />
    <glyph glyph-name="ubreve" unicode="&#x16d;" horiz-adv-x="634" 
d="M170 510v-283q0 -80 32 -117t90 -37q61 0 105.5 38.5t66.5 108.5v290h97v-510h-78l-9 103q-26 -56 -74.5 -85.5t-115.5 -29.5q-99 0 -155 57t-56 169v296h97zM244 748q2 -34 21.5 -52.5t50.5 -18.5t50.5 18.5t21.5 52.5h79q-2 -35 -14 -62t-32 -45.5t-47 -28.5t-58 -10
q-32 0 -59 9.5t-47 28t-32 46t-12 62.5h78z" />
    <glyph glyph-name="ecaron" unicode="&#x11b;" horiz-adv-x="612" 
d="M146 222q8 -71 55 -110t125 -39q53 0 96.5 13.5t83.5 42.5l44 -69q-51 -39 -106 -55.5t-120 -16.5t-116 18.5t-86.5 53t-54.5 83.5t-19 111q0 58 20 107t56 85t87 56t113 20q54 0 98 -17t75.5 -48.5t49 -75.5t17.5 -97q0 -16 -2 -31.5t-5 -30.5h-411zM466 302
q-1 62 -37 99t-109 37t-116 -36.5t-54 -99.5h316zM332 704l96 84l46 -49v-10l-132 -127h-21l-134 127v10l46 49z" />
    <glyph glyph-name="ccedilla" unicode="&#xe7;" horiz-adv-x="583" 
d="M476 381q-28 26 -66.5 41t-87.5 15q-36 0 -68.5 -12t-56.5 -35t-38 -56t-14 -75q0 -85 47 -135t130 -50q48 0 89 16.5t70 48.5l59 -61q-39 -43 -88.5 -64.5t-110.5 -24.5l-4 -45q29 -8 47 -32.5t18 -60.5q0 -54 -37 -95t-119 -63l-22 62q51 17 72.5 38.5t21.5 47.5
q0 27 -18 40t-57 14v19l21 43v35q-53 8 -93 31.5t-67.5 58t-41.5 78.5t-14 94q0 61 21.5 110.5t58 84.5t86 54t106.5 19q68 0 120 -19.5t90 -57.5z" />
    <glyph glyph-name="scircumflex" unicode="&#x15d;" horiz-adv-x="569" 
d="M453 393q-78 45 -169 45q-60 0 -91.5 -18.5t-31.5 -50.5q0 -26 16.5 -40.5t56.5 -19.5l104 -12q83 -11 130.5 -45.5t47.5 -104.5q0 -75 -63.5 -117t-178.5 -42q-66 0 -119.5 13.5t-106.5 48.5l42 75q45 -29 91 -42t97 -13q72 0 107.5 19t35.5 54q0 30 -19 46.5t-69 21.5
l-120 14q-72 8 -110 44.5t-38 99.5q0 68 56 110.5t165 42.5q58 0 111 -13t97 -41zM291 677l-94 -84l-47 49v10l133 127h21l133 -127v-10l-46 -49z" />
    <glyph glyph-name="scedilla" unicode="&#x15f;" horiz-adv-x="569" 
d="M453 393q-78 45 -169 45q-60 0 -91.5 -18.5t-31.5 -50.5q0 -26 16.5 -40.5t56.5 -19.5l104 -12q83 -11 130.5 -45.5t47.5 -104.5q0 -69 -55 -110.5t-156 -47.5l-4 -45q29 -8 47 -32.5t18 -60.5q0 -54 -37 -95t-119 -63l-21 62q51 17 72 38.5t21 47.5q0 27 -17.5 40
t-57.5 14v19l22 43v33q-51 4 -94 18t-87 42l42 75q45 -29 91 -42t97 -13q72 0 107.5 19t35.5 54q0 30 -19 46.5t-69 21.5l-120 14q-72 8 -110 44.5t-38 99.5q0 68 56 110.5t165 42.5q58 0 111 -13t97 -41z" />
    <glyph glyph-name="scommaaccent" unicode="&#x219;" horiz-adv-x="569" 
d="M453 393q-78 45 -169 45q-60 0 -91.5 -18.5t-31.5 -50.5q0 -26 16.5 -40.5t56.5 -19.5l104 -12q83 -11 130.5 -45.5t47.5 -104.5q0 -75 -63.5 -117t-178.5 -42q-66 0 -119.5 13.5t-106.5 48.5l42 75q45 -29 91 -42t97 -13q72 0 107.5 19t35.5 54q0 30 -19 46.5t-69 21.5
l-120 14q-72 8 -110 44.5t-38 99.5q0 68 56 110.5t165 42.5q58 0 111 -13t97 -41zM245 -197q-17 5 -28 21t-11 38q0 29 19 46t45 17q27 0 46.5 -17t19.5 -46q0 -17 -6 -30l-54 -132l-56 20z" />
    <glyph glyph-name="edieresis" unicode="&#xeb;" horiz-adv-x="612" 
d="M146 222q8 -71 55 -110t125 -39q53 0 96.5 13.5t83.5 42.5l44 -69q-51 -39 -106 -55.5t-120 -16.5t-116 18.5t-86.5 53t-54.5 83.5t-19 111q0 58 20 107t56 85t87 56t113 20q54 0 98 -17t75.5 -48.5t49 -75.5t17.5 -97q0 -16 -2 -31.5t-5 -30.5h-411zM466 302
q-1 62 -37 99t-109 37t-116 -36.5t-54 -99.5h316zM211 735q27 0 45.5 -17.5t18.5 -44.5t-18.5 -44.5t-45.5 -17.5q-26 0 -44.5 17.5t-18.5 44.5t18.5 44.5t44.5 17.5zM437 735q26 0 44.5 -17.5t18.5 -44.5t-18.5 -44.5t-44.5 -17.5t-44.5 17.5t-18.5 44.5t18.5 44.5
t44.5 17.5z" />
    <glyph glyph-name="ohungarumlaut" unicode="&#x151;" horiz-adv-x="650" 
d="M325 522q61 0 112 -19.5t88 -55t57 -84.5t20 -108q0 -57 -21 -106t-57.5 -85t-87.5 -56t-111 -20q-62 0 -113 19.5t-87.5 55t-56.5 84.5t-20 108q0 57 20.5 106t57 85t87.5 56t112 20zM325 439q-41 0 -74.5 -13.5t-57 -38t-36 -58.5t-12.5 -74q0 -41 13 -75t36.5 -58
t56.5 -37.5t74 -13.5q42 0 75 13.5t56.5 37.5t36 58t12.5 75q0 40 -13 73.5t-36.5 58t-56.5 38.5t-74 14zM369 775l-74 -154h-79l71 193zM522 745l-80 -124h-82l82 168z" />
    <glyph glyph-name="egrave" unicode="&#xe8;" horiz-adv-x="612" 
d="M146 222q8 -71 55 -110t125 -39q53 0 96.5 13.5t83.5 42.5l44 -69q-51 -39 -106 -55.5t-120 -16.5t-116 18.5t-86.5 53t-54.5 83.5t-19 111q0 58 20 107t56 85t87 56t113 20q54 0 98 -17t75.5 -48.5t49 -75.5t17.5 -97q0 -16 -2 -31.5t-5 -30.5h-411zM466 302
q-1 62 -37 99t-109 37t-116 -36.5t-54 -99.5h316zM369 621h-85l-82 139l82 48z" />
    <glyph glyph-name="adblgrave" unicode="&#x201;" horiz-adv-x="623" 
d="M79 463q51 32 102 45.5t108 13.5q119 0 174 -54.5t55 -150.5v-187q0 -32 11 -45.5t29 -13.5q11 0 21 4l9 -74q-21 -10 -51 -10q-38 0 -63.5 18.5t-33.5 67.5q-64 -89 -198 -89q-91 0 -143.5 43.5t-52.5 126.5q0 77 61 121t167 44q42 0 79.5 -7t69.5 -18v28q0 55 -32 83
t-100 28q-91 0 -173 -44zM424 222q-64 22 -146 22q-72 0 -102.5 -24.5t-30.5 -63.5q0 -42 29.5 -63.5t85.5 -21.5q34 0 63.5 9.5t52 26.5t35.5 40.5t13 52.5v22zM418 621h-78l-74 154l81 39zM275 621h-82l-80 124l80 44z" />
    <glyph glyph-name="omacron" unicode="&#x14d;" horiz-adv-x="650" 
d="M325 522q61 0 112 -19.5t88 -55t57 -84.5t20 -108q0 -57 -21 -106t-57.5 -85t-87.5 -56t-111 -20q-62 0 -113 19.5t-87.5 55t-56.5 84.5t-20 108q0 57 20.5 106t57 85t87.5 56t112 20zM325 439q-41 0 -74.5 -13.5t-57 -38t-36 -58.5t-12.5 -74q0 -41 13 -75t36.5 -58
t56.5 -37.5t74 -13.5q42 0 75 13.5t56.5 37.5t36 58t12.5 75q0 40 -13 73.5t-36.5 58t-56.5 38.5t-74 14zM488 716v-82h-327v82h327z" />
    <glyph glyph-name="dieresisi" horiz-adv-x="330" 
d="M73 735q26 0 44.5 -17t18.5 -45q0 -27 -18.5 -44.5t-44.5 -17.5t-44.5 17.5t-18.5 44.5q0 28 18.5 45t44.5 17zM257 735q26 0 44.5 -17.5t18.5 -44.5t-18.5 -44.5t-44.5 -17.5t-44.5 17t-18.5 45t18.5 45t44.5 17z" />
    <glyph glyph-name="macroni" horiz-adv-x="338" 
d="M296 716v-82h-253v82h253z" />
    <glyph glyph-name="Dieresisi" horiz-adv-x="396" 
d="M95 902q27 0 47 -18.5t20 -48.5q0 -28 -20 -45.5t-47 -17.5q-26 0 -46 17.5t-20 45.5q0 30 20 48.5t46 18.5zM300 902q27 0 47 -18.5t20 -48.5q0 -28 -20 -45.5t-47 -17.5q-26 0 -46 17.5t-20 45.5q0 30 20 48.5t46 18.5z" />
    <glyph glyph-name="Macroni" horiz-adv-x="403" 
d="M353 877v-86h-304v86h304z" />
    <glyph glyph-name="eogonek" unicode="&#x119;" horiz-adv-x="612" 
d="M146 222q8 -71 55 -110t125 -39q53 0 96.5 13.5t83.5 42.5l44 -69q-32 -21 -44 -41.5t-12 -44.5q0 -64 75 -75l-13 -69q-35 1 -61.5 12t-44.5 27.5t-27.5 38t-9.5 45.5q0 25 9 45q-23 -5 -47.5 -7.5t-50.5 -2.5q-65 0 -116 18.5t-86.5 53t-54.5 83.5t-19 111q0 58 20 107
t56 85t87 56t113 20q54 0 98 -17t75.5 -48.5t49 -75.5t17.5 -97q0 -16 -2 -31.5t-5 -30.5h-411zM466 302q-1 62 -37 99t-109 37t-116 -36.5t-54 -99.5h316z" />
    <glyph glyph-name="aring" unicode="&#xe5;" horiz-adv-x="623" 
d="M79 463q51 32 102 45.5t108 13.5q119 0 174 -54.5t55 -150.5v-187q0 -32 11 -45.5t29 -13.5q11 0 21 4l9 -74q-21 -10 -51 -10q-38 0 -63.5 18.5t-33.5 67.5q-64 -89 -198 -89q-91 0 -143.5 43.5t-52.5 126.5q0 77 61 121t167 44q42 0 79.5 -7t69.5 -18v28q0 55 -32 83
t-100 28q-91 0 -173 -44zM424 222q-64 22 -146 22q-72 0 -102.5 -24.5t-30.5 -63.5q0 -42 29.5 -63.5t85.5 -21.5q34 0 63.5 9.5t52 26.5t35.5 40.5t13 52.5v22zM299 816q27 0 49 -9.5t37 -25t23.5 -35.5t8.5 -42q0 -23 -8.5 -43t-23.5 -36t-37 -25t-49 -9q-28 0 -50 9
t-37 25t-23 36t-8 43q0 22 8.5 42t23.5 35.5t37 25t49 9.5zM299 755q-26 0 -39 -15t-13 -36q0 -23 13.5 -37.5t38.5 -14.5t39 14.5t14 37.5q0 22 -14.5 36.5t-38.5 14.5z" />
    <glyph glyph-name="ntilde" unicode="&#xf1;" 
d="M150 510l10 -106q26 56 75.5 87t118.5 31q98 0 156 -56.5t58 -164.5v-301h-97v290q0 75 -33.5 111.5t-95.5 36.5t-106.5 -40.5t-65.5 -111.5v-286h-97v510h77zM143 662q21 35 51.5 54.5t71.5 19.5q24 0 40.5 -7.5t30.5 -16.5t28.5 -16.5t34.5 -7.5q23 0 40.5 9.5
t29.5 25.5l47 -48q-17 -32 -44.5 -51t-68.5 -19q-24 0 -42.5 8t-34 17t-31 17t-34.5 8q-26 0 -43.5 -9.5t-31.5 -27.5z" />
    <glyph glyph-name="Acute" horiz-adv-x="159" 
d="M195 931l-84 -159h-90l88 202z" />
    <glyph glyph-name="Breve" horiz-adv-x="373" 
d="M112 917q2 -37 24 -57t55 -20t55.5 19.5t24.5 57.5h78q-1 -34 -12.5 -62.5t-32 -49.5t-49.5 -32.5t-64 -11.5t-64 11.5t-49 32.5t-31.5 49.5t-12.5 62.5h78z" />
    <glyph glyph-name="Caron" horiz-adv-x="347" 
d="M161 747l-136 129v10l49 50l100 -87l99 87l48 -50v-10l-136 -129h-24z" />
    <glyph glyph-name="Cedilla" horiz-adv-x="267" 
d="M162 14l-7 -70q32 -11 51.5 -37.5t19.5 -63.5q0 -59 -40.5 -101t-121.5 -61l-26 63q52 14 78 39t26 54q0 28 -23 40t-61 14v23l21 39v61h83z" />
    <glyph glyph-name="Commaaccent" horiz-adv-x="223" 
d="M86 -199q-18 6 -29.5 21.5t-11.5 37.5q0 29 19 47.5t47 18.5q27 0 47 -17.5t20 -46.5q0 -9 -2 -16.5t-4 -13.5l-56 -138l-58 20z" />
    <glyph glyph-name="Circumflex" horiz-adv-x="347" 
d="M185 935l136 -129v-10l-48 -50l-100 87l-99 -87l-49 50v10l137 129h23z" />
    <glyph glyph-name="Dieresis" horiz-adv-x="462" 
d="M103 902q28 0 48.5 -19t20.5 -50q0 -28 -20.5 -46.5t-48.5 -18.5q-27 0 -47 18.5t-20 46.5q0 31 20 50t47 19zM358 902q28 0 48.5 -19t20.5 -50q0 -28 -20.5 -46.5t-48.5 -18.5q-27 0 -47 18.5t-20 46.5q0 31 20 50t47 19z" />
    <glyph glyph-name="Dotaccent" horiz-adv-x="351" 
d="M175 910q28 0 48.5 -19t20.5 -49t-20.5 -49t-48.5 -19t-48 19t-20 49t20 49t48 19z" />
    <glyph glyph-name="Hungarumlaut" horiz-adv-x="304" 
d="M184 943l-66 -171h-84l65 204zM346 911l-84 -139h-84l86 182z" />
    <glyph glyph-name="Grave" horiz-adv-x="159" 
d="M37 974l88 -202h-90l-85 159z" />
    <glyph glyph-name="Dblgrave" horiz-adv-x="308" 
d="M269 772h-84l-66 171l84 33zM124 772h-84l-84 139l83 43z" />
    <glyph glyph-name="Macron" horiz-adv-x="475" 
d="M430 877v-84h-385v84h385z" />
    <glyph glyph-name="Ogonek" horiz-adv-x="252" 
d="M193 -203q-72 5 -108 40.5t-36 85.5q0 41 19 71t56 45l51 -39q-23 -4 -33 -22t-10 -36q0 -30 17 -48.5t57 -23.5z" />
    <glyph glyph-name="Ring" horiz-adv-x="299" 
d="M149 986q28 0 51.5 -10t40 -27t25.5 -38.5t9 -45.5t-9 -46t-25.5 -38.5t-40 -26.5t-51.5 -10q-29 0 -52.5 10t-40 26.5t-25 38.5t-8.5 46t9 45.5t25.5 38.5t40 27t51.5 10zM149 918q-25 0 -39 -15t-14 -38t14.5 -38t38.5 -15t39 15t15 38t-15 38t-39 15z" />
    <glyph glyph-name="Tilde" horiz-adv-x="422" 
d="M18 817q20 38 52 59.5t74 21.5q24 0 42 -8t33 -17t30 -17t34 -8q26 0 42 9.5t27 27.5l52 -47q-17 -37 -47.5 -56t-68.5 -19q-27 0 -46 8t-34.5 17.5t-31 17.5t-35.5 8q-27 0 -44.5 -11t-30.5 -29z" />
    <glyph glyph-name="Oacute" unicode="&#xd3;" horiz-adv-x="811" 
d="M405 684q79 0 144 -26.5t111 -73.5t71.5 -111t25.5 -138q0 -72 -25.5 -135.5t-72 -111t-111 -75t-143.5 -27.5t-143.5 27t-111 74.5t-72 111t-25.5 136.5t26 136.5t72.5 110.5t111 74.5t142.5 27.5zM405 595q-59 0 -105.5 -20t-78.5 -55t-49 -82.5t-17 -102.5
t17.5 -102.5t49.5 -82.5t78.5 -55t104.5 -20q59 0 105.5 19.5t79 54.5t49.5 82.5t17 103.5q0 57 -17.5 104.5t-49.5 82t-79 54t-105 19.5zM547 931l-84 -159h-90l88 202z" />
    <glyph glyph-name="Obreve" unicode="&#x14e;" horiz-adv-x="811" 
d="M405 684q79 0 144 -26.5t111 -73.5t71.5 -111t25.5 -138q0 -72 -25.5 -135.5t-72 -111t-111 -75t-143.5 -27.5t-143.5 27t-111 74.5t-72 111t-25.5 136.5t26 136.5t72.5 110.5t111 74.5t142.5 27.5zM405 595q-59 0 -105.5 -20t-78.5 -55t-49 -82.5t-17 -102.5
t17.5 -102.5t49.5 -82.5t78.5 -55t104.5 -20q59 0 105.5 19.5t79 54.5t49.5 82.5t17 103.5q0 57 -17.5 104.5t-49.5 82t-79 54t-105 19.5zM325 917q2 -37 24 -57t55 -20t55.5 19.5t24.5 57.5h78q-1 -34 -12.5 -62.5t-32 -49.5t-49.5 -32.5t-64 -11.5t-64 11.5t-49 32.5
t-31.5 49.5t-12.5 62.5h78z" />
    <glyph glyph-name="Scaron" unicode="&#x160;" horiz-adv-x="653" 
d="M525 532q-41 30 -92 46.5t-106 16.5q-81 0 -117 -27t-36 -72t27.5 -67.5t88.5 -30.5l100 -14q102 -15 155.5 -63t53.5 -130q0 -45 -18 -82.5t-53.5 -64.5t-88.5 -42.5t-123 -15.5q-78 0 -142 17.5t-122 60.5l48 81q55 -38 109.5 -54t114.5 -16q87 0 130.5 31t43.5 82
q0 42 -29 68.5t-96 35.5l-105 15q-95 13 -144.5 58t-49.5 127q0 47 18.5 83t51.5 60t79.5 36.5t102.5 12.5q69 0 135.5 -19t115.5 -59zM317 747l-136 129v10l49 50l100 -87l99 87l48 -50v-10l-136 -129h-24z" />
    <glyph glyph-name="Scedilla" unicode="&#x15e;" horiz-adv-x="653" 
d="M525 532q-41 30 -92 46.5t-106 16.5q-81 0 -117 -27t-36 -72t27.5 -67.5t88.5 -30.5l100 -14q102 -15 155.5 -63t53.5 -130q0 -42 -16 -77.5t-47 -62t-77.5 -43.5t-107.5 -21l-3 -43q32 -11 51.5 -37.5t19.5 -63.5q0 -59 -40.5 -101t-121.5 -61l-26 63q52 14 78 39t26 54
q0 28 -23 40t-61 14v23l21 39v35q-63 4 -116.5 21.5t-103.5 54.5l48 81q55 -38 109.5 -54t114.5 -16q87 0 130.5 31t43.5 82q0 42 -29 68.5t-96 35.5l-105 15q-95 13 -144.5 58t-49.5 127q0 47 18.5 83t51.5 60t79.5 36.5t102.5 12.5q69 0 135.5 -19t115.5 -59z" />
    <glyph glyph-name="Scircumflex" unicode="&#x15c;" horiz-adv-x="653" 
d="M525 532q-41 30 -92 46.5t-106 16.5q-81 0 -117 -27t-36 -72t27.5 -67.5t88.5 -30.5l100 -14q102 -15 155.5 -63t53.5 -130q0 -45 -18 -82.5t-53.5 -64.5t-88.5 -42.5t-123 -15.5q-78 0 -142 17.5t-122 60.5l48 81q55 -38 109.5 -54t114.5 -16q87 0 130.5 31t43.5 82
q0 42 -29 68.5t-96 35.5l-105 15q-95 13 -144.5 58t-49.5 127q0 47 18.5 83t51.5 60t79.5 36.5t102.5 12.5q69 0 135.5 -19t115.5 -59zM342 935l136 -129v-10l-48 -50l-100 87l-99 -87l-49 50v10l137 129h23z" />
    <glyph glyph-name="Scommaaccent" unicode="&#x218;" horiz-adv-x="653" 
d="M525 532q-41 30 -92 46.5t-106 16.5q-81 0 -117 -27t-36 -72t27.5 -67.5t88.5 -30.5l100 -14q102 -15 155.5 -63t53.5 -130q0 -45 -18 -82.5t-53.5 -64.5t-88.5 -42.5t-123 -15.5q-78 0 -142 17.5t-122 60.5l48 81q55 -38 109.5 -54t114.5 -16q87 0 130.5 31t43.5 82
q0 42 -29 68.5t-96 35.5l-105 15q-95 13 -144.5 58t-49.5 127q0 47 18.5 83t51.5 60t79.5 36.5t102.5 12.5q69 0 135.5 -19t115.5 -59zM297 -199q-18 6 -29.5 21.5t-11.5 37.5q0 29 19 47.5t47 18.5q27 0 47 -17.5t20 -46.5q0 -9 -2 -16.5t-4 -13.5l-56 -138l-58 20z" />
    <glyph glyph-name="Odieresis" unicode="&#xd6;" horiz-adv-x="811" 
d="M405 684q79 0 144 -26.5t111 -73.5t71.5 -111t25.5 -138q0 -72 -25.5 -135.5t-72 -111t-111 -75t-143.5 -27.5t-143.5 27t-111 74.5t-72 111t-25.5 136.5t26 136.5t72.5 110.5t111 74.5t142.5 27.5zM405 595q-59 0 -105.5 -20t-78.5 -55t-49 -82.5t-17 -102.5
t17.5 -102.5t49.5 -82.5t78.5 -55t104.5 -20q59 0 105.5 19.5t79 54.5t49.5 82.5t17 103.5q0 57 -17.5 104.5t-49.5 82t-79 54t-105 19.5zM277 902q28 0 48.5 -19t20.5 -50q0 -28 -20.5 -46.5t-48.5 -18.5q-27 0 -47 18.5t-20 46.5q0 31 20 50t47 19zM532 902q28 0 48.5 -19
t20.5 -50q0 -28 -20.5 -46.5t-48.5 -18.5q-27 0 -47 18.5t-20 46.5q0 31 20 50t47 19z" />
    <glyph glyph-name="Edieresis" unicode="&#xcb;" 
d="M565 670v-89h-382v-189h336v-88h-336v-214h400v-90h-500v670h482zM204 902q28 0 48.5 -19t20.5 -50q0 -28 -20.5 -46.5t-48.5 -18.5q-27 0 -47 18.5t-20 46.5q0 31 20 50t47 19zM459 902q28 0 48.5 -19t20.5 -50q0 -28 -20.5 -46.5t-48.5 -18.5q-27 0 -47 18.5t-20 46.5
q0 31 20 50t47 19z" />
    <glyph glyph-name="Idotaccent" unicode="&#x130;" horiz-adv-x="269" 
d="M186 670v-670h-103v670h103zM135 910q28 0 48.5 -19t20.5 -49t-20.5 -49t-48.5 -19t-48 19t-20 49t20 49t48 19z" />
    <glyph glyph-name="Ohungarumlaut" unicode="&#x150;" horiz-adv-x="811" 
d="M405 684q79 0 144 -26.5t111 -73.5t71.5 -111t25.5 -138q0 -72 -25.5 -135.5t-72 -111t-111 -75t-143.5 -27.5t-143.5 27t-111 74.5t-72 111t-25.5 136.5t26 136.5t72.5 110.5t111 74.5t142.5 27.5zM405 595q-59 0 -105.5 -20t-78.5 -55t-49 -82.5t-17 -102.5
t17.5 -102.5t49.5 -82.5t78.5 -55t104.5 -20q59 0 105.5 19.5t79 54.5t49.5 82.5t17 103.5q0 57 -17.5 104.5t-49.5 82t-79 54t-105 19.5zM451 943l-66 -171h-84l65 204zM613 911l-84 -139h-84l86 182z" />
    <glyph glyph-name="Rdblgrave" unicode="&#x210;" horiz-adv-x="686" 
d="M372 670q55 0 101 -16t79 -45.5t51 -70.5t18 -90q0 -73 -42 -125t-111 -75l175 -248h-124l-150 224h-183v-224h-103v670h289zM186 312h175q72 0 114.5 36t42.5 100q0 67 -42 100.5t-111 33.5h-179v-270zM446 772h-84l-66 171l84 33zM301 772h-84l-84 139l83 43z" />
    <glyph glyph-name="Emacron" unicode="&#x112;" 
d="M565 670v-89h-382v-189h336v-88h-336v-214h400v-90h-500v670h482zM523 877v-84h-385v84h385z" />
    <glyph glyph-name="aogonek" unicode="&#x105;" horiz-adv-x="623" 
d="M79 464q52 31 103 44.5t108 13.5q119 0 174 -54.5t55 -150.5v-187q0 -32 11 -45.5t29 -13.5q6 0 11 1t9 2l9 -73q-32 -1 -49.5 -19t-17.5 -44q0 -28 18.5 -47t56.5 -24l-13 -70q-34 1 -60.5 12.5t-45 28.5t-28 39t-9.5 46q0 26 9.5 48.5t29.5 39.5q-17 9 -26.5 24.5
t-12.5 41.5q-62 -89 -197 -89q-91 0 -143.5 43.5t-52.5 126.5q0 77 60.5 121t166.5 44q43 0 80.5 -7t69.5 -18v28q0 111 -132 111q-90 0 -174 -44zM425 222q-62 22 -147 22q-71 0 -101.5 -24.5t-30.5 -63.5q0 -42 29.5 -63.5t85.5 -21.5q34 0 63.5 9.5t52 26.5t35.5 40.5
t13 52.5v22z" />
    <glyph glyph-name="Eogonek" unicode="&#x118;" 
d="M565 670v-89h-382v-189h336v-88h-336v-214h400v-90h-17q-22 0 -34.5 -15.5t-12.5 -38.5q0 -29 18 -48.5t56 -24.5l-13 -72q-74 4 -109 39.5t-35 86.5q0 22 6 40.5t19 32.5h-378v670h482z" />
    <glyph glyph-name="Aring" unicode="&#xc5;" horiz-adv-x="762" 
d="M440 671l281 -671h-112l-60 152h-339l-59 -152h-109l279 671h119zM244 240h271l-129 328h-12zM380 986q28 0 51.5 -10t40 -27t25.5 -38.5t9 -45.5t-9 -46t-25.5 -38.5t-40 -26.5t-51.5 -10q-29 0 -52.5 10t-40 26.5t-25 38.5t-8.5 46t9 45.5t25.5 38.5t40 27t51.5 10z
M380 918q-25 0 -39 -15t-14 -38t14.5 -38t38.5 -15t39 15t15 38t-15 38t-39 15z" />
    <glyph glyph-name="Ntilde" unicode="&#xd1;" horiz-adv-x="752" 
d="M669 670v-670h-100l-388 508v-508h-98v670h91l398 -521v521h97zM183 817q20 38 52 59.5t74 21.5q24 0 42 -8t33 -17t30 -17t34 -8q26 0 42 9.5t27 27.5l52 -47q-17 -37 -47.5 -56t-68.5 -19q-27 0 -46 8t-34.5 17.5t-31 17.5t-35.5 8q-27 0 -44.5 -11t-30.5 -29z" />
    <glyph glyph-name="itilde" unicode="&#x129;" horiz-adv-x="246" 
d="M173 510v-510h-100v510h100zM-26 663q16 32 39.5 50t55.5 18q24 0 38.5 -6.5t26 -14l21.5 -13.5t25 -6q34 0 50 24l45 -46q-14 -29 -36.5 -45.5t-51.5 -16.5q-23 0 -38 6.5t-27 14l-22.5 14t-25.5 6.5q-35 0 -54 -27z" />
    <glyph glyph-name="tildei" horiz-adv-x="312" 
d="M2 663q16 32 39.5 50t55.5 18q24 0 38.5 -6.5t26 -14l21.5 -13.5t25 -6q34 0 50 24l45 -46q-14 -29 -36.5 -45.5t-51.5 -16.5q-23 0 -38 6.5t-27 14l-22.5 14t-25.5 6.5q-35 0 -54 -27z" />
    <glyph glyph-name="Tildei" horiz-adv-x="355" 
d="M-4 830q16 32 42 49.5t63 17.5q24 0 39 -7.5t27 -16t24 -16t29 -7.5q37 0 54 25l48 -50q-34 -61 -99 -61q-25 0 -40.5 7.5t-28 16.5t-24 16.5t-29.5 7.5q-40 0 -61 -30z" />
    <glyph glyph-name="Aacute" unicode="&#xc1;" horiz-adv-x="762" 
d="M440 671l281 -671h-112l-60 152h-339l-59 -152h-109l279 671h119zM244 240h271l-129 328h-12zM527 931l-84 -159h-90l88 202z" />
    <glyph glyph-name="Abreve" unicode="&#x102;" horiz-adv-x="762" 
d="M440 671l281 -671h-112l-60 152h-339l-59 -152h-109l279 671h119zM244 240h271l-129 328h-12zM301 917q2 -37 24 -57t55 -20t55.5 19.5t24.5 57.5h78q-1 -34 -12.5 -62.5t-32 -49.5t-49.5 -32.5t-64 -11.5t-64 11.5t-49 32.5t-31.5 49.5t-12.5 62.5h78z" />
    <glyph glyph-name="Acircumflex" unicode="&#xc2;" horiz-adv-x="762" 
d="M440 671l281 -671h-112l-60 152h-339l-59 -152h-109l279 671h119zM244 240h271l-129 328h-12zM392 935l136 -129v-10l-48 -50l-100 87l-99 -87l-49 50v10l137 129h23z" />
    <glyph glyph-name="Agrave" unicode="&#xc0;" horiz-adv-x="762" 
d="M440 671l281 -671h-112l-60 152h-339l-59 -152h-109l279 671h119zM244 240h271l-129 328h-12zM322 974l88 -202h-90l-85 159z" />
    <glyph glyph-name="Adieresis" unicode="&#xc4;" horiz-adv-x="762" 
d="M440 671l281 -671h-112l-60 152h-339l-59 -152h-109l279 671h119zM244 240h271l-129 328h-12zM252 902q28 0 48.5 -19t20.5 -50q0 -28 -20.5 -46.5t-48.5 -18.5q-27 0 -47 18.5t-20 46.5q0 31 20 50t47 19zM507 902q28 0 48.5 -19t20.5 -50q0 -28 -20.5 -46.5
t-48.5 -18.5q-27 0 -47 18.5t-20 46.5q0 31 20 50t47 19z" />
    <glyph glyph-name="Amacron" unicode="&#x100;" horiz-adv-x="762" 
d="M440 671l281 -671h-112l-60 152h-339l-59 -152h-109l279 671h119zM244 240h271l-129 328h-12zM573 877v-84h-385v84h385z" />
    <glyph glyph-name="Aogonek" unicode="&#x104;" horiz-adv-x="762" 
d="M440 671l277 -661v-10h-16q-22 0 -34.5 -15t-12.5 -38q0 -31 18 -50.5t56 -24.5l-13 -71q-72 4 -108 40.5t-36 85.5q0 26 9 48.5t25 34.5l-56 142h-339l-59 -152h-109l279 671h119zM244 240h271l-129 328h-12z" />
    <glyph glyph-name="Atilde" unicode="&#xc3;" horiz-adv-x="762" 
d="M440 671l281 -671h-112l-60 152h-339l-59 -152h-109l279 671h119zM244 240h271l-129 328h-12zM188 817q20 38 52 59.5t74 21.5q24 0 42 -8t33 -17t30 -17t34 -8q26 0 42 9.5t27 27.5l52 -47q-17 -37 -47.5 -56t-68.5 -19q-27 0 -46 8t-34.5 17.5t-31 17.5t-35.5 8
q-27 0 -44.5 -11t-30.5 -29z" />
    <glyph glyph-name="Cacute" unicode="&#x106;" horiz-adv-x="727" 
d="M617 523q-84 70 -205 70q-58 0 -105.5 -18t-81 -52t-52 -81.5t-18.5 -106.5q0 -60 19 -108t53 -81t80.5 -51t101.5 -18q64 0 118.5 21.5t99.5 61.5l57 -70q-108 -104 -280 -104q-78 0 -142.5 24t-111 69t-72 109t-25.5 145q0 74 25.5 138t73 111.5t115.5 74.5t154 27
q72 0 136.5 -23.5t112.5 -65.5zM536 931l-84 -159h-90l88 202z" />
    <glyph glyph-name="Ccaron" unicode="&#x10c;" horiz-adv-x="727" 
d="M617 523q-84 70 -205 70q-58 0 -105.5 -18t-81 -52t-52 -81.5t-18.5 -106.5q0 -60 19 -108t53 -81t80.5 -51t101.5 -18q64 0 118.5 21.5t99.5 61.5l57 -70q-108 -104 -280 -104q-78 0 -142.5 24t-111 69t-72 109t-25.5 145q0 74 25.5 138t73 111.5t115.5 74.5t154 27
q72 0 136.5 -23.5t112.5 -65.5zM399 747l-136 129v10l49 50l100 -87l99 87l48 -50v-10l-136 -129h-24z" />
    <glyph glyph-name="Ccedilla" unicode="&#xc7;" horiz-adv-x="727" 
d="M617 523q-84 70 -205 70q-58 0 -105.5 -18t-81 -52t-52 -81.5t-18.5 -106.5q0 -60 19 -108t53 -81t80.5 -51t101.5 -18q64 0 118.5 21.5t99.5 61.5l57 -70q-52 -51 -116 -75.5t-144 -27.5l-4 -43q33 -11 52 -37.5t19 -63.5q0 -59 -40.5 -101t-121.5 -61l-26 63
q53 14 78.5 39t25.5 54q0 28 -22.5 40t-60.5 14v23l20 39v37q-66 9 -119.5 36t-91.5 71t-59 103.5t-21 132.5q0 74 25.5 138t73 111.5t115.5 74.5t154 27q72 0 136.5 -23.5t112.5 -65.5z" />
    <glyph glyph-name="Ccircumflex" unicode="&#x108;" horiz-adv-x="727" 
d="M617 523q-84 70 -205 70q-58 0 -105.5 -18t-81 -52t-52 -81.5t-18.5 -106.5q0 -60 19 -108t53 -81t80.5 -51t101.5 -18q64 0 118.5 21.5t99.5 61.5l57 -70q-108 -104 -280 -104q-78 0 -142.5 24t-111 69t-72 109t-25.5 145q0 74 25.5 138t73 111.5t115.5 74.5t154 27
q72 0 136.5 -23.5t112.5 -65.5zM426 935l136 -129v-10l-48 -50l-100 87l-99 -87l-49 50v10l137 129h23z" />
    <glyph glyph-name="Cdotaccent" unicode="&#x10a;" horiz-adv-x="727" 
d="M617 523q-84 70 -205 70q-58 0 -105.5 -18t-81 -52t-52 -81.5t-18.5 -106.5q0 -60 19 -108t53 -81t80.5 -51t101.5 -18q64 0 118.5 21.5t99.5 61.5l57 -70q-108 -104 -280 -104q-78 0 -142.5 24t-111 69t-72 109t-25.5 145q0 74 25.5 138t73 111.5t115.5 74.5t154 27
q72 0 136.5 -23.5t112.5 -65.5zM416 910q28 0 48.5 -19t20.5 -49t-20.5 -49t-48.5 -19t-48 19t-20 49t20 49t48 19z" />
    <glyph glyph-name="Dcaron" unicode="&#x10e;" horiz-adv-x="728" 
d="M320 670q82 0 147.5 -24.5t111.5 -69t71 -106t25 -135.5q0 -73 -25.5 -134.5t-72.5 -106t-113 -69.5t-147 -25h-234v670h237zM184 89h133q55 0 102.5 17t81.5 49t53.5 77.5t19.5 102.5q0 120 -68.5 183t-189.5 63h-132v-492zM315 747l-136 129v10l49 50l100 -87l99 87
l48 -50v-10l-136 -129h-24z" />
    <glyph glyph-name="Eacute" unicode="&#xc9;" 
d="M565 670v-89h-382v-189h336v-88h-336v-214h400v-90h-500v670h482zM462 931l-84 -159h-90l88 202z" />
    <glyph glyph-name="Ebreve" unicode="&#x114;" 
d="M565 670v-89h-382v-189h336v-88h-336v-214h400v-90h-500v670h482zM257 917q2 -37 24 -57t55 -20t55.5 19.5t24.5 57.5h78q-1 -34 -12.5 -62.5t-32 -49.5t-49.5 -32.5t-64 -11.5t-64 11.5t-49 32.5t-31.5 49.5t-12.5 62.5h78z" />
    <glyph glyph-name="Ecaron" unicode="&#x11a;" 
d="M565 670v-89h-382v-189h336v-88h-336v-214h400v-90h-500v670h482zM321 747l-136 129v10l49 50l100 -87l99 87l48 -50v-10l-136 -129h-24z" />
    <glyph glyph-name="Ecircumflex" unicode="&#xca;" 
d="M565 670v-89h-382v-189h336v-88h-336v-214h400v-90h-500v670h482zM346 935l136 -129v-10l-48 -50l-100 87l-99 -87l-49 50v10l137 129h23z" />
    <glyph glyph-name="Edotaccent" unicode="&#x116;" 
d="M565 670v-89h-382v-189h336v-88h-336v-214h400v-90h-500v670h482zM335 910q28 0 48.5 -19t20.5 -49t-20.5 -49t-48.5 -19t-48 19t-20 49t20 49t48 19z" />
    <glyph glyph-name="Egrave" unicode="&#xc8;" 
d="M565 670v-89h-382v-189h336v-88h-336v-214h400v-90h-500v670h482zM297 974l88 -202h-90l-85 159z" />
    <glyph glyph-name="Gbreve" unicode="&#x11e;" horiz-adv-x="740" 
d="M677 359v-281q-52 -45 -121.5 -68.5t-149.5 -23.5q-79 0 -144 24t-111.5 69t-72 109t-25.5 145q0 73 25 137t71.5 111.5t114 75t153.5 27.5q68 0 131 -21t113 -63l-54 -73q-38 33 -88.5 49.5t-106.5 16.5q-58 0 -105.5 -18t-81 -52t-52 -81.5t-18.5 -106.5q0 -61 19 -109
t53 -81t80.5 -50.5t102.5 -17.5q103 0 170 47v146l-147 7v82h244zM332 917q2 -37 24 -57t55 -20t55.5 19.5t24.5 57.5h78q-1 -34 -12.5 -62.5t-32 -49.5t-49.5 -32.5t-64 -11.5t-64 11.5t-49 32.5t-31.5 49.5t-12.5 62.5h78z" />
    <glyph glyph-name="Gcircumflex" unicode="&#x11c;" horiz-adv-x="740" 
d="M677 359v-281q-52 -45 -121.5 -68.5t-149.5 -23.5q-79 0 -144 24t-111.5 69t-72 109t-25.5 145q0 73 25 137t71.5 111.5t114 75t153.5 27.5q68 0 131 -21t113 -63l-54 -73q-38 33 -88.5 49.5t-106.5 16.5q-58 0 -105.5 -18t-81 -52t-52 -81.5t-18.5 -106.5q0 -61 19 -109
t53 -81t80.5 -50.5t102.5 -17.5q103 0 170 47v146l-147 7v82h244zM422 935l136 -129v-10l-48 -50l-100 87l-99 -87l-49 50v10l137 129h23z" />
    <glyph glyph-name="Gcommaaccent" unicode="&#x122;" horiz-adv-x="740" 
d="M677 359v-281q-52 -45 -121.5 -68.5t-149.5 -23.5q-79 0 -144 24t-111.5 69t-72 109t-25.5 145q0 73 25 137t71.5 111.5t114 75t153.5 27.5q68 0 131 -21t113 -63l-54 -73q-38 33 -88.5 49.5t-106.5 16.5q-58 0 -105.5 -18t-81 -52t-52 -81.5t-18.5 -106.5q0 -61 19 -109
t53 -81t80.5 -50.5t102.5 -17.5q103 0 170 47v146l-147 7v82h244zM380 -199q-18 6 -29.5 21.5t-11.5 37.5q0 29 19 47.5t47 18.5q27 0 47 -17.5t20 -46.5q0 -9 -2 -16.5t-4 -13.5l-56 -138l-58 20z" />
    <glyph glyph-name="Gdotaccent" unicode="&#x120;" horiz-adv-x="740" 
d="M677 359v-281q-52 -45 -121.5 -68.5t-149.5 -23.5q-79 0 -144 24t-111.5 69t-72 109t-25.5 145q0 73 25 137t71.5 111.5t114 75t153.5 27.5q68 0 131 -21t113 -63l-54 -73q-38 33 -88.5 49.5t-106.5 16.5q-58 0 -105.5 -18t-81 -52t-52 -81.5t-18.5 -106.5q0 -61 19 -109
t53 -81t80.5 -50.5t102.5 -17.5q103 0 170 47v146l-147 7v82h244zM412 910q28 0 48.5 -19t20.5 -49t-20.5 -49t-48.5 -19t-48 19t-20 49t20 49t48 19z" />
    <glyph glyph-name="Hcircumflex" unicode="&#x124;" horiz-adv-x="732" 
d="M186 670v-282h360v282h102v-670h-102v297h-360v-297h-103v670h103zM377 935l136 -129v-10l-48 -50l-100 87l-99 -87l-49 50v10l137 129h23z" />
    <glyph glyph-name="Iacute" unicode="&#xcd;" horiz-adv-x="269" 
d="M186 670v-670h-103v670h103zM271 931l-84 -159h-90l88 202z" />
    <glyph glyph-name="Ibreve" unicode="&#x12c;" horiz-adv-x="269" 
d="M186 670v-670h-103v670h103zM56 917q2 -37 24 -57t55 -20t55.5 19.5t24.5 57.5h78q-1 -34 -12.5 -62.5t-32 -49.5t-49.5 -32.5t-64 -11.5t-64 11.5t-49 32.5t-31.5 49.5t-12.5 62.5h78z" />
    <glyph glyph-name="Icircumflex" unicode="&#xce;" horiz-adv-x="269" 
d="M186 670v-670h-103v670h103zM148 935l136 -129v-10l-48 -50l-100 87l-99 -87l-49 50v10l137 129h23z" />
    <glyph glyph-name="Idieresis" unicode="&#xcf;" horiz-adv-x="269" 
d="M186 670v-670h-103v670h103zM33 902q27 0 47 -18.5t20 -48.5q0 -28 -20 -45.5t-47 -17.5q-26 0 -46 17.5t-20 45.5q0 30 20 48.5t46 18.5zM238 902q27 0 47 -18.5t20 -48.5q0 -28 -20 -45.5t-47 -17.5q-26 0 -46 17.5t-20 45.5q0 30 20 48.5t46 18.5z" />
    <glyph glyph-name="Igrave" unicode="&#xcc;" horiz-adv-x="269" 
d="M186 670v-670h-103v670h103zM93 974l88 -202h-90l-85 159z" />
    <glyph glyph-name="Imacron" unicode="&#x12a;" horiz-adv-x="269" 
d="M186 670v-670h-103v670h103zM288 877v-86h-304v86h304z" />
    <glyph glyph-name="Iogonek" unicode="&#x12e;" horiz-adv-x="269" 
d="M186 670v-670h-15q-18 0 -30 -15t-12 -38q0 -32 17.5 -50t56.5 -23l-13 -72q-72 5 -108 40t-36 85q0 59 37 92v651h103z" />
    <glyph glyph-name="Itilde" unicode="&#x128;" horiz-adv-x="269" 
d="M186 670v-670h-103v670h103zM-23 830q16 32 42 49.5t63 17.5q24 0 39 -7.5t27 -16t24 -16t29 -7.5q37 0 54 25l48 -50q-34 -61 -99 -61q-25 0 -40.5 7.5t-28 16.5t-24 16.5t-29.5 7.5q-40 0 -61 -30z" />
    <glyph glyph-name="Jcircumflex" unicode="&#x134;" horiz-adv-x="540" 
d="M457 670v-427q0 -123 -57.5 -190t-171.5 -67q-54 0 -99.5 12.5t-90.5 46.5l46 78q37 -26 71.5 -36.5t72.5 -10.5q54 0 90.5 37t36.5 118v439h102zM416 935l136 -129v-10l-48 -50l-100 87l-99 -87l-49 50v10l137 129h23z" />
    <glyph glyph-name="Kcommaaccent" unicode="&#x136;" horiz-adv-x="703" 
d="M183 670v-275l104 8l218 267h126l-261 -310l286 -360h-130l-237 312h-106v-312h-100v670h100zM317 -179q-18 6 -29.5 21.5t-11.5 37.5q0 29 19 47.5t47 18.5q27 0 47 -17.5t20 -46.5q0 -9 -2 -16.5t-4 -13.5l-56 -138l-58 20z" />
    <glyph glyph-name="Lacute" unicode="&#x139;" horiz-adv-x="619" 
d="M185 670v-580h386v-90h-488v670h102zM281 931l-84 -159h-90l88 202z" />
    <glyph glyph-name="Lcaron" unicode="&#x13d;" horiz-adv-x="619" 
d="M185 670v-580h386v-90h-488v670h102zM461 467q-18 6 -29.5 21.5t-11.5 37.5q0 29 19 47.5t47 18.5q27 0 47 -17.5t20 -46.5q0 -9 -2 -16.5t-4 -13.5l-56 -138l-58 20z" />
    <glyph glyph-name="Lcommaaccent" unicode="&#x13b;" horiz-adv-x="619" 
d="M185 670v-580h386v-90h-488v670h102zM311 -199q-18 6 -29.5 21.5t-11.5 37.5q0 29 19 47.5t47 18.5q27 0 47 -17.5t20 -46.5q0 -9 -2 -16.5t-4 -13.5l-56 -138l-58 20z" />
    <glyph glyph-name="Ldot" unicode="&#x13f;" horiz-adv-x="619" 
d="M185 670v-580h386v-90h-488v670h102zM457 477q28 0 48.5 -19t20.5 -49t-20.5 -49t-48.5 -19t-48 19t-20 49t20 49t48 19z" />
    <glyph glyph-name="Nacute" unicode="&#x143;" horiz-adv-x="752" 
d="M669 670v-670h-100l-388 508v-508h-98v670h91l398 -521v521h97zM498 931l-84 -159h-90l88 202z" />
    <glyph glyph-name="Ncaron" unicode="&#x147;" horiz-adv-x="752" 
d="M669 670v-670h-100l-388 508v-508h-98v670h91l398 -521v521h97zM362 747l-136 129v10l49 50l100 -87l99 87l48 -50v-10l-136 -129h-24z" />
    <glyph glyph-name="Ncommaaccent" unicode="&#x145;" horiz-adv-x="752" 
d="M669 670v-670h-100l-388 508v-508h-98v670h91l398 -521v521h97zM350 -179q-18 6 -29.5 21.5t-11.5 37.5q0 29 19 47.5t47 18.5q27 0 47 -17.5t20 -46.5q0 -9 -2 -16.5t-4 -13.5l-56 -138l-58 20z" />
    <glyph glyph-name="Ocircumflex" unicode="&#xd4;" horiz-adv-x="811" 
d="M405 684q79 0 144 -26.5t111 -73.5t71.5 -111t25.5 -138q0 -72 -25.5 -135.5t-72 -111t-111 -75t-143.5 -27.5t-143.5 27t-111 74.5t-72 111t-25.5 136.5t26 136.5t72.5 110.5t111 74.5t142.5 27.5zM405 595q-59 0 -105.5 -20t-78.5 -55t-49 -82.5t-17 -102.5
t17.5 -102.5t49.5 -82.5t78.5 -55t104.5 -20q59 0 105.5 19.5t79 54.5t49.5 82.5t17 103.5q0 57 -17.5 104.5t-49.5 82t-79 54t-105 19.5zM417 935l136 -129v-10l-48 -50l-100 87l-99 -87l-49 50v10l137 129h23z" />
    <glyph glyph-name="Ograve" unicode="&#xd2;" horiz-adv-x="811" 
d="M405 684q79 0 144 -26.5t111 -73.5t71.5 -111t25.5 -138q0 -72 -25.5 -135.5t-72 -111t-111 -75t-143.5 -27.5t-143.5 27t-111 74.5t-72 111t-25.5 136.5t26 136.5t72.5 110.5t111 74.5t142.5 27.5zM405 595q-59 0 -105.5 -20t-78.5 -55t-49 -82.5t-17 -102.5
t17.5 -102.5t49.5 -82.5t78.5 -55t104.5 -20q59 0 105.5 19.5t79 54.5t49.5 82.5t17 103.5q0 57 -17.5 104.5t-49.5 82t-79 54t-105 19.5zM358 974l88 -202h-90l-85 159z" />
    <glyph glyph-name="Omacron" unicode="&#x14c;" horiz-adv-x="811" 
d="M405 684q79 0 144 -26.5t111 -73.5t71.5 -111t25.5 -138q0 -72 -25.5 -135.5t-72 -111t-111 -75t-143.5 -27.5t-143.5 27t-111 74.5t-72 111t-25.5 136.5t26 136.5t72.5 110.5t111 74.5t142.5 27.5zM405 595q-59 0 -105.5 -20t-78.5 -55t-49 -82.5t-17 -102.5
t17.5 -102.5t49.5 -82.5t78.5 -55t104.5 -20q59 0 105.5 19.5t79 54.5t49.5 82.5t17 103.5q0 57 -17.5 104.5t-49.5 82t-79 54t-105 19.5zM598 877v-84h-385v84h385z" />
    <glyph glyph-name="Otilde" unicode="&#xd5;" horiz-adv-x="811" 
d="M405 684q79 0 144 -26.5t111 -73.5t71.5 -111t25.5 -138q0 -72 -25.5 -135.5t-72 -111t-111 -75t-143.5 -27.5t-143.5 27t-111 74.5t-72 111t-25.5 136.5t26 136.5t72.5 110.5t111 74.5t142.5 27.5zM405 595q-59 0 -105.5 -20t-78.5 -55t-49 -82.5t-17 -102.5
t17.5 -102.5t49.5 -82.5t78.5 -55t104.5 -20q59 0 105.5 19.5t79 54.5t49.5 82.5t17 103.5q0 57 -17.5 104.5t-49.5 82t-79 54t-105 19.5zM213 817q20 38 52 59.5t74 21.5q24 0 42 -8t33 -17t30 -17t34 -8q26 0 42 9.5t27 27.5l52 -47q-17 -37 -47.5 -56t-68.5 -19
q-27 0 -46 8t-34.5 17.5t-31 17.5t-35.5 8q-27 0 -44.5 -11t-30.5 -29z" />
    <glyph glyph-name="Racute" unicode="&#x154;" horiz-adv-x="686" 
d="M372 670q55 0 101 -16t79 -45.5t51 -70.5t18 -90q0 -73 -42 -125t-111 -75l175 -248h-124l-150 224h-183v-224h-103v670h289zM186 312h175q72 0 114.5 36t42.5 100q0 67 -42 100.5t-111 33.5h-179v-270zM463 931l-84 -159h-90l88 202z" />
    <glyph glyph-name="Rcaron" unicode="&#x158;" horiz-adv-x="686" 
d="M372 670q55 0 101 -16t79 -45.5t51 -70.5t18 -90q0 -73 -42 -125t-111 -75l175 -248h-124l-150 224h-183v-224h-103v670h289zM186 312h175q72 0 114.5 36t42.5 100q0 67 -42 100.5t-111 33.5h-179v-270zM323 747l-136 129v10l49 50l100 -87l99 87l48 -50v-10l-136 -129
h-24z" />
    <glyph glyph-name="Rcommaaccent" unicode="&#x156;" horiz-adv-x="686" 
d="M372 670q55 0 101 -16t79 -45.5t51 -70.5t18 -90q0 -73 -42 -125t-111 -75l175 -248h-124l-150 224h-183v-224h-103v670h289zM186 312h175q72 0 114.5 36t42.5 100q0 67 -42 100.5t-111 33.5h-179v-270zM321 -179q-18 6 -29.5 21.5t-11.5 37.5q0 29 19 47.5t47 18.5
q27 0 47 -17.5t20 -46.5q0 -9 -2 -16.5t-4 -13.5l-56 -138l-58 20z" />
    <glyph glyph-name="Sacute" unicode="&#x15a;" horiz-adv-x="653" 
d="M525 532q-41 30 -92 46.5t-106 16.5q-81 0 -117 -27t-36 -72t27.5 -67.5t88.5 -30.5l100 -14q102 -15 155.5 -63t53.5 -130q0 -45 -18 -82.5t-53.5 -64.5t-88.5 -42.5t-123 -15.5q-78 0 -142 17.5t-122 60.5l48 81q55 -38 109.5 -54t114.5 -16q87 0 130.5 31t43.5 82
q0 42 -29 68.5t-96 35.5l-105 15q-95 13 -144.5 58t-49.5 127q0 47 18.5 83t51.5 60t79.5 36.5t102.5 12.5q69 0 135.5 -19t115.5 -59zM463 931l-84 -159h-90l88 202z" />
    <glyph glyph-name="Tcaron" unicode="&#x164;" horiz-adv-x="689" 
d="M641 670v-90h-246v-580h-101v580h-246v90h593zM332 747l-136 129v10l49 50l100 -87l99 87l48 -50v-10l-136 -129h-24z" />
    <glyph glyph-name="Tcommaaccent" unicode="&#x162;" horiz-adv-x="689" 
d="M641 670v-90h-246v-580h-101v580h-246v90h593zM319 -199q-18 6 -29.5 21.5t-11.5 37.5q0 29 19 47.5t47 18.5q27 0 47 -17.5t20 -46.5q0 -9 -2 -16.5t-4 -13.5l-56 -138l-58 20z" />
    <glyph glyph-name="Uacute" unicode="&#xda;" horiz-adv-x="754" 
d="M186 670v-364q0 -111 48.5 -171t142.5 -60q92 0 141.5 56t49.5 173v366h103v-367q0 -72 -18.5 -130.5t-55.5 -100t-92 -64t-128 -22.5q-72 0 -126.5 22t-92 62.5t-56.5 98.5t-19 131v370h103zM503 931l-84 -159h-90l88 202z" />
    <glyph glyph-name="Ubreve" unicode="&#x16c;" horiz-adv-x="754" 
d="M186 670v-364q0 -111 48.5 -171t142.5 -60q92 0 141.5 56t49.5 173v366h103v-367q0 -72 -18.5 -130.5t-55.5 -100t-92 -64t-128 -22.5q-72 0 -126.5 22t-92 62.5t-56.5 98.5t-19 131v370h103zM297 917q2 -37 24 -57t55 -20t55.5 19.5t24.5 57.5h78q-1 -34 -12.5 -62.5
t-32 -49.5t-49.5 -32.5t-64 -11.5t-64 11.5t-49 32.5t-31.5 49.5t-12.5 62.5h78z" />
    <glyph glyph-name="Ucircumflex" unicode="&#xdb;" horiz-adv-x="754" 
d="M186 670v-364q0 -111 48.5 -171t142.5 -60q92 0 141.5 56t49.5 173v366h103v-367q0 -72 -18.5 -130.5t-55.5 -100t-92 -64t-128 -22.5q-72 0 -126.5 22t-92 62.5t-56.5 98.5t-19 131v370h103zM389 935l136 -129v-10l-48 -50l-100 87l-99 -87l-49 50v10l137 129h23z" />
    <glyph glyph-name="Udieresis" unicode="&#xdc;" horiz-adv-x="754" 
d="M186 670v-364q0 -111 48.5 -171t142.5 -60q92 0 141.5 56t49.5 173v366h103v-367q0 -72 -18.5 -130.5t-55.5 -100t-92 -64t-128 -22.5q-72 0 -126.5 22t-92 62.5t-56.5 98.5t-19 131v370h103zM249 902q28 0 48.5 -19t20.5 -50q0 -28 -20.5 -46.5t-48.5 -18.5
q-27 0 -47 18.5t-20 46.5q0 31 20 50t47 19zM504 902q28 0 48.5 -19t20.5 -50q0 -28 -20.5 -46.5t-48.5 -18.5q-27 0 -47 18.5t-20 46.5q0 31 20 50t47 19z" />
    <glyph glyph-name="Ugrave" unicode="&#xd9;" horiz-adv-x="754" 
d="M186 670v-364q0 -111 48.5 -171t142.5 -60q92 0 141.5 56t49.5 173v366h103v-367q0 -72 -18.5 -130.5t-55.5 -100t-92 -64t-128 -22.5q-72 0 -126.5 22t-92 62.5t-56.5 98.5t-19 131v370h103zM339 974l88 -202h-90l-85 159z" />
    <glyph glyph-name="Uhungarumlaut" unicode="&#x170;" horiz-adv-x="754" 
d="M186 670v-364q0 -111 48.5 -171t142.5 -60q92 0 141.5 56t49.5 173v366h103v-367q0 -72 -18.5 -130.5t-55.5 -100t-92 -64t-128 -22.5q-72 0 -126.5 22t-92 62.5t-56.5 98.5t-19 131v370h103zM410 943l-66 -171h-84l65 204zM572 911l-84 -139h-84l86 182z" />
    <glyph glyph-name="Umacron" unicode="&#x16a;" horiz-adv-x="754" 
d="M186 670v-364q0 -111 48.5 -171t142.5 -60q92 0 141.5 56t49.5 173v366h103v-367q0 -72 -18.5 -130.5t-55.5 -100t-92 -64t-128 -22.5q-72 0 -126.5 22t-92 62.5t-56.5 98.5t-19 131v370h103zM569 877v-84h-385v84h385z" />
    <glyph glyph-name="Uogonek" unicode="&#x172;" horiz-adv-x="754" 
d="M186 670v-364q0 -111 48.5 -171t142.5 -60q92 0 141.5 56t49.5 173v366h103v-367q0 -125 -57 -208t-168 -103q-23 -5 -36.5 -18.5t-13.5 -37.5q0 -31 17 -49.5t56 -23.5l-13 -72q-72 4 -108.5 39.5t-36.5 86.5q0 41 22 72q-122 12 -186 94t-64 217v370h103z" />
    <glyph glyph-name="Uring" unicode="&#x16e;" horiz-adv-x="754" 
d="M186 670v-364q0 -111 48.5 -171t142.5 -60q92 0 141.5 56t49.5 173v366h103v-367q0 -72 -18.5 -130.5t-55.5 -100t-92 -64t-128 -22.5q-72 0 -126.5 22t-92 62.5t-56.5 98.5t-19 131v370h103zM376 986q28 0 51.5 -10t40 -27t25.5 -38.5t9 -45.5t-9 -46t-25.5 -38.5
t-40 -26.5t-51.5 -10q-29 0 -52.5 10t-40 26.5t-25 38.5t-8.5 46t9 45.5t25.5 38.5t40 27t51.5 10zM376 918q-25 0 -39 -15t-14 -38t14.5 -38t38.5 -15t39 15t15 38t-15 38t-39 15z" />
    <glyph glyph-name="Utilde" unicode="&#x168;" horiz-adv-x="754" 
d="M186 670v-364q0 -111 48.5 -171t142.5 -60q92 0 141.5 56t49.5 173v366h103v-367q0 -72 -18.5 -130.5t-55.5 -100t-92 -64t-128 -22.5q-72 0 -126.5 22t-92 62.5t-56.5 98.5t-19 131v370h103zM184 817q20 38 52 59.5t74 21.5q24 0 42 -8t33 -17t30 -17t34 -8q26 0 42 9.5
t27 27.5l52 -47q-17 -37 -47.5 -56t-68.5 -19q-27 0 -46 8t-34.5 17.5t-31 17.5t-35.5 8q-27 0 -44.5 -11t-30.5 -29z" />
    <glyph glyph-name="Wcircumflex" unicode="&#x174;" horiz-adv-x="1015" 
d="M148 670l154 -554h10l148 512h94l152 -512h10l151 554h110l-203 -672h-129l-134 456h-10l-128 -456h-130l-205 672h110zM519 935l136 -129v-10l-48 -50l-100 87l-99 -87l-49 50v10l137 129h23z" />
    <glyph glyph-name="Yacute" unicode="&#xdd;" horiz-adv-x="712" 
d="M157 670l196 -351h10l193 351h118l-268 -456v-214h-100v214l-268 456h119zM487 931l-84 -159h-90l88 202z" />
    <glyph glyph-name="Ycircumflex" unicode="&#x176;" horiz-adv-x="712" 
d="M157 670l196 -351h10l193 351h118l-268 -456v-214h-100v214l-268 456h119zM367 935l136 -129v-10l-48 -50l-100 87l-99 -87l-49 50v10l137 129h23z" />
    <glyph glyph-name="Ydieresis" unicode="&#x178;" horiz-adv-x="712" 
d="M157 670l196 -351h10l193 351h118l-268 -456v-214h-100v214l-268 456h119zM227 902q28 0 48.5 -19t20.5 -50q0 -28 -20.5 -46.5t-48.5 -18.5q-27 0 -47 18.5t-20 46.5q0 31 20 50t47 19zM482 902q28 0 48.5 -19t20.5 -50q0 -28 -20.5 -46.5t-48.5 -18.5q-27 0 -47 18.5
t-20 46.5q0 31 20 50t47 19z" />
    <glyph glyph-name="Zacute" unicode="&#x179;" horiz-adv-x="663" 
d="M597 670v-76l-404 -504h412v-90h-547v74l410 506h-395v90h524zM449 931l-84 -159h-90l88 202z" />
    <glyph glyph-name="Zcaron" unicode="&#x17d;" horiz-adv-x="663" 
d="M597 670v-76l-404 -504h412v-90h-547v74l410 506h-395v90h524zM319 747l-136 129v10l49 50l100 -87l99 87l48 -50v-10l-136 -129h-24z" />
    <glyph glyph-name="Zdotaccent" unicode="&#x17b;" horiz-adv-x="663" 
d="M597 670v-76l-404 -504h412v-90h-547v74l410 506h-395v90h524zM331 910q28 0 48.5 -19t20.5 -49t-20.5 -49t-48.5 -19t-48 19t-20 49t20 49t48 19z" />
    <glyph glyph-name="abreve" unicode="&#x103;" horiz-adv-x="623" 
d="M79 463q51 32 102 45.5t108 13.5q119 0 174 -54.5t55 -150.5v-187q0 -32 11 -45.5t29 -13.5q11 0 21 4l9 -74q-21 -10 -51 -10q-38 0 -63.5 18.5t-33.5 67.5q-64 -89 -198 -89q-91 0 -143.5 43.5t-52.5 126.5q0 77 61 121t167 44q42 0 79.5 -7t69.5 -18v28q0 55 -32 83
t-100 28q-91 0 -173 -44zM424 222q-64 22 -146 22q-72 0 -102.5 -24.5t-30.5 -63.5q0 -42 29.5 -63.5t85.5 -21.5q34 0 63.5 9.5t52 26.5t35.5 40.5t13 52.5v22zM228 748q2 -34 21.5 -52.5t50.5 -18.5t50.5 18.5t21.5 52.5h79q-2 -35 -14 -62t-32 -45.5t-47 -28.5t-58 -10
q-32 0 -59 9.5t-47 28t-32 46t-12 62.5h78z" />
    <glyph glyph-name="acircumflex" unicode="&#xe2;" horiz-adv-x="623" 
d="M79 463q51 32 102 45.5t108 13.5q119 0 174 -54.5t55 -150.5v-187q0 -32 11 -45.5t29 -13.5q11 0 21 4l9 -74q-21 -10 -51 -10q-38 0 -63.5 18.5t-33.5 67.5q-64 -89 -198 -89q-91 0 -143.5 43.5t-52.5 126.5q0 77 61 121t167 44q42 0 79.5 -7t69.5 -18v28q0 55 -32 83
t-100 28q-91 0 -173 -44zM424 222q-64 22 -146 22q-72 0 -102.5 -24.5t-30.5 -63.5q0 -42 29.5 -63.5t85.5 -21.5q34 0 63.5 9.5t52 26.5t35.5 40.5t13 52.5v22zM295 677l-94 -84l-47 49v10l133 127h21l133 -127v-10l-46 -49z" />
    <glyph glyph-name="adieresis" unicode="&#xe4;" horiz-adv-x="623" 
d="M79 463q51 32 102 45.5t108 13.5q119 0 174 -54.5t55 -150.5v-187q0 -32 11 -45.5t29 -13.5q11 0 21 4l9 -74q-21 -10 -51 -10q-38 0 -63.5 18.5t-33.5 67.5q-64 -89 -198 -89q-91 0 -143.5 43.5t-52.5 126.5q0 77 61 121t167 44q42 0 79.5 -7t69.5 -18v28q0 55 -32 83
t-100 28q-91 0 -173 -44zM424 222q-64 22 -146 22q-72 0 -102.5 -24.5t-30.5 -63.5q0 -42 29.5 -63.5t85.5 -21.5q34 0 63.5 9.5t52 26.5t35.5 40.5t13 52.5v22zM185 735q27 0 45.5 -17.5t18.5 -44.5t-18.5 -44.5t-45.5 -17.5q-26 0 -44.5 17.5t-18.5 44.5t18.5 44.5
t44.5 17.5zM411 735q26 0 44.5 -17.5t18.5 -44.5t-18.5 -44.5t-44.5 -17.5t-44.5 17.5t-18.5 44.5t18.5 44.5t44.5 17.5z" />
    <glyph glyph-name="agrave" unicode="&#xe0;" horiz-adv-x="623" 
d="M79 463q51 32 102 45.5t108 13.5q119 0 174 -54.5t55 -150.5v-187q0 -32 11 -45.5t29 -13.5q11 0 21 4l9 -74q-21 -10 -51 -10q-38 0 -63.5 18.5t-33.5 67.5q-64 -89 -198 -89q-91 0 -143.5 43.5t-52.5 126.5q0 77 61 121t167 44q42 0 79.5 -7t69.5 -18v28q0 55 -32 83
t-100 28q-91 0 -173 -44zM424 222q-64 22 -146 22q-72 0 -102.5 -24.5t-30.5 -63.5q0 -42 29.5 -63.5t85.5 -21.5q34 0 63.5 9.5t52 26.5t35.5 40.5t13 52.5v22zM341 621h-85l-82 139l82 48z" />
    <glyph glyph-name="amacron" unicode="&#x101;" horiz-adv-x="623" 
d="M79 463q51 32 102 45.5t108 13.5q119 0 174 -54.5t55 -150.5v-187q0 -32 11 -45.5t29 -13.5q11 0 21 4l9 -74q-21 -10 -51 -10q-38 0 -63.5 18.5t-33.5 67.5q-64 -89 -198 -89q-91 0 -143.5 43.5t-52.5 126.5q0 77 61 121t167 44q42 0 79.5 -7t69.5 -18v28q0 55 -32 83
t-100 28q-91 0 -173 -44zM424 222q-64 22 -146 22q-72 0 -102.5 -24.5t-30.5 -63.5q0 -42 29.5 -63.5t85.5 -21.5q34 0 63.5 9.5t52 26.5t35.5 40.5t13 52.5v22zM462 716v-82h-327v82h327z" />
    <glyph glyph-name="atilde" unicode="&#xe3;" horiz-adv-x="623" 
d="M79 463q51 32 102 45.5t108 13.5q119 0 174 -54.5t55 -150.5v-187q0 -32 11 -45.5t29 -13.5q11 0 21 4l9 -74q-21 -10 -51 -10q-38 0 -63.5 18.5t-33.5 67.5q-64 -89 -198 -89q-91 0 -143.5 43.5t-52.5 126.5q0 77 61 121t167 44q42 0 79.5 -7t69.5 -18v28q0 55 -32 83
t-100 28q-91 0 -173 -44zM424 222q-64 22 -146 22q-72 0 -102.5 -24.5t-30.5 -63.5q0 -42 29.5 -63.5t85.5 -21.5q34 0 63.5 9.5t52 26.5t35.5 40.5t13 52.5v22zM112 662q21 35 51.5 54.5t71.5 19.5q24 0 40.5 -7.5t30.5 -16.5t28.5 -16.5t34.5 -7.5q23 0 40.5 9.5
t29.5 25.5l47 -48q-17 -32 -44.5 -51t-68.5 -19q-24 0 -42.5 8t-34 17t-31 17t-34.5 8q-26 0 -43.5 -9.5t-31.5 -27.5z" />
    <glyph glyph-name="cacute" unicode="&#x107;" horiz-adv-x="583" 
d="M476 381q-28 26 -66.5 41t-87.5 15q-36 0 -68.5 -12t-56.5 -35t-38 -56t-14 -75q0 -85 47 -135t130 -50q48 0 89 16.5t70 48.5l59 -61q-42 -47 -97.5 -68.5t-124.5 -21.5q-65 0 -115.5 20.5t-85 56.5t-52 84.5t-17.5 104.5q0 61 21.5 110.5t58 84.5t86 54t106.5 19
q68 0 120 -19.5t90 -57.5zM451 760l-82 -139h-85l85 187z" />
    <glyph glyph-name="ccaron" unicode="&#x10d;" horiz-adv-x="583" 
d="M476 381q-28 26 -66.5 41t-87.5 15q-36 0 -68.5 -12t-56.5 -35t-38 -56t-14 -75q0 -85 47 -135t130 -50q48 0 89 16.5t70 48.5l59 -61q-42 -47 -97.5 -68.5t-124.5 -21.5q-65 0 -115.5 20.5t-85 56.5t-52 84.5t-17.5 104.5q0 61 21.5 110.5t58 84.5t86 54t106.5 19
q68 0 120 -19.5t90 -57.5zM323 704l96 84l46 -49v-10l-132 -127h-21l-134 127v10l46 49z" />
    <glyph glyph-name="ccircumflex" unicode="&#x109;" horiz-adv-x="583" 
d="M476 381q-28 26 -66.5 41t-87.5 15q-36 0 -68.5 -12t-56.5 -35t-38 -56t-14 -75q0 -85 47 -135t130 -50q48 0 89 16.5t70 48.5l59 -61q-42 -47 -97.5 -68.5t-124.5 -21.5q-65 0 -115.5 20.5t-85 56.5t-52 84.5t-17.5 104.5q0 61 21.5 110.5t58 84.5t86 54t106.5 19
q68 0 120 -19.5t90 -57.5zM322 677l-94 -84l-47 49v10l133 127h21l133 -127v-10l-46 -49z" />
    <glyph glyph-name="cdotaccent" unicode="&#x10b;" horiz-adv-x="583" 
d="M476 381q-28 26 -66.5 41t-87.5 15q-36 0 -68.5 -12t-56.5 -35t-38 -56t-14 -75q0 -85 47 -135t130 -50q48 0 89 16.5t70 48.5l59 -61q-42 -47 -97.5 -68.5t-124.5 -21.5q-65 0 -115.5 20.5t-85 56.5t-52 84.5t-17.5 104.5q0 61 21.5 110.5t58 84.5t86 54t106.5 19
q68 0 120 -19.5t90 -57.5zM326 744q28 0 48 -18t20 -49q0 -30 -20 -48t-48 -18q-27 0 -47 18t-20 48q0 31 20 49t47 18z" />
    <glyph glyph-name="dcaron" unicode="&#x10f;" horiz-adv-x="818" 
d="M584 713v-713h-77l-11 97q-30 -54 -80.5 -81.5t-114.5 -27.5q-58 0 -105 18t-80 52t-50.5 83.5t-17.5 112.5q0 62 21 111.5t57.5 84.5t85.5 53.5t106 18.5q51 0 92.5 -12.5t76.5 -37.5v241h97zM487 385q-71 54 -159 54q-85 0 -133.5 -48.5t-48.5 -136.5q0 -44 12.5 -77.5
t34 -57t50.5 -35.5t62 -12q67 0 113 36t69 103v174zM721 584q-17 5 -28 21t-11 38q0 29 19 46t45 17q27 0 46.5 -17t19.5 -46q0 -17 -6 -30l-54 -132l-56 20z" />
    <glyph glyph-name="eacute" unicode="&#xe9;" horiz-adv-x="612" 
d="M146 222q8 -71 55 -110t125 -39q53 0 96.5 13.5t83.5 42.5l44 -69q-51 -39 -106 -55.5t-120 -16.5t-116 18.5t-86.5 53t-54.5 83.5t-19 111q0 58 20 107t56 85t87 56t113 20q54 0 98 -17t75.5 -48.5t49 -75.5t17.5 -97q0 -16 -2 -31.5t-5 -30.5h-411zM466 302
q-1 62 -37 99t-109 37t-116 -36.5t-54 -99.5h316zM467 760l-82 -139h-85l85 187z" />
    <glyph glyph-name="ebreve" unicode="&#x115;" horiz-adv-x="612" 
d="M146 222q8 -71 55 -110t125 -39q53 0 96.5 13.5t83.5 42.5l44 -69q-51 -39 -106 -55.5t-120 -16.5t-116 18.5t-86.5 53t-54.5 83.5t-19 111q0 58 20 107t56 85t87 56t113 20q54 0 98 -17t75.5 -48.5t49 -75.5t17.5 -97q0 -16 -2 -31.5t-5 -30.5h-411zM466 302
q-1 62 -37 99t-109 37t-116 -36.5t-54 -99.5h316zM252 748q2 -34 21.5 -52.5t50.5 -18.5t50.5 18.5t21.5 52.5h79q-2 -35 -14 -62t-32 -45.5t-47 -28.5t-58 -10q-32 0 -59 9.5t-47 28t-32 46t-12 62.5h78z" />
    <glyph glyph-name="ecircumflex" unicode="&#xea;" horiz-adv-x="612" 
d="M146 222q8 -71 55 -110t125 -39q53 0 96.5 13.5t83.5 42.5l44 -69q-51 -39 -106 -55.5t-120 -16.5t-116 18.5t-86.5 53t-54.5 83.5t-19 111q0 58 20 107t56 85t87 56t113 20q54 0 98 -17t75.5 -48.5t49 -75.5t17.5 -97q0 -16 -2 -31.5t-5 -30.5h-411zM466 302
q-1 62 -37 99t-109 37t-116 -36.5t-54 -99.5h316zM323 677l-94 -84l-47 49v10l133 127h21l133 -127v-10l-46 -49z" />
    <glyph glyph-name="edotaccent" unicode="&#x117;" horiz-adv-x="612" 
d="M146 222q8 -71 55 -110t125 -39q53 0 96.5 13.5t83.5 42.5l44 -69q-51 -39 -106 -55.5t-120 -16.5t-116 18.5t-86.5 53t-54.5 83.5t-19 111q0 58 20 107t56 85t87 56t113 20q54 0 98 -17t75.5 -48.5t49 -75.5t17.5 -97q0 -16 -2 -31.5t-5 -30.5h-411zM466 302
q-1 62 -37 99t-109 37t-116 -36.5t-54 -99.5h316zM324 744q28 0 48 -18t20 -49q0 -30 -20 -48t-48 -18q-27 0 -47 18t-20 48q0 31 20 49t47 18z" />
    <glyph glyph-name="emacron" unicode="&#x113;" horiz-adv-x="612" 
d="M146 222q8 -71 55 -110t125 -39q53 0 96.5 13.5t83.5 42.5l44 -69q-51 -39 -106 -55.5t-120 -16.5t-116 18.5t-86.5 53t-54.5 83.5t-19 111q0 58 20 107t56 85t87 56t113 20q54 0 98 -17t75.5 -48.5t49 -75.5t17.5 -97q0 -16 -2 -31.5t-5 -30.5h-411zM466 302
q-1 62 -37 99t-109 37t-116 -36.5t-54 -99.5h316zM496 716v-82h-327v82h327z" />
    <glyph glyph-name="gbreve" unicode="&#x11f;" horiz-adv-x="646" 
d="M591 463l-89 -20q19 -20 29.5 -47t10.5 -57q0 -37 -15 -70t-43 -58t-69.5 -39.5t-93.5 -14.5q-43 0 -76 9.5t-59 26.5q-19 -10 -27.5 -25.5t-8.5 -35.5q0 -32 21 -46t64 -14h161q48 0 83.5 -11.5t58 -31.5t33.5 -47.5t11 -60.5q0 -44 -21 -82t-59.5 -66.5t-92 -45
t-119.5 -16.5q-121 0 -179 49t-58 131q0 39 14.5 74.5t41.5 62.5q-48 36 -48 98q0 72 72 119q-14 19 -21 43t-7 51q0 37 14 70.5t42.5 58.5t70.5 39.5t99 14.5h97l155 14zM180 -6q-17 -17 -25 -40.5t-8 -49.5q0 -53 38 -81.5t110 -28.5q88 0 140.5 34t52.5 91q0 35 -22.5 53
t-75.5 18h-157zM320 441q-60 0 -90.5 -26t-30.5 -75q0 -46 31 -74.5t91 -28.5q55 0 90 26.5t35 76.5q0 65 -51 101h-75zM263 748q2 -34 21.5 -52.5t50.5 -18.5t50.5 18.5t21.5 52.5h79q-2 -35 -14 -62t-32 -45.5t-47 -28.5t-58 -10q-32 0 -59 9.5t-47 28t-32 46t-12 62.5h78
z" />
    <glyph glyph-name="gcircumflex" unicode="&#x11d;" horiz-adv-x="646" 
d="M591 463l-89 -20q19 -20 29.5 -47t10.5 -57q0 -37 -15 -70t-43 -58t-69.5 -39.5t-93.5 -14.5q-43 0 -76 9.5t-59 26.5q-19 -10 -27.5 -25.5t-8.5 -35.5q0 -32 21 -46t64 -14h161q48 0 83.5 -11.5t58 -31.5t33.5 -47.5t11 -60.5q0 -44 -21 -82t-59.5 -66.5t-92 -45
t-119.5 -16.5q-121 0 -179 49t-58 131q0 39 14.5 74.5t41.5 62.5q-48 36 -48 98q0 72 72 119q-14 19 -21 43t-7 51q0 37 14 70.5t42.5 58.5t70.5 39.5t99 14.5h97l155 14zM180 -6q-17 -17 -25 -40.5t-8 -49.5q0 -53 38 -81.5t110 -28.5q88 0 140.5 34t52.5 91q0 35 -22.5 53
t-75.5 18h-157zM320 441q-60 0 -90.5 -26t-30.5 -75q0 -46 31 -74.5t91 -28.5q55 0 90 26.5t35 76.5q0 65 -51 101h-75zM325 677l-94 -84l-47 49v10l133 127h21l133 -127v-10l-46 -49z" />
    <glyph glyph-name="gcommaaccent" unicode="&#x123;" horiz-adv-x="646" 
d="M591 463l-89 -20q19 -20 29.5 -47t10.5 -57q0 -37 -15 -70t-43 -58t-69.5 -39.5t-93.5 -14.5q-43 0 -76 9.5t-59 26.5q-19 -10 -27.5 -25.5t-8.5 -35.5q0 -32 21 -46t64 -14h161q48 0 83.5 -11.5t58 -31.5t33.5 -47.5t11 -60.5q0 -44 -21 -82t-59.5 -66.5t-92 -45
t-119.5 -16.5q-121 0 -179 49t-58 131q0 39 14.5 74.5t41.5 62.5q-48 36 -48 98q0 72 72 119q-14 19 -21 43t-7 51q0 37 14 70.5t42.5 58.5t70.5 39.5t99 14.5h97l155 14zM180 -6q-17 -17 -25 -40.5t-8 -49.5q0 -53 38 -81.5t110 -28.5q88 0 140.5 34t52.5 91q0 35 -22.5 53
t-75.5 18h-157zM320 441q-60 0 -90.5 -26t-30.5 -75q0 -46 31 -74.5t91 -28.5q55 0 90 26.5t35 76.5q0 65 -51 101h-75zM359.005 718.988q16.999 -5 27.999 -20.999q10.999 -15.999 10.999 -37.998q0 -28.998 -18.999 -45.9971t-44.9971 -16.999q-26.998 0 -46.4971 16.999
t-19.499 45.9971q0 16.999 6 29.999l53.9961 131.991l55.9971 -19.999z" />
    <glyph glyph-name="gdotaccent" unicode="&#x121;" horiz-adv-x="646" 
d="M591 463l-89 -20q19 -20 29.5 -47t10.5 -57q0 -37 -15 -70t-43 -58t-69.5 -39.5t-93.5 -14.5q-43 0 -76 9.5t-59 26.5q-19 -10 -27.5 -25.5t-8.5 -35.5q0 -32 21 -46t64 -14h161q48 0 83.5 -11.5t58 -31.5t33.5 -47.5t11 -60.5q0 -44 -21 -82t-59.5 -66.5t-92 -45
t-119.5 -16.5q-121 0 -179 49t-58 131q0 39 14.5 74.5t41.5 62.5q-48 36 -48 98q0 72 72 119q-14 19 -21 43t-7 51q0 37 14 70.5t42.5 58.5t70.5 39.5t99 14.5h97l155 14zM180 -6q-17 -17 -25 -40.5t-8 -49.5q0 -53 38 -81.5t110 -28.5q88 0 140.5 34t52.5 91q0 35 -22.5 53
t-75.5 18h-157zM320 441q-60 0 -90.5 -26t-30.5 -75q0 -46 31 -74.5t91 -28.5q55 0 90 26.5t35 76.5q0 65 -51 101h-75zM333 744q28 0 48 -18t20 -49q0 -30 -20 -48t-48 -18q-27 0 -47 18t-20 48q0 31 20 49t47 18z" />
    <glyph glyph-name="hcircumflex" unicode="&#x125;" 
d="M171 713v-294q27 50 72 76.5t115 26.5q97 0 153.5 -56t56.5 -165v-301h-97v290q0 75 -33.5 111.5t-95.5 36.5q-60 0 -105 -39t-66 -110v-289h-98v713h98zM122 858l-94 -84l-47 49v10l133 127h21l133 -127v-10l-46 -49z" />
    <glyph glyph-name="iacute" unicode="&#xed;" horiz-adv-x="246" 
d="M173 510v-510h-100v510h100zM250 760l-82 -139h-85l85 187z" />
    <glyph glyph-name="ibreve" unicode="&#x12d;" horiz-adv-x="246" 
d="M173 510v-510h-100v510h100zM52 748q2 -34 21.5 -52.5t50.5 -18.5t50.5 18.5t21.5 52.5h79q-2 -35 -14 -62t-32 -45.5t-47 -28.5t-58 -10q-32 0 -59 9.5t-47 28t-32 46t-12 62.5h78z" />
    <glyph glyph-name="icircumflex" unicode="&#xee;" horiz-adv-x="246" 
d="M173 510v-510h-100v510h100zM122 677l-94 -84l-47 49v10l133 127h21l133 -127v-10l-46 -49z" />
    <glyph glyph-name="idieresis" unicode="&#xef;" horiz-adv-x="246" 
d="M173 510v-510h-100v510h100zM32 735q26 0 44.5 -17t18.5 -45q0 -27 -18.5 -44.5t-44.5 -17.5t-44.5 17.5t-18.5 44.5q0 28 18.5 45t44.5 17zM216 735q26 0 44.5 -17.5t18.5 -44.5t-18.5 -44.5t-44.5 -17.5t-44.5 17t-18.5 45t18.5 45t44.5 17z" />
    <glyph glyph-name="igrave" unicode="&#xec;" horiz-adv-x="246" 
d="M173 510v-510h-100v510h100zM170 621h-85l-82 139l82 48z" />
    <glyph glyph-name="imacron" unicode="&#x12b;" horiz-adv-x="246" 
d="M173 510v-510h-100v510h100zM251 716v-82h-253v82h253z" />
    <glyph glyph-name="iogonek" unicode="&#x12f;" horiz-adv-x="245" 
d="M172 510v-510h-8q-20 0 -32.5 -17t-12.5 -44q0 -29 17 -47t55 -24l-13 -71q-35 1 -61 12t-43.5 28.5t-26.5 39.5t-9 46q0 54 35 87v500h99zM123 744q27 0 47.5 -18t20.5 -49q0 -30 -20.5 -48t-47.5 -18q-28 0 -48 18t-20 48q0 31 20 49t48 18z" />
    <glyph glyph-name="jcircumflex" unicode="&#x135;" horiz-adv-x="251" 
d="M178 510v-546q0 -45 -11.5 -82t-35 -64t-58 -42t-80.5 -15q-40 0 -73.5 8t-65.5 26l33 77q26 -14 49 -19t52 -5q42 0 67.5 28t25.5 88v546h97zM129 677l-94 -84l-47 49v10l133 127h21l133 -127v-10l-46 -49z" />
    <glyph glyph-name="kcommaaccent" unicode="&#x137;" horiz-adv-x="597" 
d="M171 713v-405l95 11l155 191h124l-195 -229l222 -281h-123l-173 228h-105v-228h-98v713h98zM278 -197q-17 5 -28 21t-11 38q0 29 19 46t45 17q27 0 46.5 -17t19.5 -46q0 -17 -6 -30l-54 -132l-56 20z" />
    <glyph glyph-name="lacute" unicode="&#x13a;" horiz-adv-x="243" 
d="M170 713v-713h-97v713h97zM251 934l-82 -139h-85l85 187z" />
    <glyph glyph-name="lcaron" unicode="&#x13e;" horiz-adv-x="394" 
d="M170 713v-713h-97v713h97zM299 584q-17 5 -28 21t-11 38q0 29 19 46t45 17q27 0 46.5 -17t19.5 -46q0 -17 -6 -30l-54 -132l-56 20z" />
    <glyph glyph-name="lcommaaccent" unicode="&#x13c;" horiz-adv-x="243" 
d="M170 713v-713h-97v713h97zM95 -197q-17 5 -28 21t-11 38q0 29 19 46t45 17q27 0 46.5 -17t19.5 -46q0 -17 -6 -30l-54 -132l-56 20z" />
    <glyph glyph-name="ldot" unicode="&#x140;" horiz-adv-x="407" 
d="M170 713v-713h-97v713h97zM317 383q28 0 48 -18t20 -49q0 -30 -20 -48t-48 -18q-27 0 -47 18t-20 48q0 31 20 49t47 18z" />
    <glyph glyph-name="nacute" unicode="&#x144;" 
d="M150 510l10 -106q26 56 75.5 87t118.5 31q98 0 156 -56.5t58 -164.5v-301h-97v290q0 75 -33.5 111.5t-95.5 36.5t-106.5 -40.5t-65.5 -111.5v-286h-97v510h77zM477 760l-82 -139h-85l85 187z" />
    <glyph glyph-name="napostrophe" unicode="&#x149;" horiz-adv-x="757" 
d="M266 510l10 -106q26 56 75.5 87t118.5 31q98 0 156 -56.5t58 -164.5v-301h-97v290q0 75 -33.5 111.5t-95.5 36.5t-106.5 -40.5t-65.5 -111.5v-286h-97v510h77zM47 583q-17 5 -28 21t-11 38q0 29 19 46t45 17q27 0 46.5 -17t19.5 -46q0 -17 -6 -30l-54 -132l-56 20z" />
    <glyph glyph-name="ncaron" unicode="&#x148;" 
d="M150 510l10 -106q26 56 75.5 87t118.5 31q98 0 156 -56.5t58 -164.5v-301h-97v290q0 75 -33.5 111.5t-95.5 36.5t-106.5 -40.5t-65.5 -111.5v-286h-97v510h77zM339 704l96 84l46 -49v-10l-132 -127h-21l-134 127v10l46 49z" />
    <glyph glyph-name="ncommaaccent" unicode="&#x146;" 
d="M150 510l10 -106q26 56 75.5 87t118.5 31q98 0 156 -56.5t58 -164.5v-301h-97v290q0 75 -33.5 111.5t-95.5 36.5t-106.5 -40.5t-65.5 -111.5v-286h-97v510h77zM294 -187q-17 5 -28 21t-11 38q0 29 19 46t45 17q27 0 46.5 -17t19.5 -46q0 -17 -6 -30l-54 -132l-56 20z" />
    <glyph glyph-name="oacute" unicode="&#xf3;" horiz-adv-x="650" 
d="M325 522q61 0 112 -19.5t88 -55t57 -84.5t20 -108q0 -57 -21 -106t-57.5 -85t-87.5 -56t-111 -20q-62 0 -113 19.5t-87.5 55t-56.5 84.5t-20 108q0 57 20.5 106t57 85t87.5 56t112 20zM325 439q-41 0 -74.5 -13.5t-57 -38t-36 -58.5t-12.5 -74q0 -41 13 -75t36.5 -58
t56.5 -37.5t74 -13.5q42 0 75 13.5t56.5 37.5t36 58t12.5 75q0 40 -13 73.5t-36.5 58t-56.5 38.5t-74 14zM464 760l-82 -139h-85l85 187z" />
    <glyph glyph-name="obreve" unicode="&#x14f;" horiz-adv-x="650" 
d="M325 522q61 0 112 -19.5t88 -55t57 -84.5t20 -108q0 -57 -21 -106t-57.5 -85t-87.5 -56t-111 -20q-62 0 -113 19.5t-87.5 55t-56.5 84.5t-20 108q0 57 20.5 106t57 85t87.5 56t112 20zM325 439q-41 0 -74.5 -13.5t-57 -38t-36 -58.5t-12.5 -74q0 -41 13 -75t36.5 -58
t56.5 -37.5t74 -13.5q42 0 75 13.5t56.5 37.5t36 58t12.5 75q0 40 -13 73.5t-36.5 58t-56.5 38.5t-74 14zM252 748q2 -34 21.5 -52.5t50.5 -18.5t50.5 18.5t21.5 52.5h79q-2 -35 -14 -62t-32 -45.5t-47 -28.5t-58 -10q-32 0 -59 9.5t-47 28t-32 46t-12 62.5h78z" />
    <glyph glyph-name="ocircumflex" unicode="&#xf4;" horiz-adv-x="650" 
d="M325 522q61 0 112 -19.5t88 -55t57 -84.5t20 -108q0 -57 -21 -106t-57.5 -85t-87.5 -56t-111 -20q-62 0 -113 19.5t-87.5 55t-56.5 84.5t-20 108q0 57 20.5 106t57 85t87.5 56t112 20zM325 439q-41 0 -74.5 -13.5t-57 -38t-36 -58.5t-12.5 -74q0 -41 13 -75t36.5 -58
t56.5 -37.5t74 -13.5q42 0 75 13.5t56.5 37.5t36 58t12.5 75q0 40 -13 73.5t-36.5 58t-56.5 38.5t-74 14zM322 677l-94 -84l-47 49v10l133 127h21l133 -127v-10l-46 -49z" />
    <glyph glyph-name="odieresis" unicode="&#xf6;" horiz-adv-x="650" 
d="M325 522q61 0 112 -19.5t88 -55t57 -84.5t20 -108q0 -57 -21 -106t-57.5 -85t-87.5 -56t-111 -20q-62 0 -113 19.5t-87.5 55t-56.5 84.5t-20 108q0 57 20.5 106t57 85t87.5 56t112 20zM325 439q-41 0 -74.5 -13.5t-57 -38t-36 -58.5t-12.5 -74q0 -41 13 -75t36.5 -58
t56.5 -37.5t74 -13.5q42 0 75 13.5t56.5 37.5t36 58t12.5 75q0 40 -13 73.5t-36.5 58t-56.5 38.5t-74 14zM211 735q27 0 45.5 -17.5t18.5 -44.5t-18.5 -44.5t-45.5 -17.5q-26 0 -44.5 17.5t-18.5 44.5t18.5 44.5t44.5 17.5zM437 735q26 0 44.5 -17.5t18.5 -44.5t-18.5 -44.5
t-44.5 -17.5t-44.5 17.5t-18.5 44.5t18.5 44.5t44.5 17.5z" />
    <glyph glyph-name="ograve" unicode="&#xf2;" horiz-adv-x="650" 
d="M325 522q61 0 112 -19.5t88 -55t57 -84.5t20 -108q0 -57 -21 -106t-57.5 -85t-87.5 -56t-111 -20q-62 0 -113 19.5t-87.5 55t-56.5 84.5t-20 108q0 57 20.5 106t57 85t87.5 56t112 20zM325 439q-41 0 -74.5 -13.5t-57 -38t-36 -58.5t-12.5 -74q0 -41 13 -75t36.5 -58
t56.5 -37.5t74 -13.5q42 0 75 13.5t56.5 37.5t36 58t12.5 75q0 40 -13 73.5t-36.5 58t-56.5 38.5t-74 14zM379 621h-85l-82 139l82 48z" />
    <glyph glyph-name="otilde" unicode="&#xf5;" horiz-adv-x="650" 
d="M325 522q61 0 112 -19.5t88 -55t57 -84.5t20 -108q0 -57 -21 -106t-57.5 -85t-87.5 -56t-111 -20q-62 0 -113 19.5t-87.5 55t-56.5 84.5t-20 108q0 57 20.5 106t57 85t87.5 56t112 20zM325 439q-41 0 -74.5 -13.5t-57 -38t-36 -58.5t-12.5 -74q0 -41 13 -75t36.5 -58
t56.5 -37.5t74 -13.5q42 0 75 13.5t56.5 37.5t36 58t12.5 75q0 40 -13 73.5t-36.5 58t-56.5 38.5t-74 14zM138 662q21 35 51.5 54.5t71.5 19.5q24 0 40.5 -7.5t30.5 -16.5t28.5 -16.5t34.5 -7.5q23 0 40.5 9.5t29.5 25.5l47 -48q-17 -32 -44.5 -51t-68.5 -19q-24 0 -42.5 8
t-34 17t-31 17t-34.5 8q-26 0 -43.5 -9.5t-31.5 -27.5z" />
    <glyph glyph-name="racute" unicode="&#x155;" horiz-adv-x="541" 
d="M151 510l9 -106q26 58 76 88t119 30q48 0 88 -14.5t69 -39.5l-54 -75q-23 20 -53 30.5t-68 10.5q-60 0 -103 -39.5t-64 -106.5v-288h-97v510h78zM464 760l-82 -139h-85l85 187z" />
    <glyph glyph-name="rcaron" unicode="&#x159;" horiz-adv-x="541" 
d="M151 510l9 -106q26 58 76 88t119 30q48 0 88 -14.5t69 -39.5l-54 -75q-23 20 -53 30.5t-68 10.5q-60 0 -103 -39.5t-64 -106.5v-288h-97v510h78zM327 704l96 84l46 -49v-10l-132 -127h-21l-134 127v10l46 49z" />
    <glyph glyph-name="rcommaaccent" unicode="&#x157;" horiz-adv-x="541" 
d="M151 510l9 -106q26 58 76 88t119 30q48 0 88 -14.5t69 -39.5l-54 -75q-23 20 -53 30.5t-68 10.5q-60 0 -103 -39.5t-64 -106.5v-288h-97v510h78zM96 -197q-17 5 -28 21t-11 38q0 29 19 46t45 17q27 0 46.5 -17t19.5 -46q0 -17 -6 -30l-54 -132l-56 20z" />
    <glyph glyph-name="sacute" unicode="&#x15b;" horiz-adv-x="569" 
d="M453 393q-78 45 -169 45q-60 0 -91.5 -18.5t-31.5 -50.5q0 -26 16.5 -40.5t56.5 -19.5l104 -12q83 -11 130.5 -45.5t47.5 -104.5q0 -75 -63.5 -117t-178.5 -42q-66 0 -119.5 13.5t-106.5 48.5l42 75q45 -29 91 -42t97 -13q72 0 107.5 19t35.5 54q0 30 -19 46.5t-69 21.5
l-120 14q-72 8 -110 44.5t-38 99.5q0 68 56 110.5t165 42.5q58 0 111 -13t97 -41zM423 760l-82 -139h-85l85 187z" />
    <glyph glyph-name="scaron" unicode="&#x161;" horiz-adv-x="569" 
d="M453 393q-78 45 -169 45q-60 0 -91.5 -18.5t-31.5 -50.5q0 -26 16.5 -40.5t56.5 -19.5l104 -12q83 -11 130.5 -45.5t47.5 -104.5q0 -75 -63.5 -117t-178.5 -42q-66 0 -119.5 13.5t-106.5 48.5l42 75q45 -29 91 -42t97 -13q72 0 107.5 19t35.5 54q0 30 -19 46.5t-69 21.5
l-120 14q-72 8 -110 44.5t-38 99.5q0 68 56 110.5t165 42.5q58 0 111 -13t97 -41zM295 704l96 84l46 -49v-10l-132 -127h-21l-134 127v10l46 49z" />
    <glyph glyph-name="tcaron" unicode="&#x165;" horiz-adv-x="598" 
d="M116 510l17 140l88 -4l-5 -136h188v-85h-185v-254q0 -50 22 -72.5t67 -22.5q28 0 52.5 8t44.5 22l36 -73q-32 -23 -69 -34t-79 -11q-82 0 -127 45t-45 140v252h-84v79zM501 583q-17 5 -28 21t-11 38q0 29 19 46t45 17q27 0 46.5 -17t19.5 -46q0 -17 -6 -30l-54 -132
l-56 20z" />
    <glyph glyph-name="tcommaaccent" unicode="&#x163;" horiz-adv-x="462" 
d="M116 510l17 140l88 -4l-5 -136h188v-85h-185v-254q0 -50 22 -72.5t67 -22.5q28 0 52.5 8t44.5 22l36 -73q-32 -23 -69 -34t-79 -11q-82 0 -127 45t-45 140v252h-84v79zM257 -197q-17 5 -28 21t-11 38q0 29 19 46t45 17q27 0 46.5 -17t19.5 -46q0 -17 -6 -30l-54 -132
l-56 20z" />
    <glyph glyph-name="uacute" unicode="&#xfa;" horiz-adv-x="634" 
d="M170 510v-283q0 -80 32 -117t90 -37q61 0 105.5 38.5t66.5 108.5v290h97v-510h-78l-9 103q-26 -56 -74.5 -85.5t-115.5 -29.5q-99 0 -155 57t-56 169v296h97zM444 760l-82 -139h-85l85 187z" />
    <glyph glyph-name="ucircumflex" unicode="&#xfb;" horiz-adv-x="634" 
d="M170 510v-283q0 -80 32 -117t90 -37q61 0 105.5 38.5t66.5 108.5v290h97v-510h-78l-9 103q-26 -56 -74.5 -85.5t-115.5 -29.5q-99 0 -155 57t-56 169v296h97zM314 677l-94 -84l-47 49v10l133 127h21l133 -127v-10l-46 -49z" />
    <glyph glyph-name="udieresis" unicode="&#xfc;" horiz-adv-x="634" 
d="M170 510v-283q0 -80 32 -117t90 -37q61 0 105.5 38.5t66.5 108.5v290h97v-510h-78l-9 103q-26 -56 -74.5 -85.5t-115.5 -29.5q-99 0 -155 57t-56 169v296h97zM203 735q27 0 45.5 -17.5t18.5 -44.5t-18.5 -44.5t-45.5 -17.5q-26 0 -44.5 17.5t-18.5 44.5t18.5 44.5
t44.5 17.5zM429 735q26 0 44.5 -17.5t18.5 -44.5t-18.5 -44.5t-44.5 -17.5t-44.5 17.5t-18.5 44.5t18.5 44.5t44.5 17.5z" />
    <glyph glyph-name="uhungarumlaut" unicode="&#x171;" horiz-adv-x="634" 
d="M170 510v-283q0 -80 32 -117t90 -37q61 0 105.5 38.5t66.5 108.5v290h97v-510h-78l-9 103q-26 -56 -74.5 -85.5t-115.5 -29.5q-99 0 -155 57t-56 169v296h97zM353 775l-74 -154h-79l71 193zM506 745l-80 -124h-82l82 168z" />
    <glyph glyph-name="ugrave" unicode="&#xf9;" horiz-adv-x="634" 
d="M170 510v-283q0 -80 32 -117t90 -37q61 0 105.5 38.5t66.5 108.5v290h97v-510h-78l-9 103q-26 -56 -74.5 -85.5t-115.5 -29.5q-99 0 -155 57t-56 169v296h97zM366 621h-85l-82 139l82 48z" />
    <glyph glyph-name="umacron" unicode="&#x16b;" horiz-adv-x="634" 
d="M170 510v-283q0 -80 32 -117t90 -37q61 0 105.5 38.5t66.5 108.5v290h97v-510h-78l-9 103q-26 -56 -74.5 -85.5t-115.5 -29.5q-99 0 -155 57t-56 169v296h97zM480 716v-82h-327v82h327z" />
    <glyph glyph-name="uogonek" unicode="&#x173;" horiz-adv-x="634" 
d="M170 510v-283q0 -80 32 -117t90 -37q61 0 105.5 38.5t66.5 108.5v290h97v-509q-26 -6 -39 -23t-13 -38q0 -28 19 -48t57 -25l-13 -70q-35 1 -61.5 12.5t-44.5 28.5t-27.5 39t-9.5 46q0 32 14 56.5t39 37.5l-8 86q-26 -56 -74.5 -85.5t-115.5 -29.5q-99 0 -155 57t-56 169
v296h97z" />
    <glyph glyph-name="uring" unicode="&#x16f;" horiz-adv-x="634" 
d="M170 510v-283q0 -80 32 -117t90 -37q61 0 105.5 38.5t66.5 108.5v290h97v-510h-78l-9 103q-26 -56 -74.5 -85.5t-115.5 -29.5q-99 0 -155 57t-56 169v296h97zM316 816q27 0 49 -9.5t37 -25t23.5 -35.5t8.5 -42q0 -23 -8.5 -43t-23.5 -36t-37 -25t-49 -9q-28 0 -50 9
t-37 25t-23 36t-8 43q0 22 8.5 42t23.5 35.5t37 25t49 9.5zM316 755q-26 0 -39 -15t-13 -36q0 -23 13.5 -37.5t38.5 -14.5t39 14.5t14 37.5q0 22 -14.5 36.5t-38.5 14.5z" />
    <glyph glyph-name="utilde" unicode="&#x169;" horiz-adv-x="634" 
d="M170 510v-283q0 -80 32 -117t90 -37q61 0 105.5 38.5t66.5 108.5v290h97v-510h-78l-9 103q-26 -56 -74.5 -85.5t-115.5 -29.5q-99 0 -155 57t-56 169v296h97zM130 662q21 35 51.5 54.5t71.5 19.5q24 0 40.5 -7.5t30.5 -16.5t28.5 -16.5t34.5 -7.5q23 0 40.5 9.5
t29.5 25.5l47 -48q-17 -32 -44.5 -51t-68.5 -19q-24 0 -42.5 8t-34 17t-31 17t-34.5 8q-26 0 -43.5 -9.5t-31.5 -27.5z" />
    <glyph glyph-name="wcircumflex" unicode="&#x175;" horiz-adv-x="881" 
d="M147 510l120 -406h9l120 388h92l123 -388h9l121 406h101l-173 -513h-117l-107 352h-10l-105 -352h-116l-176 513h109zM438 677l-94 -84l-47 49v10l133 127h21l133 -127v-10l-46 -49z" />
    <glyph glyph-name="yacute" unicode="&#xfd;" horiz-adv-x="638" 
d="M152 510l184 -408h9l147 408h108l-233 -566q-29 -72 -68 -105.5t-99 -33.5q-56 0 -94 26l27 75q16 -8 31 -11t29 -3q29 0 49.5 15t34.5 50l13 36l-252 517h114zM456 760l-82 -139h-85l85 187z" />
    <glyph glyph-name="ycircumflex" unicode="&#x177;" horiz-adv-x="638" 
d="M152 510l184 -408h9l147 408h108l-233 -566q-29 -72 -68 -105.5t-99 -33.5q-56 0 -94 26l27 75q16 -8 31 -11t29 -3q29 0 49.5 15t34.5 50l13 36l-252 517h114zM326 677l-94 -84l-47 49v10l133 127h21l133 -127v-10l-46 -49z" />
    <glyph glyph-name="ydieresis" unicode="&#xff;" horiz-adv-x="638" 
d="M152 510l184 -408h9l147 408h108l-233 -566q-29 -72 -68 -105.5t-99 -33.5q-56 0 -94 26l27 75q16 -8 31 -11t29 -3q29 0 49.5 15t34.5 50l13 36l-252 517h114zM215 735q27 0 45.5 -17.5t18.5 -44.5t-18.5 -44.5t-45.5 -17.5q-26 0 -44.5 17.5t-18.5 44.5t18.5 44.5
t44.5 17.5zM441 735q26 0 44.5 -17.5t18.5 -44.5t-18.5 -44.5t-44.5 -17.5t-44.5 17.5t-18.5 44.5t18.5 44.5t44.5 17.5z" />
    <glyph glyph-name="zacute" unicode="&#x17a;" horiz-adv-x="572" 
d="M509 510v-77l-323 -349h326v-84h-454v74l329 353h-311v83h433zM412 760l-82 -139h-85l85 187z" />
    <glyph glyph-name="zcaron" unicode="&#x17e;" horiz-adv-x="572" 
d="M509 510v-77l-323 -349h326v-84h-454v74l329 353h-311v83h433zM292 704l96 84l46 -49v-10l-132 -127h-21l-134 127v10l46 49z" />
    <glyph glyph-name="zdotaccent" unicode="&#x17c;" horiz-adv-x="572" 
d="M509 510v-77l-323 -349h326v-84h-454v74l329 353h-311v83h433zM291 744q28 0 48 -18t20 -49q0 -30 -20 -48t-48 -18q-27 0 -47 18t-20 48q0 31 20 49t47 18z" />
    <glyph glyph-name="Adblgrave" unicode="&#x200;" horiz-adv-x="762" 
d="M440 671l281 -671h-112l-60 152h-339l-59 -152h-109l279 671h119zM244 240h271l-129 328h-12zM480 772h-84l-66 171l84 33zM335 772h-84l-84 139l83 43z" />
    <glyph glyph-name="Edblgrave" unicode="&#x204;" 
d="M565 670v-89h-382v-189h336v-88h-336v-214h400v-90h-500v670h482zM452 772h-84l-66 171l84 33zM307 772h-84l-84 139l83 43z" />
    <glyph glyph-name="edblgrave" unicode="&#x205;" horiz-adv-x="612" 
d="M146 222q8 -71 55 -110t125 -39q53 0 96.5 13.5t83.5 42.5l44 -69q-51 -39 -106 -55.5t-120 -16.5t-116 18.5t-86.5 53t-54.5 83.5t-19 111q0 58 20 107t56 85t87 56t113 20q54 0 98 -17t75.5 -48.5t49 -75.5t17.5 -97q0 -16 -2 -31.5t-5 -30.5h-411zM466 302
q-1 62 -37 99t-109 37t-116 -36.5t-54 -99.5h316zM437 621h-78l-74 154l81 39zM294 621h-82l-80 124l80 44z" />
    <glyph glyph-name="Idblgrave" unicode="&#x208;" horiz-adv-x="269" 
d="M186 670v-670h-103v670h103zM247 772h-84l-66 171l84 33zM102 772h-84l-84 139l83 43z" />
    <glyph glyph-name="idblgrave" unicode="&#x209;" horiz-adv-x="246" 
d="M173 510v-510h-100v510h100zM244 621h-78l-74 154l81 39zM101 621h-82l-80 124l80 44z" />
    <glyph glyph-name="Odblgrave" unicode="&#x20c;" horiz-adv-x="811" 
d="M405 684q79 0 144 -26.5t111 -73.5t71.5 -111t25.5 -138q0 -72 -25.5 -135.5t-72 -111t-111 -75t-143.5 -27.5t-143.5 27t-111 74.5t-72 111t-25.5 136.5t26 136.5t72.5 110.5t111 74.5t142.5 27.5zM405 595q-59 0 -105.5 -20t-78.5 -55t-49 -82.5t-17 -102.5
t17.5 -102.5t49.5 -82.5t78.5 -55t104.5 -20q59 0 105.5 19.5t79 54.5t49.5 82.5t17 103.5q0 57 -17.5 104.5t-49.5 82t-79 54t-105 19.5zM527 772h-84l-66 171l84 33zM382 772h-84l-84 139l83 43z" />
    <glyph glyph-name="odblgrave" unicode="&#x20d;" horiz-adv-x="650" 
d="M325 522q61 0 112 -19.5t88 -55t57 -84.5t20 -108q0 -57 -21 -106t-57.5 -85t-87.5 -56t-111 -20q-62 0 -113 19.5t-87.5 55t-56.5 84.5t-20 108q0 57 20.5 106t57 85t87.5 56t112 20zM325 439q-41 0 -74.5 -13.5t-57 -38t-36 -58.5t-12.5 -74q0 -41 13 -75t36.5 -58
t56.5 -37.5t74 -13.5q42 0 75 13.5t56.5 37.5t36 58t12.5 75q0 40 -13 73.5t-36.5 58t-56.5 38.5t-74 14zM441 621h-78l-74 154l81 39zM298 621h-82l-80 124l80 44z" />
    <glyph glyph-name="rdblgrave" unicode="&#x211;" horiz-adv-x="541" 
d="M151 510l9 -106q26 58 76 88t119 30q48 0 88 -14.5t69 -39.5l-54 -75q-23 20 -53 30.5t-68 10.5q-60 0 -103 -39.5t-64 -106.5v-288h-97v510h78zM437 621h-78l-74 154l81 39zM294 621h-82l-80 124l80 44z" />
    <glyph glyph-name="Udblgrave" unicode="&#x214;" horiz-adv-x="754" 
d="M186 670v-364q0 -111 48.5 -171t142.5 -60q92 0 141.5 56t49.5 173v366h103v-367q0 -72 -18.5 -130.5t-55.5 -100t-92 -64t-128 -22.5q-72 0 -126.5 22t-92 62.5t-56.5 98.5t-19 131v370h103zM498 772h-84l-66 171l84 33zM353 772h-84l-84 139l83 43z" />
    <glyph glyph-name="udblgrave" unicode="&#x215;" horiz-adv-x="634" 
d="M170 510v-283q0 -80 32 -117t90 -37q61 0 105.5 38.5t66.5 108.5v290h97v-510h-78l-9 103q-26 -56 -74.5 -85.5t-115.5 -29.5q-99 0 -155 57t-56 169v296h97zM442 621h-78l-74 154l81 39zM299 621h-82l-80 124l80 44z" />
    <glyph glyph-name="Acircum" unicode="&#x202;" horiz-adv-x="762" 
d="M440 671l281 -671h-112l-60 152h-339l-59 -152h-109l279 671h119zM244 240h271l-129 328h-12zM392 935l136 -129v-10l-48 -50l-100 87l-99 -87l-49 50v10l137 129h23z" />
    <glyph glyph-name="acircum" unicode="&#x203;" horiz-adv-x="623" 
d="M79 463q51 32 102 45.5t108 13.5q119 0 174 -54.5t55 -150.5v-187q0 -32 11 -45.5t29 -13.5q11 0 21 4l9 -74q-21 -10 -51 -10q-38 0 -63.5 18.5t-33.5 67.5q-64 -89 -198 -89q-91 0 -143.5 43.5t-52.5 126.5q0 77 61 121t167 44q42 0 79.5 -7t69.5 -18v28q0 55 -32 83
t-100 28q-91 0 -173 -44zM424 222q-64 22 -146 22q-72 0 -102.5 -24.5t-30.5 -63.5q0 -42 29.5 -63.5t85.5 -21.5q34 0 63.5 9.5t52 26.5t35.5 40.5t13 52.5v22zM293 677l-94 -84l-47 49v10l133 127h21l133 -127v-10l-46 -49z" />
    <glyph glyph-name="Ecircum" unicode="&#x206;" 
d="M565 670v-89h-382v-189h336v-88h-336v-214h400v-90h-500v670h482zM347 935l136 -129v-10l-48 -50l-100 87l-99 -87l-49 50v10l137 129h23z" />
    <glyph glyph-name="ecircum" unicode="&#x207;" horiz-adv-x="612" 
d="M146 222q8 -71 55 -110t125 -39q53 0 96.5 13.5t83.5 42.5l44 -69q-51 -39 -106 -55.5t-120 -16.5t-116 18.5t-86.5 53t-54.5 83.5t-19 111q0 58 20 107t56 85t87 56t113 20q54 0 98 -17t75.5 -48.5t49 -75.5t17.5 -97q0 -16 -2 -31.5t-5 -30.5h-411zM466 302
q-1 62 -37 99t-109 37t-116 -36.5t-54 -99.5h316zM322 677l-94 -84l-47 49v10l133 127h21l133 -127v-10l-46 -49z" />
    <glyph glyph-name="Icircum" unicode="&#x20a;" horiz-adv-x="269" 
d="M186 670v-670h-103v670h103zM148 935l136 -129v-10l-48 -50l-100 87l-99 -87l-49 50v10l137 129h23z" />
    <glyph glyph-name="icircum" unicode="&#x20b;" horiz-adv-x="246" 
d="M173 510v-510h-100v510h100zM122 677l-94 -84l-47 49v10l133 127h21l133 -127v-10l-46 -49z" />
    <glyph glyph-name="Ocircum" unicode="&#x20e;" horiz-adv-x="811" 
d="M405 684q79 0 144 -26.5t111 -73.5t71.5 -111t25.5 -138q0 -72 -25.5 -135.5t-72 -111t-111 -75t-143.5 -27.5t-143.5 27t-111 74.5t-72 111t-25.5 136.5t26 136.5t72.5 110.5t111 74.5t142.5 27.5zM405 595q-59 0 -105.5 -20t-78.5 -55t-49 -82.5t-17 -102.5
t17.5 -102.5t49.5 -82.5t78.5 -55t104.5 -20q59 0 105.5 19.5t79 54.5t49.5 82.5t17 103.5q0 57 -17.5 104.5t-49.5 82t-79 54t-105 19.5zM417 935l136 -129v-10l-48 -50l-100 87l-99 -87l-49 50v10l137 129h23z" />
    <glyph glyph-name="ocircum" unicode="&#x20f;" horiz-adv-x="650" 
d="M325 522q61 0 112 -19.5t88 -55t57 -84.5t20 -108q0 -57 -21 -106t-57.5 -85t-87.5 -56t-111 -20q-62 0 -113 19.5t-87.5 55t-56.5 84.5t-20 108q0 57 20.5 106t57 85t87.5 56t112 20zM325 439q-41 0 -74.5 -13.5t-57 -38t-36 -58.5t-12.5 -74q0 -41 13 -75t36.5 -58
t56.5 -37.5t74 -13.5q42 0 75 13.5t56.5 37.5t36 58t12.5 75q0 40 -13 73.5t-36.5 58t-56.5 38.5t-74 14zM322 677l-94 -84l-47 49v10l133 127h21l133 -127v-10l-46 -49z" />
    <glyph glyph-name="Rcircum" unicode="&#x212;" horiz-adv-x="686" 
d="M372 670q55 0 101 -16t79 -45.5t51 -70.5t18 -90q0 -73 -42 -125t-111 -75l175 -248h-124l-150 224h-183v-224h-103v670h289zM186 312h175q72 0 114.5 36t42.5 100q0 67 -42 100.5t-111 33.5h-179v-270zM355 935l136 -129v-10l-48 -50l-100 87l-99 -87l-49 50v10l137 129
h23z" />
    <glyph glyph-name="rcircum" unicode="&#x213;" horiz-adv-x="541" 
d="M151 510l9 -106q26 58 76 88t119 30q48 0 88 -14.5t69 -39.5l-54 -75q-23 20 -53 30.5t-68 10.5q-60 0 -103 -39.5t-64 -106.5v-288h-97v510h78zM313 677l-94 -84l-47 49v10l133 127h21l133 -127v-10l-46 -49z" />
    <glyph glyph-name="Ucircum" unicode="&#x216;" horiz-adv-x="754" 
d="M186 670v-364q0 -111 48.5 -171t142.5 -60q92 0 141.5 56t49.5 173v366h103v-367q0 -72 -18.5 -130.5t-55.5 -100t-92 -64t-128 -22.5q-72 0 -126.5 22t-92 62.5t-56.5 98.5t-19 131v370h103zM389 935l136 -129v-10l-48 -50l-100 87l-99 -87l-49 50v10l137 129h23z" />
    <glyph glyph-name="ucircum" unicode="&#x217;" horiz-adv-x="634" 
d="M170 510v-283q0 -80 32 -117t90 -37q61 0 105.5 38.5t66.5 108.5v290h97v-510h-78l-9 103q-26 -56 -74.5 -85.5t-115.5 -29.5q-99 0 -155 57t-56 169v296h97zM314 677l-94 -84l-47 49v10l133 127h21l133 -127v-10l-46 -49z" />
    <glyph glyph-name="Tcedilla" unicode="&#x21a;" horiz-adv-x="689" 
d="M641 670v-90h-246v-582q25 -16 39 -48t14 -67q0 -59 -43.5 -105t-124.5 -64l-25 66q105 32 105 99q0 63 -83 66v23l17 42v570h-246v90h593z" />
    <glyph glyph-name="tcedilla" unicode="&#x21b;" horiz-adv-x="462" 
d="M116 510l17 142l88 -4l-5 -138h188v-85h-185v-254q0 -50 22 -72.5t67 -22.5q28 0 52.5 8t44.5 22l36 -73q-58 -42 -137 -45l-4 -44q29 -8 47 -32.5t18 -60.5q0 -54 -37 -95t-119 -63l-21 62q51 17 72 38.5t21 47.5q0 27 -17.5 40t-57.5 14v19l22 43v40q-53 16 -80 59
t-27 117v252h-84v79z" />
    <glyph glyph-name="gjlogo" horiz-adv-x="1157" 
d="M223 124q0 -9 -1.5 -20t-5.5 -20l2 -1q14 19 19 41.5t6 46.5l-1 35v287q0 6 3 9l19 22q2 2 4 2q4 0 4 -5v-69q0 -9 8 -9l70 5q5 -2 8.5 -7.5t3.5 -10.5q0 -2 -1 -3q-6 -6 -13 -6h-2l-65 2q-8 0 -8 -9v-222q0 -40 -12 -80.5t-48 -65.5l-43 -30q-17 -12 -34 -16.5t-37 -4.5
q-11 1 -25.5 7t-15.5 22q6 17 22 24q1 0 2.5 0.5t3.5 0.5q14 0 27.5 -10t30.5 -10q20 0 33 18q9 14 12.5 35.5t4.5 43.5v9q0 15 -1 27.5t-1 23.5v224q0 5 -3 7t-5 3q-12 4 -28 4q-30 0 -45 -18q-17 -16 -17 -47q0 -36 18 -57q11 -11 26 -18.5t35 -8.5l1 -5
q-14 -6 -25.5 -8.5t-26.5 -2.5q-29 8 -48 32t-19 55q0 21 10.5 38.5t26.5 31.5q13 11 30.5 19.5t34.5 8.5q8 0 15 -0.5t15 -0.5q9 0 15 8l16 20q3 0 5 -3v-344zM453 301q-13 7 -28 7q-17 0 -26 -9.5t-9 -24.5q0 -14 9 -23t26 -9q10 0 19 3v21l-22 2v14h40v-49
q-9 -5 -19 -6.5t-20 -1.5q-23 0 -37.5 13t-14.5 36t15 36.5t39 13.5q21 0 36 -9zM515 243h42v-17h-61v97h19v-80zM650 306h-41v-22h40v-17h-40v-24h45v-17h-64v97h60v-17zM759 256v67h18v-97h-16l-59 68v-68h-18v97h15zM841 231q0 -14 -9 -24t-27 -12l-3 16q20 2 20 21v91
h19v-92zM971 226h-21l-30 72l-30 -72h-20l43 98h15zM1072 256v67h18v-97h-16l-59 68v-68h-18v97h15z" />
    <glyph glyph-name="rupiah" horiz-adv-x="665" 
d="M382 652q55 0 99.5 -14.5t75.5 -40.5t48 -64t17 -84q0 -94 -64.5 -147.5t-179.5 -53.5h-166v-71h200v-79h-201v-98h-96v97l-87 7v73h85v71h-85v84h85v320h269zM212 332h166q71 0 108.5 31t37.5 85t-36.5 85.5t-105.5 31.5h-170v-233z" />
    <glyph glyph-name="ampersand.sc" horiz-adv-x="659" 
d="M602 326q0 -76 -22 -139t-64 -108l66 -65l-65 -64l-72 73q-64 -37 -148 -37q-57 0 -101.5 15.5t-75 43.5t-47 66.5t-16.5 84.5q0 51 23 93.5t66 71.5q-8 14 -11 32t-3 36q0 31 12.5 60t38 52t62.5 37t87 14q63 0 111 -22t85 -60l-59 -62q-29 29 -62 44.5t-75 15.5
q-54 0 -80.5 -24.5t-26.5 -60.5q0 -49 35 -84l195 -197q54 68 54 184h93zM189 288q-18 -17 -28 -41t-10 -53q0 -26 11 -48.5t31 -39t47.5 -26t60.5 -9.5q44 0 82 16z" />
    <glyph glyph-name="uni20B6" unicode="&#x20b6;" horiz-adv-x="665" 
d="M382 652q55 0 99.5 -14.5t75.5 -40.5t48 -64t17 -84q0 -94 -64.5 -147.5t-179.5 -53.5h-166v-71h200v-79h-201v-98h-96v97l-87 7v73h85v71h-85v84h85v320h269zM212 332h166q71 0 108.5 31t37.5 85t-36.5 85.5t-105.5 31.5h-170v-233z" />
    <glyph glyph-name="idotaccent" horiz-adv-x="245" 
d="M172 510v-510h-99v510h99zM123 744q27 0 47.5 -18t20.5 -49q0 -30 -20.5 -48t-47.5 -18q-28 0 -48 18t-20 48q0 31 20 49t48 18z" />
    <glyph glyph-name="one.sup" unicode="&#xb9;" horiz-adv-x="218" 
d="M175 747v-347h-80v233l-47 -23l-35 56l109 85z" />
    <glyph glyph-name="two.sup" unicode="&#xb2;" horiz-adv-x="350" 
d="M316 400h-284v62l150 95q26 17 41 35t15 41t-16.5 37t-51.5 14q-32 0 -56.5 -11t-47.5 -31l-41 54q64 58 149 58q64 0 103.5 -32t39.5 -84q0 -42 -20 -70.5t-58 -51.5l-70 -42h147v-74z" />
    <glyph glyph-name="three.sup" unicode="&#xb3;" horiz-adv-x="347" 
d="M191 613q38 0 38 31q0 37 -57 37t-95 -31l-44 51q31 27 65.5 40t79.5 13q60 0 95.5 -28.5t35.5 -73.5q0 -18 -8 -35.5t-26 -29.5q24 -9 36.5 -30.5t12.5 -47.5q0 -23 -9 -44t-27.5 -36.5t-47 -25t-66.5 -9.5q-46 0 -82 11t-70 39l36 57q29 -19 57.5 -26.5t60.5 -7.5
t49.5 11.5t17.5 31.5q0 33 -44 33h-89v70h81z" />
    <glyph glyph-name="ampersand.pc" horiz-adv-x="632" 
d="M448 413q-28 26 -62.5 39.5t-72.5 13.5q-51 0 -75 -21t-24 -52q0 -43 27 -70l195 -189q24 30 38 72t14 94h89q0 -69 -20.5 -127t-58.5 -99l60 -58l-61 -62l-69 66q-32 -17 -69 -26.5t-75 -9.5q-109 0 -171.5 52t-62.5 144q0 51 22.5 91t63.5 63q-14 30 -14 65
q0 30 11.5 56.5t35.5 47t59.5 32.5t83.5 12q58 0 105.5 -18t82.5 -51zM178 270q-36 -29 -36 -87q0 -24 10 -45.5t29 -37.5t45.5 -25t59.5 -9q21 0 41.5 4t38.5 12z" />
    <glyph glyph-name="mu" unicode="&#xb5;" horiz-adv-x="634" 
d="M170 510v-286q0 -76 31 -113.5t90 -37.5q62 0 106.5 38.5t66.5 108.5v290h97v-510h-78l-9 103q-26 -57 -71.5 -86t-106.5 -29q-84 0 -126 48v-233h-97v707h97z" />
    <glyph glyph-name="onequarter" unicode="&#xbc;" horiz-adv-x="736" 
d="M175 617v-347h-80v233l-47 -23l-35 56l109 85zM555 595l-390 -636l-61 35l390 636zM666 348v-218h42v-69l-42 -5v-56h-77v56h-211v64l200 228h88zM477 130h112v129z" />
    <glyph glyph-name="onehalf" unicode="&#xbd;" horiz-adv-x="772" 
d="M175 617v-347h-80v233l-47 -23l-35 56l109 85zM553 595l-390 -636l-60 35l390 636zM738 0h-284v62l150 95q26 17 41 35t15 41t-16.5 37t-51.5 14q-32 0 -56.5 -11t-47.5 -31l-41 54q64 58 149 58q64 0 103.5 -32t39.5 -84q0 -42 -20 -70.5t-58 -51.5l-70 -42h147v-74z
" />
    <glyph glyph-name="threequarters" unicode="&#xbe;" horiz-adv-x="816" 
d="M190 483q38 0 38 31q0 37 -56 37q-57 0 -95 -31l-45 51q31 27 65.5 40t80.5 13q60 0 95 -28.5t35 -73.5q0 -18 -7.5 -35.5t-25.5 -29.5q24 -9 36 -30.5t12 -47.5q0 -23 -9 -44t-27.5 -36.5t-47 -25t-66.5 -9.5q-46 0 -81.5 11t-70.5 39l37 57q29 -19 57 -26.5t60 -7.5
t49.5 11.5t17.5 31.5q0 33 -44 33h-89v70h81zM638 595l-390 -636l-60 35l390 636zM746 348v-218h42v-69l-42 -5v-56h-77v56h-211v64l200 228h88zM557 130h112v129z" />
    <glyph glyph-name="ampersand.a7" horiz-adv-x="742" 
d="M514 514q-29 32 -65.5 48.5t-81.5 16.5q-60 0 -88 -28t-28 -69q0 -27 8 -55t27 -53l115 -154q42 -56 83 -94q45 41 67.5 104t23.5 139h94q0 -88 -27.5 -165.5t-84.5 -131.5q27 -15 54 -24.5t56 -11.5l-9 -84q-100 8 -183 64q-32 -14 -69 -22t-79 -8q-64 0 -113 17.5
t-82.5 49t-51 74.5t-17.5 94q0 65 28 115.5t76 78.5q-11 33 -11 70q0 36 12.5 68.5t38 57t65 39.5t93.5 15q66 0 120 -23t89 -63zM401 82q-17 17 -33 35.5t-31 38.5l-133 182q-23 -22 -33.5 -50.5t-10.5 -60.5q0 -33 11.5 -61.5t33.5 -49.5t54 -33t73 -12q18 0 35.5 3
t33.5 8z" />
    <glyph glyph-name="ampersand.a8" horiz-adv-x="707" 
d="M516 516q-62 65 -152 65q-61 0 -91 -29.5t-30 -71.5q0 -26 10 -50t30 -45l234 -232q34 48 34 113q0 32 -10.5 65t-30.5 61l78 47q27 -35 41 -78.5t14 -88.5q0 -107 -63 -184q46 -57 46 -124q0 -75 -52 -122.5t-152 -49.5l-8 81q59 2 88 27t29 64q0 17 -5 32t-17 32
q-35 -20 -77.5 -31t-92.5 -11q-67 0 -118.5 17.5t-86.5 49t-53 74.5t-18 94q0 57 25 105.5t74 79.5q-16 36 -16 79q0 36 13.5 68.5t41 57t68.5 39.5t96 15q66 0 119.5 -22t89.5 -62zM209 335q-23 -20 -36 -48t-13 -60q0 -33 12 -61.5t35 -49.5t57.5 -33t78.5 -12
q61 0 105 22z" />
    <glyph glyph-name="ampersand.a9" horiz-adv-x="723" 
d="M516 513q-30 32 -67 49t-85 17q-61 0 -91 -28.5t-30 -70.5q0 -51 40 -94l79 -81q7 52 45.5 86.5t104.5 34.5q34 0 62 -12t47 -33t29.5 -49.5t10.5 -61.5q0 -52 -22 -102.5t-63 -89.5l65 -67l-68 -64l-72 76q-71 -37 -165 -37q-67 0 -118 17.5t-85.5 49t-52 74.5t-17.5 94
q0 57 25.5 106t71.5 79q-14 34 -14 76q0 36 13.5 69t41 58.5t68.5 40.5t96 15q67 0 119 -21t92 -63zM207 332q-23 -19 -35 -46.5t-12 -58.5q0 -33 11.5 -61.5t34.5 -49.5t56.5 -33t77.5 -12q53 0 97 19zM514 146q26 24 40.5 55t14.5 66q0 32 -16.5 51t-45.5 19
q-32 0 -49 -21t-17 -53q0 -29 19 -59.5t54 -57.5z" />
    <glyph glyph-name="ampersand.lc.a9" horiz-adv-x="713" 
d="M702 659q-11 -66 -30 -124t-45 -109q8 -26 12 -53t4 -56q0 -73 -25 -133.5t-69 -104t-105 -67.5t-133 -24q-58 0 -103.5 19t-77 51.5t-48.5 75.5t-17 92t17.5 92t49 74.5t74.5 50t93 18.5q63 0 101 -35t38 -92q0 -15 -3 -30q29 26 53 56t43 64q-28 61 -85.5 96.5
t-134.5 35.5q-75 0 -137.5 -27t-108.5 -70l-56 65q119 121 308 121q85 0 150.5 -33.5t107.5 -88.5q29 73 38 150zM553 320q-125 -150 -352 -203q20 -21 50 -33t65 -12q49 0 92 17.5t75.5 50t51 78t18.5 102.5zM162 185q103 23 148.5 60.5t45.5 78.5q0 23 -15.5 37.5
t-43.5 14.5q-30 0 -56.5 -10.5t-46 -29.5t-30.5 -46t-11 -59q0 -24 9 -46z" />
    <glyph glyph-name="ampersand.x1" horiz-adv-x="744" 
d="M571 -54l-73 80q-72 -40 -165 -40q-65 0 -115.5 17.5t-85 49t-52 74.5t-17.5 94q0 58 27.5 107t74.5 79q-16 37 -16 79q0 36 13 68t38 57t61.5 39.5t84.5 14.5q42 0 76 -13t58 -36.5t37 -55t13 -67.5q0 -66 -36.5 -122t-100.5 -98l116 -123q38 40 61.5 95t29.5 118
l94 -17q-12 -82 -42.5 -149.5t-78.5 -115.5l68 -71zM213 336q-23 -20 -37.5 -48.5t-14.5 -60.5q0 -33 12 -61.5t34.5 -49.5t55.5 -33t75 -12q54 0 96 24zM335 334q47 29 73 70t26 86q0 44 -25.5 67.5t-67.5 23.5q-49 0 -72 -29t-23 -71q0 -53 41 -96z" />
    <glyph glyph-name="perthousand" unicode="&#x2030;" horiz-adv-x="1141" 
d="M203 642q35 0 64.5 -11.5t50.5 -32t33 -48.5t12 -60t-12 -60t-33 -48.5t-50.5 -32t-64.5 -11.5t-64.5 11.5t-50.5 32t-33 48.5t-12 60t12 60t33 48.5t50.5 32t64.5 11.5zM663 584l-485 -601l-64 49l486 602zM203 567q-35 0 -56 -21t-21 -56t21 -56t56 -21t56 21t21 56
t-21 56t-56 21zM591 297q34 0 63.5 -11.5t50.5 -32t33 -48.5t12 -60t-12 -60t-33 -48.5t-50.5 -32t-63.5 -11.5q-35 0 -64.5 11.5t-50.5 32t-33 48.5t-12 60t12 60t33 48.5t50.5 32t64.5 11.5zM591 222q-35 0 -56 -21t-21 -56t21 -56t56 -21t55.5 21t20.5 56t-20.5 56
t-55.5 21zM952 297q35 0 64.5 -11.5t50.5 -32t33 -48.5t12 -60t-12 -60t-33 -48.5t-50.5 -32t-64.5 -11.5t-64 11.5t-50 32t-33 48.5t-12 60t12 60t33 48.5t50 32t64 11.5zM952 222q-35 0 -55.5 -21t-20.5 -56t20.5 -56t55.5 -21t56 21t21 56t-21 56t-56 21z" />
    </font>
</defs>
</svg>
